<?xml version="1.0" standalone="no"?>
<!DOCTYPE svg PUBLIC "-//W3C//DTD SVG 20010904//EN"
 "http://www.w3.org/TR/2001/REC-SVG-20010904/DTD/svg10.dtd">
<svg version="1.0" xmlns="http://www.w3.org/2000/svg"
 width="7396.000000pt" height="3721.000000pt" viewBox="0 0 7396.000000 3721.000000"
 preserveAspectRatio="xMidYMid meet">
<metadata>
Created by potrace 1.16, written by Peter Selinger 2001-2019
</metadata>
<g transform="translate(0.000000,3721.000000) scale(0.100000,-0.100000)"
fill="#FF390B" stroke="none">
<path d="M30560 37040 c0 -6 -78 -10 -212 -10 -259 0 -315 -6 -323 -31 -6 -18
-22 -19 -276 -19 -262 0 -269 0 -269 -20 0 -20 -7 -20 -351 -20 -342 0 -351 0
-356 -20 -5 -20 -14 -20 -395 -20 -381 0 -390 0 -395 -20 -5 -19 -14 -20 -167
-20 -173 0 -206 -4 -206 -26 0 -11 -24 -14 -115 -14 -102 0 -117 -2 -135 -20
-15 -15 -33 -20 -77 -20 -90 0 -131 -10 -136 -31 -5 -17 -16 -19 -102 -19 -88
0 -97 -2 -102 -20 -5 -18 -14 -20 -79 -20 -63 0 -76 -3 -86 -20 -10 -16 -24
-20 -69 -20 -48 0 -57 -3 -62 -20 -5 -18 -14 -20 -82 -20 -67 0 -78 -2 -82
-19 -4 -15 -17 -20 -60 -23 -36 -3 -59 -10 -64 -20 -5 -10 -31 -18 -65 -23
-44 -5 -57 -11 -61 -26 -4 -14 -14 -19 -43 -19 -29 0 -39 -4 -43 -20 -4 -15
-14 -20 -42 -20 -28 0 -38 -5 -42 -20 -4 -16 -14 -20 -44 -20 -32 0 -39 -3
-39 -20 0 -17 -7 -20 -39 -20 -30 0 -40 -4 -44 -19 -3 -13 -17 -22 -41 -26
-22 -5 -38 -14 -41 -26 -4 -10 -15 -19 -26 -19 -12 0 -19 -7 -19 -20 0 -16 -7
-20 -36 -20 -27 0 -37 -5 -41 -20 -3 -11 -14 -20 -24 -20 -11 0 -19 -7 -19
-15 0 -9 -11 -20 -25 -25 -14 -5 -25 -16 -25 -25 0 -9 -9 -15 -24 -15 -34 0
-56 -10 -56 -25 0 -8 -9 -17 -20 -20 -11 -3 -20 -13 -20 -21 0 -8 -15 -16 -40
-20 -30 -5 -40 -11 -40 -25 0 -12 -7 -19 -19 -19 -11 0 -23 -9 -26 -20 -3 -11
-15 -20 -26 -20 -12 0 -19 -7 -19 -20 0 -16 -7 -20 -36 -20 -27 0 -37 -5 -41
-20 -4 -15 -14 -20 -40 -20 -26 0 -36 -5 -40 -20 -3 -12 -14 -20 -27 -20 -37
0 -66 -12 -66 -26 0 -9 -11 -14 -29 -14 -57 0 -91 -12 -91 -31 0 -18 -11 -19
-210 -19 -199 0 -210 1 -210 19 0 13 -10 20 -31 25 -17 3 -303 6 -634 6 -331
0 -617 -3 -634 -6 -21 -5 -31 -12 -31 -25 0 -18 -12 -19 -226 -19 -217 0 -226
-1 -231 -20 -5 -19 -14 -20 -145 -20 -131 0 -140 -1 -145 -20 -5 -18 -14 -20
-105 -20 -91 0 -100 -2 -105 -20 -5 -18 -14 -20 -105 -20 -89 0 -100 -2 -105
-19 -4 -16 -17 -19 -100 -23 -73 -3 -97 -8 -104 -20 -5 -10 -30 -18 -69 -22
-50 -6 -60 -10 -60 -26 0 -18 -7 -20 -61 -20 -52 0 -62 -3 -66 -20 -5 -17 -14
-20 -64 -20 -52 0 -59 -2 -59 -20 0 -18 -7 -20 -55 -20 -44 0 -56 -4 -65 -20
-8 -14 -21 -20 -46 -20 -27 0 -37 -5 -41 -20 -4 -15 -14 -20 -39 -20 -23 0
-37 -6 -44 -19 -6 -12 -26 -22 -50 -26 -30 -5 -40 -11 -40 -26 0 -16 -7 -19
-40 -19 -33 0 -40 -3 -40 -20 0 -17 -7 -20 -40 -20 -33 0 -40 -3 -40 -20 0
-16 -7 -20 -35 -20 -23 0 -38 -6 -42 -16 -3 -8 -16 -20 -29 -25 -13 -4 -24
-15 -24 -22 0 -9 -15 -17 -40 -21 -23 -4 -40 -12 -40 -20 0 -7 -11 -18 -25
-24 -14 -6 -25 -18 -25 -27 0 -10 -10 -15 -34 -15 -26 0 -36 -5 -41 -20 -3
-11 -13 -20 -22 -20 -8 0 -17 -9 -20 -20 -3 -11 -14 -20 -24 -20 -12 0 -19 -7
-19 -19 0 -14 -10 -20 -40 -25 -25 -4 -40 -12 -40 -20 0 -8 -9 -18 -20 -21
-11 -3 -25 -15 -30 -26 -6 -10 -17 -19 -25 -19 -8 0 -15 -9 -15 -20 0 -13 -7
-20 -20 -20 -13 0 -20 -7 -20 -20 0 -13 -7 -20 -20 -20 -13 0 -20 -7 -20 -20
0 -13 -7 -20 -20 -20 -13 0 -20 -7 -20 -20 0 -14 -7 -20 -21 -20 -12 0 -23 -8
-26 -19 -3 -12 -17 -23 -37 -27 -36 -8 -46 -19 -46 -56 0 -21 -5 -28 -20 -28
-13 0 -20 -7 -20 -20 0 -13 -7 -20 -20 -20 -15 0 -20 -7 -20 -25 0 -18 -5 -25
-20 -25 -11 0 -20 -7 -20 -15 0 -8 -9 -15 -19 -15 -11 0 -22 -9 -26 -19 -3
-11 -15 -23 -26 -26 -10 -4 -19 -15 -19 -25 0 -9 -9 -20 -20 -23 -11 -3 -20
-12 -20 -20 0 -8 -9 -17 -20 -20 -15 -4 -20 -14 -20 -41 0 -29 -4 -36 -20 -36
-13 0 -20 -7 -20 -20 0 -11 -7 -20 -15 -20 -9 0 -20 -11 -25 -25 -5 -14 -16
-25 -24 -25 -9 0 -17 -15 -21 -39 -4 -27 -13 -41 -26 -44 -10 -3 -19 -12 -19
-20 0 -8 -9 -17 -20 -20 -15 -4 -20 -14 -20 -40 0 -26 -5 -36 -20 -40 -11 -3
-20 -14 -20 -25 0 -11 -9 -22 -20 -25 -15 -4 -20 -14 -20 -40 0 -26 -5 -36
-20 -40 -15 -4 -20 -14 -20 -40 0 -26 -5 -36 -20 -40 -14 -3 -21 -17 -26 -46
-4 -23 -12 -41 -19 -41 -15 0 -25 -22 -25 -55 0 -14 -7 -25 -20 -28 -17 -4
-20 -14 -20 -60 0 -46 -3 -55 -20 -60 -16 -4 -20 -14 -20 -46 0 -34 -3 -41
-20 -41 -18 0 -20 -7 -20 -59 0 -50 -3 -59 -20 -64 -14 -4 -20 -14 -20 -35 0
-49 -12 -92 -25 -92 -15 0 -25 -44 -25 -109 0 -35 -5 -49 -20 -59 -18 -11 -20
-23 -20 -106 0 -85 -2 -94 -20 -99 -19 -5 -20 -14 -20 -270 0 -256 -1 -265
-20 -270 -20 -5 -20 -14 -20 -520 0 -507 0 -516 -20 -522 -19 -6 -20 -15 -20
-316 0 -294 -1 -309 -18 -309 -17 0 -19 -13 -25 -157 -4 -87 -7 -229 -7 -315
0 -127 -3 -158 -14 -158 -7 0 -16 -14 -20 -31 -3 -17 -6 -240 -6 -495 0 -453
0 -464 -20 -474 -18 -10 -20 -21 -20 -104 0 -85 -2 -94 -20 -99 -17 -4 -20
-14 -20 -66 0 -54 -2 -61 -20 -61 -17 0 -20 -7 -20 -39 0 -30 -4 -40 -20 -44
-15 -4 -20 -14 -20 -40 0 -27 -5 -37 -20 -42 -13 -4 -20 -15 -20 -30 0 -33
-10 -55 -25 -55 -8 0 -16 -9 -20 -19 -3 -11 -12 -22 -19 -24 -8 -3 -17 -21
-21 -39 -4 -18 -16 -39 -26 -46 -12 -9 -19 -25 -19 -48 0 -27 -4 -34 -20 -34
-13 0 -20 -7 -20 -19 0 -10 -9 -21 -20 -24 -15 -4 -20 -14 -20 -40 0 -26 -5
-36 -20 -40 -14 -4 -20 -14 -20 -34 0 -33 -8 -47 -32 -56 -10 -3 -18 -13 -18
-22 0 -8 -6 -15 -14 -15 -9 0 -17 -15 -21 -39 -4 -27 -13 -41 -26 -44 -14 -4
-19 -14 -19 -40 0 -26 -5 -36 -20 -40 -12 -3 -20 -14 -20 -26 0 -14 -6 -21
-20 -21 -17 0 -20 -7 -20 -40 0 -33 -3 -40 -20 -40 -13 0 -20 -7 -20 -19 0
-10 -8 -21 -18 -24 -12 -2 -22 -17 -26 -37 -3 -18 -15 -39 -26 -47 -13 -10
-20 -26 -20 -49 0 -27 -4 -34 -20 -34 -13 0 -20 -7 -20 -19 0 -10 -9 -21 -20
-24 -15 -4 -20 -14 -20 -41 0 -29 -4 -36 -20 -36 -14 0 -20 -7 -20 -21 0 -12
-8 -23 -20 -26 -15 -4 -20 -14 -20 -39 0 -24 -6 -37 -17 -41 -24 -9 -33 -23
-33 -54 0 -18 -6 -28 -20 -32 -11 -3 -20 -12 -20 -20 0 -8 -9 -17 -20 -20 -15
-4 -20 -14 -20 -40 0 -26 -5 -36 -20 -40 -11 -3 -20 -14 -20 -25 0 -11 -9 -22
-20 -25 -15 -4 -20 -14 -20 -41 0 -29 -4 -36 -20 -36 -13 0 -20 -7 -20 -19 0
-11 -9 -22 -19 -26 -12 -3 -21 -19 -25 -40 -4 -19 -16 -39 -26 -45 -14 -8 -20
-21 -20 -45 0 -28 -4 -35 -20 -35 -13 0 -20 -7 -20 -19 0 -10 -9 -21 -20 -24
-15 -4 -20 -14 -20 -40 0 -26 -5 -36 -20 -40 -12 -3 -20 -14 -20 -26 0 -14 -6
-21 -20 -21 -16 0 -20 -7 -20 -36 0 -28 -5 -37 -20 -41 -14 -4 -22 -17 -26
-43 -4 -26 -12 -40 -25 -43 -14 -4 -19 -14 -19 -40 0 -26 -5 -36 -20 -40 -11
-3 -20 -14 -20 -25 0 -11 -9 -22 -20 -25 -16 -4 -20 -14 -20 -46 0 -34 -3 -41
-20 -41 -16 0 -20 -7 -20 -34 0 -26 -5 -36 -20 -41 -15 -5 -20 -15 -20 -42 0
-26 -5 -36 -19 -40 -13 -3 -22 -17 -26 -44 -4 -22 -12 -39 -20 -39 -15 0 -25
-22 -25 -53 0 -12 -9 -28 -20 -35 -14 -8 -20 -23 -20 -46 0 -25 -5 -35 -20
-39 -15 -4 -20 -14 -20 -40 0 -26 -5 -36 -20 -40 -17 -4 -20 -14 -20 -60 0
-45 -3 -56 -19 -60 -12 -3 -20 -17 -25 -46 -4 -25 -12 -41 -20 -41 -16 0 -26
-21 -26 -53 0 -12 -9 -28 -20 -35 -16 -10 -20 -23 -20 -67 0 -48 -2 -55 -20
-55 -17 0 -20 -7 -20 -39 0 -30 -4 -40 -20 -44 -17 -4 -20 -14 -20 -62 0 -48
-3 -58 -20 -62 -17 -5 -20 -14 -20 -64 0 -52 -2 -59 -20 -59 -14 0 -20 -7 -20
-22 0 -38 -12 -68 -26 -68 -9 0 -15 -20 -20 -60 -4 -38 -11 -60 -19 -60 -15 0
-25 -45 -25 -112 0 -41 -3 -51 -20 -55 -18 -5 -20 -14 -20 -83 0 -69 -2 -78
-20 -83 -18 -5 -20 -14 -20 -85 0 -71 -2 -80 -20 -85 -19 -5 -20 -14 -20 -126
0 -111 -2 -121 -18 -121 -17 0 -20 -12 -25 -112 -9 -145 -9 -449 0 -555 5 -72
8 -83 24 -83 17 0 19 -9 19 -81 0 -72 2 -81 20 -86 17 -5 20 -14 20 -60 0 -46
3 -56 20 -60 16 -4 20 -14 20 -45 0 -31 4 -41 20 -45 15 -4 20 -14 20 -40 0
-26 5 -36 20 -40 15 -4 20 -14 20 -40 0 -27 5 -36 20 -40 14 -4 22 -17 27 -46
4 -27 12 -41 24 -44 14 -4 19 -15 19 -44 0 -32 3 -39 20 -39 17 0 20 -7 20
-40 0 -33 3 -40 20 -40 16 0 20 -7 20 -35 0 -24 6 -37 20 -45 14 -8 20 -21 20
-46 0 -27 5 -37 20 -41 20 -5 20 -14 20 -363 0 -197 3 -365 6 -374 3 -9 12
-16 20 -16 10 0 14 -13 14 -44 0 -23 3 -71 6 -105 6 -50 10 -61 25 -61 16 0
19 -8 19 -60 0 -53 2 -60 20 -60 18 0 20 -7 20 -55 0 -44 4 -57 20 -67 14 -9
20 -24 20 -46 0 -25 5 -35 20 -39 16 -4 20 -14 20 -43 0 -30 5 -40 20 -45 15
-5 20 -15 20 -43 0 -51 10 -82 25 -82 15 0 25 -31 25 -82 0 -31 4 -38 20 -38
18 0 20 -7 20 -55 0 -48 2 -55 20 -55 17 0 20 -7 20 -50 0 -43 3 -50 20 -50
18 0 20 -7 20 -61 0 -52 3 -62 20 -66 16 -4 20 -14 20 -53 0 -67 10 -110 26
-110 9 0 14 -12 14 -34 0 -53 11 -96 26 -96 9 0 15 -20 20 -60 5 -46 11 -61
25 -65 17 -6 19 -17 19 -86 0 -72 2 -79 20 -79 19 0 20 -7 20 -101 0 -92 2
-101 20 -106 19 -5 20 -14 20 -125 0 -111 1 -120 20 -125 19 -5 20 -14 20
-230 0 -216 1 -225 20 -230 17 -5 20 -14 20 -67 0 -83 10 -136 25 -136 14 0
25 -44 25 -96 0 -27 4 -34 20 -34 18 0 20 -7 20 -61 0 -52 3 -62 20 -66 17 -5
20 -14 20 -60 0 -46 3 -56 20 -60 16 -4 20 -14 20 -43 0 -29 5 -40 19 -45 14
-4 20 -18 23 -57 3 -31 12 -56 22 -63 9 -7 19 -26 22 -44 4 -17 15 -36 25 -42
13 -6 19 -21 19 -44 0 -25 5 -35 20 -40 15 -5 20 -15 20 -40 0 -25 5 -35 20
-40 15 -5 20 -15 20 -42 0 -26 5 -36 20 -40 11 -3 20 -14 20 -23 0 -10 9 -22
20 -25 14 -4 20 -15 20 -35 0 -16 8 -35 18 -42 10 -7 21 -21 25 -30 3 -10 13
-18 21 -18 16 0 26 -21 26 -56 0 -17 6 -24 20 -24 14 0 20 -7 20 -21 0 -12 8
-23 20 -26 15 -4 20 -14 20 -40 0 -26 5 -36 20 -40 11 -3 20 -14 20 -24 0 -12
7 -19 20 -19 14 0 20 -7 20 -24 0 -34 10 -56 25 -56 8 0 16 -9 20 -19 3 -11
15 -23 26 -26 10 -4 19 -15 19 -26 0 -12 7 -19 20 -19 16 0 20 -7 20 -36 0
-27 5 -37 20 -41 11 -3 20 -14 20 -24 0 -12 7 -19 20 -19 13 0 20 -7 20 -20 0
-13 7 -20 20 -20 14 0 20 -7 20 -21 0 -12 8 -23 20 -26 13 -3 22 -17 26 -39 4
-20 13 -36 25 -39 10 -4 19 -13 19 -21 0 -8 9 -14 20 -14 15 0 20 -7 20 -25 0
-18 5 -25 20 -25 13 0 20 -7 20 -20 0 -13 7 -20 20 -20 13 0 20 -7 20 -19 0
-11 9 -22 19 -26 10 -3 21 -15 24 -25 3 -11 12 -20 20 -20 9 0 19 -9 22 -20 3
-11 15 -20 26 -20 12 0 19 -7 19 -20 0 -13 7 -20 20 -20 13 0 20 -7 20 -20 0
-13 7 -20 20 -20 13 0 20 -7 20 -20 0 -13 7 -20 20 -20 14 0 20 -7 20 -21 0
-12 8 -23 19 -26 11 -3 21 -13 24 -24 3 -10 12 -19 20 -19 8 0 17 -9 20 -20 3
-12 14 -20 26 -20 14 0 21 -6 21 -20 0 -13 7 -20 20 -20 13 0 20 -7 20 -20 0
-13 7 -20 20 -20 13 0 20 -7 20 -20 0 -13 7 -20 20 -20 14 0 20 -7 20 -21 0
-12 8 -23 19 -26 11 -3 21 -13 24 -24 3 -10 12 -19 20 -19 8 0 17 -9 20 -20 3
-12 14 -20 26 -20 14 0 21 -6 21 -20 0 -13 7 -20 20 -20 13 0 20 -7 20 -20 0
-13 7 -20 20 -20 13 0 20 -7 20 -20 0 -13 7 -20 20 -20 14 0 20 -7 20 -21 0
-12 8 -23 19 -26 11 -3 21 -13 24 -24 3 -10 12 -19 20 -19 9 0 19 -9 22 -20 3
-11 15 -20 26 -20 12 0 19 -7 19 -20 0 -13 7 -20 20 -20 13 0 20 -7 20 -20 0
-13 7 -20 20 -20 13 0 20 -7 20 -20 0 -13 7 -20 20 -20 13 0 20 -7 20 -19 0
-12 9 -21 25 -25 14 -4 25 -13 25 -21 0 -8 7 -15 15 -15 9 0 19 -8 22 -18 9
-23 23 -32 56 -32 20 0 27 -5 27 -20 0 -13 7 -20 20 -20 13 0 20 -7 20 -20 0
-13 7 -20 20 -20 13 0 20 -7 20 -20 0 -13 7 -20 20 -20 11 0 20 -5 20 -10 0
-14 66 -80 80 -80 5 0 10 -6 10 -14 0 -16 21 -26 56 -26 17 0 24 -6 24 -20 0
-13 7 -20 20 -20 13 0 20 -7 20 -20 0 -13 7 -20 20 -20 11 0 20 -7 20 -15 0
-9 11 -20 25 -25 14 -5 25 -16 25 -24 0 -8 9 -18 20 -21 11 -3 20 -13 20 -21
0 -8 9 -14 20 -14 13 0 20 -7 20 -19 0 -21 19 -31 56 -31 17 0 24 -6 24 -20 0
-13 7 -20 19 -20 10 0 21 -9 24 -20 3 -11 12 -20 20 -20 9 0 19 -9 22 -20 3
-11 15 -20 26 -20 12 0 19 -7 19 -20 0 -13 7 -20 20 -20 13 0 20 -7 20 -20 0
-11 5 -20 10 -20 6 0 20 -11 32 -25 13 -15 32 -25 49 -25 18 0 28 -6 32 -20 3
-11 12 -20 20 -20 8 0 17 -9 20 -20 3 -12 14 -20 26 -20 14 0 21 -6 21 -20 0
-13 7 -20 20 -20 13 0 20 -7 20 -19 0 -11 9 -23 20 -26 11 -3 20 -13 20 -21 0
-8 11 -19 24 -23 13 -5 26 -17 29 -25 4 -9 13 -16 21 -16 7 0 16 -9 19 -20 4
-15 14 -20 41 -20 29 0 36 -4 36 -20 0 -13 7 -20 20 -20 13 0 20 -7 20 -20 0
-13 7 -20 20 -20 13 0 20 -7 20 -19 0 -11 9 -23 20 -26 11 -3 20 -12 20 -20 0
-8 9 -16 19 -20 11 -3 23 -15 26 -26 4 -10 15 -19 25 -19 9 0 20 -9 23 -20 3
-11 12 -20 20 -20 8 0 17 -9 20 -20 4 -15 14 -20 41 -20 29 0 36 -4 36 -20 0
-11 7 -20 15 -20 9 0 20 -11 25 -25 5 -14 16 -25 24 -25 7 0 16 -9 19 -20 3
-11 12 -20 20 -20 9 0 19 -9 22 -20 3 -11 15 -20 26 -20 12 0 19 -7 19 -20 0
-13 7 -20 20 -20 13 0 20 -7 20 -20 0 -13 7 -20 20 -20 16 0 20 -7 20 -36 0
-27 5 -37 20 -41 10 -3 22 -14 25 -24 4 -10 12 -19 20 -19 7 0 16 -11 19 -25
4 -14 13 -25 21 -25 7 0 17 -9 20 -20 3 -11 15 -20 26 -20 12 0 19 -7 19 -20
0 -13 7 -20 20 -20 17 0 20 -7 20 -40 0 -33 3 -40 20 -40 14 0 20 -7 20 -21 0
-12 8 -23 20 -26 13 -3 20 -14 20 -29 0 -12 11 -35 25 -50 14 -15 25 -31 25
-35 0 -5 7 -9 15 -9 8 0 15 -7 15 -15 0 -9 11 -20 25 -25 20 -8 25 -16 25 -46
0 -27 5 -37 20 -41 15 -4 20 -14 20 -38 0 -25 5 -35 20 -40 11 -3 20 -15 20
-26 0 -12 7 -19 20 -19 16 0 20 -7 20 -36 0 -27 5 -37 19 -41 13 -3 22 -17 26
-44 4 -21 11 -39 16 -39 5 0 15 -11 21 -25 6 -14 19 -25 30 -25 14 0 18 -8 18
-40 0 -33 3 -40 20 -40 17 0 20 -7 20 -41 0 -32 4 -42 20 -46 15 -4 20 -14 20
-40 0 -26 5 -36 20 -40 16 -4 20 -14 20 -44 0 -32 3 -39 20 -39 17 0 20 -7 20
-41 0 -32 4 -42 20 -46 20 -5 20 -14 20 -1562 0 -856 3 -1566 6 -1579 4 -12
12 -22 19 -22 18 0 25 -23 25 -81 0 -42 3 -49 20 -49 17 0 20 -7 20 -40 0 -33
3 -40 20 -40 17 0 20 -7 20 -40 0 -33 3 -40 20 -40 14 0 20 -7 20 -21 0 -12 8
-23 19 -26 11 -3 21 -13 24 -24 3 -10 12 -19 20 -19 8 0 17 -9 20 -20 3 -12
14 -20 26 -20 14 0 21 -6 21 -20 0 -13 7 -20 19 -20 10 0 21 -9 24 -20 3 -14
14 -20 31 -20 14 0 34 -9 44 -20 9 -11 34 -23 54 -27 21 -3 38 -11 38 -18 0
-17 33 -25 102 -25 47 0 59 -4 68 -20 11 -20 21 -20 610 -20 329 0 605 3 614
6 9 3 16 12 16 20 0 11 21 14 101 14 92 0 101 2 106 20 4 17 14 20 58 20 71 0
115 10 115 26 0 9 20 15 60 20 50 5 60 10 60 25 0 16 8 19 41 19 32 0 42 4 46
20 4 15 14 20 40 20 26 0 36 5 40 20 3 11 12 20 20 20 8 0 17 9 20 20 3 11 9
20 14 20 13 0 79 67 79 80 0 5 6 10 14 10 16 0 26 21 26 53 0 12 9 28 20 35
16 10 20 23 20 66 0 45 3 54 20 59 19 5 20 14 20 186 0 174 1 181 20 181 19 0
20 7 20 123 0 191 11 337 25 337 15 0 25 45 25 116 0 40 4 54 14 54 18 0 26
22 26 73 0 31 5 45 20 55 16 10 20 23 20 66 0 45 3 54 20 59 17 4 20 14 20 60
0 46 3 55 20 60 17 4 20 14 20 60 0 47 3 57 20 62 13 4 20 15 20 30 0 33 10
55 25 55 8 0 16 17 20 41 4 22 13 43 21 46 8 3 17 23 20 44 4 22 12 39 19 39
15 0 25 22 25 55 0 14 7 25 20 28 15 4 20 14 20 41 0 29 4 36 20 36 14 0 20 7
20 21 0 12 8 23 20 26 14 4 20 14 20 32 0 31 9 45 33 54 9 3 17 13 17 22 0 8
7 15 15 15 9 0 19 8 22 17 4 9 24 33 45 52 21 19 38 41 38 48 0 7 9 13 20 13
13 0 20 7 20 20 0 13 7 20 20 20 13 0 20 7 20 20 0 13 7 20 20 20 13 0 20 7
20 20 0 13 7 20 19 20 11 0 23 9 26 20 3 11 13 20 22 20 8 0 17 9 20 20 3 11
12 20 20 20 8 0 17 9 20 20 3 11 14 20 24 20 12 0 19 7 19 19 0 15 10 21 40
26 25 4 40 12 40 21 0 8 11 19 25 24 14 5 25 16 25 25 0 8 9 15 20 15 13 0 20
7 20 19 0 16 8 20 38 23 32 3 37 7 40 31 2 19 9 27 23 27 10 0 19 5 19 10 0 6
9 10 19 10 11 0 22 9 26 19 3 12 19 21 41 26 24 4 38 13 41 26 3 10 14 19 24
19 12 0 19 7 19 20 0 13 7 20 20 20 13 0 20 7 20 20 0 17 7 20 40 20 33 0 40
3 40 20 0 14 7 20 21 20 12 0 23 8 26 20 3 11 12 20 20 20 8 0 17 9 20 20 3
11 12 20 19 20 8 0 19 11 24 25 5 14 16 25 25 25 8 0 15 9 15 20 0 13 7 20 19
20 10 0 21 9 24 20 3 11 12 20 19 20 8 0 20 11 26 25 6 14 16 25 22 25 5 0 13
18 16 39 4 27 12 41 25 44 14 4 19 14 19 41 0 24 5 36 14 36 20 0 26 23 26
101 0 62 2 69 20 69 18 0 20 7 20 79 0 70 -2 79 -20 84 -17 4 -20 14 -20 66 0
54 -2 61 -20 61 -14 0 -20 7 -20 24 0 44 -10 56 -46 56 -24 0 -34 5 -34 15 0
9 -11 21 -25 27 -14 6 -25 17 -25 24 0 7 -18 15 -40 19 -25 4 -40 12 -40 21 0
8 -8 18 -17 21 -10 4 -24 15 -31 25 -7 10 -26 18 -42 18 -20 0 -31 6 -35 20
-3 11 -15 20 -26 20 -12 0 -19 7 -19 20 0 17 -7 20 -40 20 -33 0 -40 3 -40 19
0 11 -9 23 -20 26 -11 3 -20 12 -20 20 0 15 -22 25 -55 25 -14 0 -25 7 -28 20
-3 11 -14 20 -25 20 -11 0 -22 9 -25 20 -4 15 -14 20 -41 20 -29 0 -36 4 -36
20 0 17 -7 20 -40 20 -33 0 -40 3 -40 20 0 15 -7 20 -25 20 -18 0 -25 5 -25
19 0 14 -10 20 -40 25 -24 4 -40 12 -40 20 0 16 -21 26 -55 26 -14 0 -25 7
-28 20 -4 15 -14 20 -40 20 -26 0 -36 5 -40 20 -3 12 -14 20 -26 20 -12 0 -21
5 -21 10 0 6 -18 10 -40 10 -38 0 -40 2 -40 30 0 28 -2 30 -40 30 -33 0 -40 3
-40 20 0 13 -9 22 -25 26 -14 3 -25 12 -25 19 0 15 -22 25 -56 25 -15 0 -24 6
-24 15 0 9 -8 19 -17 22 -10 4 -24 15 -31 25 -7 10 -26 18 -42 18 -20 0 -31 6
-35 20 -5 16 -15 20 -46 20 -32 0 -39 3 -39 20 0 13 -7 20 -19 20 -10 0 -21 8
-24 18 -2 11 -17 22 -35 25 -17 4 -41 16 -52 27 -11 11 -31 20 -44 20 -16 0
-27 7 -31 20 -5 16 -15 20 -46 20 -32 0 -39 3 -39 20 0 13 -7 20 -19 20 -10 0
-21 9 -24 20 -4 15 -14 20 -40 20 -26 0 -36 5 -40 20 -4 15 -14 20 -42 20 -28
0 -38 5 -42 20 -3 10 -13 22 -23 25 -10 3 -21 12 -23 19 -3 8 -21 17 -39 21
-18 4 -41 16 -51 26 -10 11 -31 19 -47 19 -23 0 -30 5 -30 20 0 17 -7 20 -40
20 -33 0 -40 3 -40 20 0 17 -7 20 -40 20 -33 0 -40 3 -40 20 0 17 -7 20 -39
20 -31 0 -40 4 -44 21 -3 11 -15 23 -26 26 -12 3 -21 11 -21 18 0 8 -17 16
-39 20 -27 4 -41 13 -44 26 -4 14 -14 19 -40 19 -26 0 -36 5 -40 20 -4 16 -14
20 -46 20 -34 0 -41 3 -41 20 0 13 -7 20 -19 20 -10 0 -21 9 -24 20 -4 15 -14
20 -40 20 -25 0 -36 5 -40 19 -3 12 -17 21 -41 25 -20 4 -40 15 -46 26 -8 14
-21 20 -45 20 -28 0 -35 4 -35 20 0 12 -7 20 -18 20 -9 0 -23 9 -30 20 -7 12
-23 20 -41 20 -20 0 -30 6 -34 20 -4 16 -14 20 -46 20 -34 0 -41 3 -41 20 0
13 -7 20 -19 20 -10 0 -21 8 -24 19 -3 11 -17 21 -40 25 -23 4 -37 13 -40 26
-4 15 -14 20 -40 20 -27 0 -37 5 -42 20 -3 11 -15 20 -25 20 -9 0 -20 9 -23
20 -4 15 -14 20 -41 20 -29 0 -36 4 -36 20 0 13 -7 20 -19 20 -11 0 -23 9 -26
20 -5 15 -15 20 -41 20 -19 0 -34 4 -34 9 0 19 -32 41 -60 41 -19 0 -29 6 -33
20 -3 11 -12 20 -20 20 -8 0 -17 9 -20 20 -4 15 -14 20 -40 20 -26 0 -36 5
-40 20 -3 11 -14 20 -25 20 -11 0 -22 9 -25 20 -4 15 -14 20 -41 20 -29 0 -36
4 -36 20 0 13 -7 20 -19 20 -10 0 -21 8 -24 19 -3 12 -17 21 -41 25 -20 4 -36
11 -36 16 0 6 -11 10 -25 10 -20 0 -25 5 -25 24 0 25 -16 36 -56 36 -17 0 -24
6 -24 20 0 13 -7 20 -19 20 -11 0 -23 9 -26 20 -5 15 -15 20 -40 20 -24 0 -34
5 -38 20 -3 12 -14 20 -26 20 -14 0 -21 6 -21 19 0 15 -10 21 -39 26 -27 4
-41 13 -44 26 -3 10 -12 19 -20 19 -8 0 -17 9 -20 20 -4 15 -14 20 -41 20 -26
0 -36 4 -36 15 0 9 -11 20 -25 25 -14 5 -25 16 -25 25 0 8 -8 15 -19 15 -10 0
-21 9 -24 20 -4 15 -14 20 -41 20 -29 0 -36 4 -36 19 0 11 -9 23 -20 26 -11 3
-20 13 -20 20 0 8 -11 17 -25 21 -14 3 -25 12 -25 19 0 15 -22 25 -56 25 -17
0 -24 6 -24 20 0 13 -7 20 -20 20 -13 0 -20 7 -20 20 0 13 -7 20 -19 20 -10 0
-21 9 -24 20 -4 15 -14 20 -41 20 -29 0 -36 4 -36 19 0 11 -9 22 -19 26 -11 3
-23 15 -26 26 -4 10 -15 19 -25 19 -9 0 -20 9 -23 20 -3 11 -12 20 -21 20 -9
0 -16 6 -16 14 0 16 -21 26 -56 26 -17 0 -24 6 -24 20 0 13 -7 20 -20 20 -13
0 -20 7 -20 20 0 13 -7 20 -19 20 -11 0 -22 9 -26 19 -3 11 -15 23 -26 26 -10
4 -19 13 -19 22 0 8 -9 17 -20 20 -11 3 -20 11 -20 18 0 15 -22 25 -56 25 -17
0 -24 6 -24 20 0 13 -7 20 -20 20 -12 0 -20 7 -20 16 0 9 -9 18 -20 21 -10 3
-22 14 -25 24 -4 10 -15 19 -26 19 -12 0 -19 7 -19 20 0 11 -7 20 -15 20 -8 0
-19 9 -25 20 -6 11 -17 20 -25 20 -8 0 -15 6 -15 13 0 22 -66 77 -92 77 -17 0
-27 7 -31 20 -3 12 -14 20 -26 20 -14 0 -21 6 -21 20 0 13 -7 20 -20 20 -14 0
-20 7 -20 21 0 12 -8 23 -20 26 -11 3 -20 12 -20 20 0 8 -9 17 -20 20 -11 3
-20 12 -20 20 0 8 -9 17 -20 20 -11 3 -20 12 -20 20 0 8 -9 17 -19 20 -12 3
-21 17 -26 40 -4 23 -13 37 -26 40 -10 3 -19 14 -19 24 0 11 -7 19 -15 19 -9
0 -20 11 -25 25 -5 14 -16 25 -25 25 -8 0 -15 7 -15 16 0 9 -9 18 -20 21 -14
4 -20 14 -20 35 0 21 -6 31 -20 35 -11 3 -20 14 -20 25 0 11 -8 22 -19 25 -11
3 -21 14 -24 25 -3 11 -15 22 -26 25 -16 4 -21 13 -21 38 0 25 -5 35 -20 40
-11 3 -20 15 -20 26 0 12 -7 19 -20 19 -16 0 -20 7 -20 36 0 27 -5 37 -20 41
-11 3 -20 13 -20 23 0 10 -9 20 -19 23 -13 3 -22 17 -26 41 -4 20 -11 36 -16
36 -5 0 -15 11 -21 25 -6 14 -19 25 -30 25 -14 0 -18 8 -18 40 0 33 -3 40 -20
40 -16 0 -20 7 -20 36 0 27 -5 37 -20 41 -11 3 -20 14 -20 25 0 11 -9 22 -20
25 -15 4 -20 14 -20 40 0 26 -5 36 -20 40 -11 3 -20 14 -20 24 0 12 -7 19 -20
19 -15 0 -20 7 -20 29 0 42 -10 61 -31 61 -15 0 -19 7 -19 36 0 27 -5 37 -20
41 -15 4 -20 14 -20 40 0 26 -5 36 -20 40 -11 3 -20 14 -20 25 0 11 -9 22 -20
25 -15 4 -20 14 -20 40 0 26 -5 36 -20 40 -15 4 -20 14 -20 40 0 26 -5 36 -20
40 -15 4 -20 14 -20 39 0 25 -7 38 -25 50 -19 12 -25 25 -25 50 0 27 -4 34
-20 34 -18 0 -20 7 -20 56 0 47 -3 57 -20 61 -16 4 -20 14 -20 43 0 30 -5 40
-20 45 -15 5 -20 15 -20 42 0 26 -5 36 -20 40 -16 4 -20 14 -20 48 0 52 -8 75
-25 75 -8 0 -15 22 -19 61 -6 49 -11 62 -27 66 -15 4 -19 14 -19 44 0 32 -3
39 -20 39 -18 0 -20 7 -20 65 0 58 -2 65 -20 65 -18 0 -20 7 -20 60 0 53 -2
60 -20 60 -18 0 -20 7 -20 70 0 57 -4 74 -20 90 -15 15 -20 33 -20 70 0 38 -4
52 -19 59 -14 8 -19 26 -23 83 -5 59 -9 75 -27 86 -17 12 -21 25 -21 69 0 46
-3 56 -20 60 -18 5 -20 14 -20 84 0 72 -2 79 -20 79 -18 0 -20 7 -20 81 0 72
-2 81 -20 86 -18 5 -20 14 -20 83 0 70 -2 79 -20 85 -18 6 -20 15 -20 82 0 65
-3 76 -19 80 -16 4 -19 18 -23 101 -4 77 -9 98 -24 109 -15 11 -19 31 -22 109
-4 84 -7 97 -23 101 -17 5 -19 16 -19 123 0 110 -1 119 -20 125 -19 6 -20 15
-20 151 0 137 -1 144 -20 144 -20 0 -20 7 -20 875 0 868 0 875 20 875 19 0 20
7 20 125 0 118 1 125 20 125 18 0 20 7 20 81 0 72 2 81 20 86 17 5 20 14 20
62 0 69 8 101 25 101 18 0 25 23 25 80 0 39 4 49 20 53 17 4 20 14 20 60 0 46
3 55 20 60 16 4 20 14 20 45 0 31 4 41 20 45 17 4 20 14 20 61 0 49 2 56 20
56 17 0 20 7 20 39 0 30 4 40 20 44 15 4 20 14 20 41 0 26 5 39 18 43 23 9 32
23 32 56 0 17 5 27 15 27 9 0 18 8 22 18 3 9 14 25 25 35 10 10 18 29 18 43 0
17 7 28 20 31 16 4 20 14 20 44 0 32 3 39 20 39 13 0 20 7 20 20 0 13 7 20 20
20 17 0 20 7 20 40 0 33 3 40 20 40 12 0 22 9 26 24 3 13 14 26 25 29 14 4 19
14 19 41 0 29 4 36 20 36 13 0 20 7 20 20 0 11 7 20 15 20 9 0 19 8 22 18 4 9
15 23 25 30 10 7 18 26 18 42 0 20 6 31 20 35 11 3 20 15 20 26 0 12 7 19 20
19 11 0 20 7 20 15 0 8 9 19 20 25 10 6 22 26 26 44 4 22 13 36 25 39 10 3 19
12 19 21 0 9 7 16 15 16 9 0 20 11 25 25 5 14 16 25 25 25 8 0 15 8 15 19 0
10 9 21 20 24 15 4 20 14 20 41 0 30 4 36 21 36 12 0 23 8 26 20 3 11 12 20
20 20 8 0 17 9 20 20 3 10 14 22 24 25 10 4 19 15 19 26 0 11 7 19 16 19 9 0
18 9 21 19 3 11 13 21 24 24 14 4 19 14 19 41 0 29 4 36 20 36 13 0 20 7 20
20 0 13 7 20 19 20 11 0 22 9 26 19 3 10 15 21 25 24 12 3 20 14 20 26 0 14 6
21 20 21 13 0 20 7 20 20 0 13 7 20 20 20 13 0 20 7 20 20 0 12 7 20 16 20 9
0 18 9 21 20 3 10 14 22 24 25 14 5 19 16 19 41 0 28 4 34 21 34 12 0 23 8 26
20 3 10 14 22 24 25 10 4 19 15 19 26 0 12 7 19 20 19 13 0 20 7 20 20 0 13 7
20 20 20 13 0 20 7 20 20 0 12 7 20 16 20 9 0 18 9 21 19 3 11 13 21 24 24 13
3 19 14 19 31 0 19 5 26 19 26 10 0 21 7 25 15 3 8 12 15 20 15 8 0 18 9 21
20 3 11 12 20 20 20 8 0 17 9 20 20 3 11 12 20 20 20 8 0 16 9 20 19 3 11 15
23 26 26 10 4 19 12 19 20 0 8 9 17 20 20 11 3 20 15 20 26 0 12 7 19 19 19
10 0 21 9 24 20 3 11 12 20 21 20 9 0 16 8 16 20 0 13 7 20 19 20 11 0 23 9
26 20 3 11 12 20 20 20 8 0 16 9 20 19 3 11 15 23 26 26 10 4 19 12 19 20 0 8
9 17 20 20 11 3 20 13 20 21 0 8 7 14 15 14 9 0 20 11 24 24 5 13 19 26 30 29
12 3 21 12 21 21 0 9 8 16 20 16 13 0 20 7 20 20 0 13 7 20 20 20 13 0 20 7
20 20 0 13 7 20 20 20 13 0 20 7 20 20 0 14 7 20 24 20 35 0 56 10 56 26 0 8
6 14 13 14 7 0 23 11 35 25 12 14 26 25 32 25 5 0 10 9 10 20 0 16 7 20 36 20
27 0 37 5 41 20 3 11 14 20 24 20 12 0 19 7 19 20 0 17 7 20 39 20 31 0 41 4
46 20 4 13 15 20 31 20 13 0 32 8 42 18 10 10 26 21 35 25 9 3 17 13 17 20 0
9 15 17 39 21 27 4 40 12 44 26 4 15 13 20 40 20 27 0 37 5 42 20 3 11 15 20
26 20 12 0 19 7 19 20 0 16 7 20 36 20 27 0 37 5 41 20 3 11 14 20 23 20 10 0
22 9 25 20 4 13 15 20 30 20 13 0 36 11 51 25 15 14 31 25 35 25 5 0 9 9 9 20
0 16 7 20 36 20 27 0 37 5 41 20 3 11 14 20 23 20 10 0 21 9 25 19 3 10 15 21
25 24 11 3 20 12 20 21 0 10 9 16 24 16 14 0 37 11 52 25 15 14 31 25 35 25 5
0 9 6 9 14 0 8 9 18 20 21 11 3 20 15 20 26 0 16 7 19 40 19 33 0 40 3 40 20
0 14 7 20 21 20 12 0 23 8 26 20 3 11 14 20 24 20 12 0 19 7 19 20 0 16 7 20
36 20 27 0 37 5 41 19 3 13 17 22 44 26 24 4 39 12 39 21 0 8 16 16 41 20 29
5 43 13 46 25 4 14 15 19 44 19 37 0 39 2 39 30 l0 30 85 0 c50 0 85 4 85 10
0 6 40 10 101 10 92 0 101 2 106 20 5 18 14 20 80 20 66 0 75 2 80 20 6 23 53
29 53 6 0 -16 21 -26 56 -26 17 0 24 -6 24 -20 0 -13 7 -20 20 -20 11 0 20 -4
20 -10 0 -5 18 -10 40 -10 38 0 40 -2 40 -30 0 -23 5 -30 19 -30 10 0 21 -9
24 -20 3 -14 17 -21 46 -26 31 -5 41 -11 41 -25 0 -12 7 -19 19 -19 10 0 21
-9 24 -20 4 -15 14 -20 41 -20 29 0 36 -4 36 -20 0 -13 7 -20 19 -20 10 0 21
-9 24 -20 3 -12 14 -20 26 -20 14 0 21 -6 21 -20 0 -13 7 -20 20 -20 12 0 20
-7 20 -16 0 -9 9 -18 20 -21 11 -3 20 -12 20 -20 0 -8 9 -17 20 -20 11 -3 20
-12 20 -19 0 -8 7 -17 16 -21 8 -3 20 -16 25 -29 4 -13 15 -24 23 -24 9 0 17
-15 21 -40 4 -23 12 -40 20 -40 8 0 16 -9 20 -19 3 -11 15 -23 26 -26 16 -5
19 -16 19 -62 0 -46 3 -56 20 -60 19 -5 20 -14 20 -233 0 -219 -1 -228 -20
-233 -19 -5 -20 -14 -20 -140 0 -127 1 -136 20 -142 11 -3 20 -15 20 -26 0
-12 7 -19 20 -19 13 0 20 -7 20 -20 0 -18 7 -20 61 -20 51 0 62 -3 66 -19 3
-11 15 -22 26 -25 12 -3 150 -6 306 -6 259 0 285 -2 297 -17 11 -16 36 -18
229 -21 212 -3 217 -3 222 17 4 18 13 21 53 21 72 0 112 11 117 32 4 13 15 18
44 18 32 0 39 3 39 20 0 13 7 20 20 20 13 0 20 7 20 20 0 13 7 20 19 20 11 0
22 9 26 19 3 10 15 21 25 24 11 3 20 12 20 20 0 9 9 19 20 22 11 3 20 12 20
20 0 8 9 17 20 20 11 3 20 15 20 26 0 16 7 19 40 19 33 0 40 3 40 20 0 19 7
20 210 20 203 0 210 1 210 20 0 18 7 20 79 20 71 0 80 2 86 20 5 15 15 20 43
20 52 0 82 10 82 26 0 9 12 14 35 14 23 0 37 6 44 19 6 11 26 21 51 25 31 5
40 11 40 26 0 17 7 20 40 20 33 0 40 3 40 20 0 17 7 20 39 20 31 0 41 4 46 20
5 15 15 20 42 20 26 0 36 5 40 20 4 15 14 20 40 20 26 0 36 5 40 19 3 13 17
22 44 26 24 4 39 12 39 21 0 8 15 16 40 20 26 4 41 13 45 25 5 14 16 19 46 19
32 0 39 3 39 20 0 18 7 20 61 20 52 0 62 3 66 20 5 17 14 20 64 20 52 0 59 2
59 20 0 18 7 20 55 20 44 0 57 4 67 20 9 14 24 20 46 20 25 0 35 5 39 20 3 13
14 20 28 20 36 0 55 11 55 31 0 16 8 19 45 19 38 0 45 3 45 20 0 17 7 20 40
20 33 0 40 3 40 20 0 17 7 20 40 20 33 0 40 3 40 20 0 14 7 20 24 20 34 0 56
10 56 25 0 7 11 16 25 19 16 4 25 13 25 26 0 13 7 20 20 20 13 0 20 7 20 20 0
13 7 20 20 20 13 0 20 7 20 19 0 10 9 21 20 24 14 4 20 14 20 35 0 20 8 36 21
46 37 26 40 206 4 206 -9 0 -20 11 -25 25 -8 20 -16 25 -44 25 -25 0 -35 5
-39 20 -4 15 -14 20 -41 20 -26 0 -36 4 -36 15 0 9 -11 20 -25 25 -14 5 -25
16 -25 24 0 7 -9 16 -20 19 -15 4 -20 14 -20 41 0 29 -4 36 -20 36 -17 0 -20
7 -20 41 0 32 -4 42 -20 46 -16 4 -20 14 -20 44 0 32 -3 39 -20 39 -17 0 -20
7 -20 40 0 33 -3 40 -20 40 -16 0 -20 7 -20 35 0 24 -6 39 -20 47 -11 7 -20
23 -20 35 0 32 -10 53 -26 53 -12 0 -14 37 -14 210 0 172 2 210 14 210 16 0
26 30 26 81 0 28 5 38 20 42 15 4 20 14 20 41 0 26 4 36 16 36 9 0 18 9 21 20
3 10 14 22 24 25 10 4 19 15 19 26 0 12 7 19 20 19 13 0 20 7 20 20 0 12 7 20
16 20 9 0 18 9 21 20 3 11 12 20 20 20 8 0 17 9 20 19 6 22 48 28 151 23 57
-4 62 -6 62 -27 0 -34 10 -55 26 -55 8 0 14 -8 14 -19 0 -10 9 -21 20 -24 13
-3 20 -14 20 -30 0 -35 10 -57 25 -57 8 0 17 -9 20 -20 3 -11 15 -20 26 -20
15 0 19 -7 19 -36 0 -27 5 -37 20 -41 11 -3 20 -14 20 -24 0 -12 7 -19 20 -19
13 0 20 -7 20 -19 0 -11 9 -22 19 -26 10 -3 21 -15 24 -25 3 -11 12 -20 21
-20 9 0 16 -7 16 -16 0 -9 9 -18 20 -21 13 -3 22 -17 26 -40 4 -23 14 -37 25
-40 11 -3 19 -14 19 -24 0 -12 7 -19 20 -19 16 0 20 -7 20 -35 0 -23 6 -38 16
-42 8 -3 20 -16 25 -29 4 -13 15 -24 24 -24 11 0 15 -10 15 -36 0 -27 5 -37
20 -41 15 -4 20 -14 20 -39 0 -21 7 -38 18 -46 11 -7 22 -30 26 -50 5 -29 12
-38 26 -38 17 0 20 -7 20 -40 0 -33 3 -40 20 -40 18 0 20 -7 20 -61 0 -52 3
-62 20 -66 18 -5 20 -14 20 -100 0 -86 2 -95 20 -100 19 -5 20 -14 20 -258 0
-244 -1 -253 -20 -258 -19 -5 -20 -14 -20 -225 0 -211 -1 -220 -20 -225 -19
-5 -20 -14 -20 -167 0 -153 1 -162 20 -167 19 -5 20 -14 20 -208 0 -194 -1
-203 -20 -208 -19 -5 -20 -14 -20 -145 0 -131 -1 -140 -20 -145 -19 -5 -20
-14 -20 -126 0 -100 -3 -121 -15 -121 -23 0 -35 -34 -35 -104 0 -50 -3 -66
-14 -66 -18 0 -26 -31 -26 -106 0 -53 -3 -62 -20 -67 -17 -4 -20 -14 -20 -60
0 -46 -3 -55 -20 -60 -16 -4 -20 -14 -20 -45 0 -31 -4 -41 -20 -45 -17 -4 -20
-14 -20 -66 0 -54 -2 -61 -20 -61 -11 0 -20 -6 -20 -14 0 -8 -8 -17 -19 -21
-12 -4 -21 -19 -25 -45 -4 -26 -12 -40 -21 -40 -9 0 -17 -14 -21 -40 -5 -30
-11 -40 -25 -40 -12 0 -19 -7 -19 -19 0 -10 -9 -21 -20 -24 -15 -4 -20 -14
-20 -41 0 -29 -4 -36 -20 -36 -13 0 -20 -7 -20 -19 0 -10 -9 -21 -20 -24 -12
-3 -20 -14 -20 -26 0 -14 -6 -21 -19 -21 -11 0 -23 -9 -26 -20 -3 -11 -13 -20
-22 -20 -8 0 -17 -9 -20 -20 -3 -11 -12 -20 -20 -20 -8 0 -17 -9 -20 -20 -3
-11 -12 -20 -20 -20 -8 0 -17 -9 -20 -20 -3 -11 -12 -20 -20 -20 -8 0 -17 -9
-20 -20 -3 -11 -12 -20 -20 -20 -8 0 -17 -9 -20 -20 -4 -14 -17 -22 -44 -26
-24 -4 -39 -12 -39 -21 0 -7 -11 -18 -25 -23 -14 -5 -25 -16 -25 -25 0 -9 -9
-15 -24 -15 -35 0 -56 -10 -56 -26 0 -8 -7 -14 -16 -14 -9 0 -18 -9 -21 -20
-3 -11 -14 -20 -23 -20 -10 0 -22 -9 -25 -20 -4 -13 -15 -20 -33 -20 -32 0
-46 -9 -55 -32 -4 -12 -17 -18 -38 -18 -22 0 -32 -5 -36 -20 -3 -11 -14 -20
-24 -20 -12 0 -19 -7 -19 -20 0 -17 -7 -20 -40 -20 -29 0 -40 -4 -40 -15 0 -9
-11 -20 -25 -25 -14 -5 -25 -16 -25 -25 0 -11 -10 -15 -36 -15 -27 0 -37 -5
-41 -20 -4 -14 -14 -20 -34 -20 -19 0 -37 -9 -51 -25 -14 -16 -32 -25 -51 -25
-20 0 -30 -6 -34 -20 -4 -15 -14 -20 -40 -20 -26 0 -36 -5 -40 -20 -4 -16 -14
-20 -44 -20 -32 0 -39 -3 -39 -20 0 -17 -7 -20 -39 -20 -31 0 -41 -4 -46 -20
-4 -13 -15 -20 -30 -20 -33 0 -55 -10 -55 -25 0 -8 -17 -16 -40 -20 -23 -4
-40 -12 -40 -20 0 -13 -30 -25 -67 -25 -16 0 -23 -6 -23 -20 0 -17 -7 -20 -40
-20 -33 0 -40 -3 -40 -20 0 -18 -7 -20 -56 -20 -47 0 -57 -3 -61 -20 -4 -16
-14 -20 -45 -20 -31 0 -41 -4 -45 -20 -4 -15 -14 -20 -40 -20 -26 0 -36 -5
-40 -19 -4 -14 -17 -20 -61 -24 -35 -4 -59 -12 -64 -21 -5 -9 -27 -19 -48 -22
-30 -5 -40 -11 -40 -25 0 -16 -8 -19 -59 -19 -51 0 -61 -3 -66 -20 -5 -15 -15
-20 -42 -20 -26 0 -36 -5 -40 -20 -4 -16 -14 -20 -44 -20 -32 0 -39 -3 -39
-20 0 -16 -7 -20 -37 -20 -58 0 -83 -10 -89 -36 -5 -20 -12 -24 -44 -24 -21 0
-40 -5 -42 -10 -2 -6 -29 -14 -61 -17 -47 -5 -57 -9 -57 -24 0 -16 -8 -19 -45
-19 -38 0 -45 -3 -45 -20 0 -18 -7 -20 -59 -20 -51 0 -61 -3 -66 -20 -6 -17
-15 -20 -76 -20 -58 0 -71 -3 -81 -20 -10 -16 -24 -20 -65 -20 -42 0 -55 -4
-65 -20 -11 -17 -24 -20 -79 -20 -85 0 -129 -9 -129 -26 0 -12 -73 -14 -440
-14 -367 0 -440 2 -440 14 0 19 -46 26 -175 26 -104 0 -113 1 -118 20 -5 18
-14 20 -82 20 -68 0 -77 2 -82 20 -5 18 -14 20 -83 20 -69 0 -78 2 -83 20 -4
16 -14 20 -45 20 -31 0 -41 4 -45 20 -4 15 -14 20 -41 20 -29 0 -36 4 -36 20
0 15 -7 20 -29 20 -16 0 -36 7 -45 15 -8 8 -22 15 -30 15 -9 0 -16 8 -16 20 0
11 -11 27 -25 36 -14 9 -25 23 -25 30 0 8 -9 14 -20 14 -13 0 -20 7 -20 20 0
13 -7 20 -20 20 -13 0 -20 7 -20 20 0 13 -7 20 -20 20 -16 0 -20 7 -20 36 0
27 -5 37 -20 41 -11 3 -20 14 -20 24 0 12 -10 21 -25 25 -14 3 -25 12 -25 19
0 15 -22 25 -56 25 -17 0 -24 6 -24 20 0 17 -7 20 -40 20 -33 0 -40 3 -40 20
0 19 -7 20 -210 20 -203 0 -210 -1 -210 -20 0 -13 -7 -20 -20 -20 -13 0 -20
-7 -20 -20 0 -13 -7 -20 -20 -20 -13 0 -20 -7 -20 -20 0 -11 -7 -20 -15 -20
-18 0 -35 -31 -35 -63 0 -16 -7 -26 -20 -30 -15 -4 -20 -14 -20 -40 0 -26 -5
-36 -20 -40 -15 -4 -20 -14 -20 -40 0 -26 -5 -36 -20 -40 -17 -4 -20 -14 -20
-65 0 -51 -3 -60 -20 -65 -19 -5 -20 -14 -20 -126 0 -114 1 -121 20 -121 18 0
20 -7 20 -59 0 -50 3 -59 20 -64 14 -3 20 -14 20 -31 0 -14 8 -34 18 -44 10
-10 21 -26 25 -35 3 -9 13 -17 21 -17 8 0 18 -9 21 -20 3 -11 15 -20 26 -20
12 0 19 -7 19 -19 0 -11 9 -23 20 -26 11 -3 20 -13 20 -21 0 -8 8 -18 18 -21
9 -4 34 -24 54 -45 20 -21 41 -38 46 -38 5 0 12 -9 15 -20 3 -11 12 -20 20
-20 8 0 17 -9 20 -20 4 -15 14 -20 41 -20 30 0 36 -4 36 -21 0 -12 8 -23 20
-26 11 -3 20 -12 20 -19 0 -8 9 -14 20 -14 13 0 20 -7 20 -20 0 -13 10 -24 25
-30 14 -5 25 -16 25 -25 0 -11 11 -15 40 -15 33 0 40 -3 40 -20 0 -13 7 -20
20 -20 13 0 20 -7 20 -20 0 -13 7 -20 19 -20 10 0 21 -8 24 -19 3 -11 17 -21
40 -25 23 -4 37 -13 40 -26 3 -12 14 -20 26 -20 14 0 21 -6 21 -20 0 -17 7
-20 40 -20 33 0 40 -3 40 -20 0 -13 7 -20 19 -20 10 0 21 -9 24 -20 4 -15 14
-20 40 -20 26 0 36 -5 40 -20 4 -16 14 -20 46 -20 34 0 41 -3 41 -19 0 -15 10
-21 40 -26 23 -4 40 -12 40 -20 0 -15 31 -25 82 -25 28 0 38 -5 43 -20 5 -15
15 -20 45 -20 29 0 39 -4 43 -20 4 -17 14 -20 65 -20 51 0 60 -3 65 -20 5 -18
14 -20 81 -20 69 0 76 -2 76 -20 0 -18 7 -20 84 -20 73 0 84 -2 88 -18 6 -22
51 -32 146 -32 46 0 62 -4 62 -14 0 -18 45 -26 152 -26 81 0 90 -2 95 -20 5
-18 14 -20 84 -20 68 0 80 -3 89 -20 9 -17 21 -20 84 -20 65 0 74 -2 79 -20 5
-18 14 -20 86 -20 74 0 81 -2 81 -20 0 -18 7 -20 80 -20 72 0 80 -2 80 -19 0
-24 19 -31 80 -31 39 0 49 -4 53 -20 4 -17 14 -20 60 -20 46 0 55 -3 60 -20 4
-17 14 -20 66 -20 54 0 61 -2 61 -20 0 -17 7 -20 39 -20 30 0 40 -4 44 -20 4
-17 14 -20 60 -20 47 0 57 -3 62 -20 5 -16 15 -20 46 -20 32 0 39 -3 39 -20 0
-14 9 -21 36 -26 20 -4 45 -15 55 -25 11 -11 33 -19 49 -19 19 0 30 -5 30 -14
0 -18 22 -26 75 -26 34 0 44 -4 48 -20 4 -16 14 -20 45 -20 31 0 41 -4 45 -20
4 -17 14 -20 61 -20 49 0 56 -2 56 -20 0 -17 7 -20 39 -20 31 0 41 -5 46 -20
5 -15 19 -21 66 -26 37 -4 59 -11 59 -19 0 -17 23 -25 75 -25 34 0 44 -4 48
-20 4 -17 14 -20 66 -20 54 0 61 -2 61 -20 0 -18 7 -20 59 -20 50 0 59 -3 64
-20 4 -17 14 -20 66 -20 54 0 61 -2 61 -20 0 -18 7 -20 55 -20 44 0 57 -4 62
-17 10 -27 23 -33 79 -33 43 0 53 -3 57 -20 4 -17 14 -20 60 -20 46 0 55 -3
60 -20 4 -15 14 -20 42 -20 28 0 38 -5 42 -20 4 -16 14 -20 44 -20 32 0 39 -3
39 -20 0 -17 7 -20 39 -20 30 0 40 -4 44 -20 4 -15 14 -20 40 -20 27 0 36 -5
40 -21 3 -11 15 -23 26 -26 12 -3 21 -11 21 -18 0 -8 17 -16 40 -20 25 -4 40
-12 40 -21 0 -8 11 -19 24 -23 13 -5 26 -17 29 -25 4 -10 19 -16 42 -16 28 0
35 -4 35 -20 0 -17 7 -20 40 -20 33 0 40 -3 40 -20 0 -13 7 -20 20 -20 13 0
20 -7 20 -20 0 -15 9 -21 39 -26 27 -4 41 -12 44 -25 3 -11 14 -19 26 -19 12
0 21 -6 21 -14 0 -16 21 -26 56 -26 17 0 24 -6 24 -20 0 -17 7 -20 40 -20 33
0 40 -3 40 -20 0 -14 7 -20 21 -20 12 0 23 -8 26 -20 4 -16 14 -20 44 -20 32
0 39 -4 39 -19 0 -21 19 -31 56 -31 15 0 24 -6 24 -15 0 -9 8 -18 18 -22 9 -3
25 -14 35 -25 10 -10 31 -18 47 -18 23 0 30 -5 30 -20 0 -17 7 -20 39 -20 30
0 40 -4 44 -20 4 -15 14 -20 40 -20 26 0 36 -5 40 -20 4 -17 14 -20 65 -20 50
0 60 -3 65 -19 3 -11 17 -21 40 -25 23 -4 37 -13 40 -26 4 -15 14 -20 40 -20
26 0 36 -5 40 -20 5 -19 14 -20 167 -20 153 0 162 1 167 20 4 15 14 20 39 20
28 0 36 5 44 25 5 14 16 25 24 25 8 0 18 9 21 20 3 11 12 20 20 20 7 0 16 17
20 37 4 21 15 43 26 51 17 12 19 26 19 126 0 105 1 114 20 119 18 5 20 14 20
102 0 88 -2 97 -20 102 -19 5 -20 14 -20 125 0 111 -1 120 -20 125 -20 5 -20
14 -20 648 0 634 0 643 20 648 20 5 20 14 20 396 0 380 1 391 20 401 19 10 20
21 20 250 0 230 1 239 20 245 15 5 20 15 20 41 0 24 5 34 15 34 9 0 20 11 25
25 9 24 13 25 90 25 72 0 80 -2 80 -19 0 -11 9 -21 23 -25 30 -8 702 -8 761 0
36 5 46 11 46 25 0 18 10 19 125 19 118 0 125 1 125 20 0 19 7 20 105 20 98 0
105 1 105 20 0 18 7 20 61 20 52 0 62 3 66 20 5 17 14 20 60 20 46 0 56 3 60
20 4 15 14 20 39 20 22 0 37 6 43 19 6 11 26 21 51 25 31 5 40 11 40 26 0 17
7 20 40 20 33 0 40 3 40 20 0 13 7 20 19 20 10 0 21 9 24 20 4 15 14 20 37 20
23 0 33 5 37 20 3 11 14 20 25 20 11 0 22 9 25 20 3 11 12 20 20 20 8 0 17 9
20 20 4 14 17 22 44 26 29 5 39 11 39 25 0 15 8 19 39 19 30 0 40 4 44 20 4
15 14 20 42 20 28 0 38 5 42 20 5 20 14 20 2729 20 l2724 0 0 -1125 c0 -946
-2 -1125 -14 -1125 -21 0 -26 -55 -26 -286 0 -203 -1 -212 -20 -217 -19 -5
-20 -14 -20 -145 0 -131 -1 -140 -20 -145 -18 -5 -20 -14 -20 -86 0 -74 -2
-81 -20 -81 -18 0 -20 -7 -20 -60 0 -53 -2 -60 -20 -60 -13 0 -20 -7 -20 -19
0 -11 -9 -23 -20 -26 -13 -4 -20 -15 -20 -31 0 -14 -11 -35 -25 -48 -16 -15
-25 -34 -25 -53 0 -22 -6 -32 -20 -36 -15 -4 -20 -14 -20 -40 0 -26 -5 -36
-20 -40 -15 -4 -20 -14 -20 -42 0 -28 -5 -38 -20 -42 -18 -5 -20 -14 -20 -83
0 -69 -2 -78 -20 -83 -18 -5 -20 -14 -20 -82 0 -68 2 -77 20 -82 16 -4 20 -14
20 -43 0 -29 4 -39 20 -43 26 -7 26 -43 0 -50 -11 -3 -20 -12 -20 -20 0 -8 -9
-17 -20 -20 -11 -3 -20 -12 -20 -21 0 -9 -8 -16 -20 -16 -13 0 -20 -7 -20 -20
0 -13 -7 -20 -19 -20 -11 0 -22 -9 -26 -19 -3 -10 -15 -21 -25 -24 -11 -3 -20
-12 -20 -20 0 -8 -9 -17 -20 -20 -11 -3 -20 -12 -20 -21 0 -9 -7 -16 -15 -16
-9 0 -20 -11 -25 -25 -5 -14 -16 -25 -25 -25 -8 0 -15 -9 -15 -20 0 -13 -7
-20 -20 -20 -13 0 -20 -7 -20 -20 0 -13 -7 -20 -19 -20 -11 0 -22 -9 -26 -19
-3 -10 -15 -21 -25 -24 -11 -3 -20 -12 -20 -20 0 -8 -9 -17 -20 -20 -11 -3
-20 -12 -20 -21 0 -9 -7 -16 -15 -16 -9 0 -20 -11 -25 -25 -5 -14 -16 -25 -25
-25 -8 0 -15 -9 -15 -20 0 -13 -7 -20 -20 -20 -13 0 -20 -7 -20 -20 0 -13 -7
-20 -19 -20 -11 0 -22 -9 -26 -19 -3 -10 -15 -21 -25 -24 -11 -3 -20 -12 -20
-20 0 -8 -9 -17 -20 -20 -11 -3 -20 -12 -20 -21 0 -9 -7 -16 -15 -16 -9 0 -20
-11 -25 -25 -5 -14 -16 -25 -25 -25 -8 0 -15 -9 -15 -20 0 -13 -7 -20 -20 -20
-13 0 -20 -7 -20 -20 0 -13 -7 -20 -19 -20 -11 0 -22 -9 -26 -19 -3 -10 -15
-21 -25 -24 -11 -3 -20 -12 -20 -20 0 -8 -9 -17 -20 -20 -12 -3 -20 -14 -20
-26 0 -14 -6 -21 -20 -21 -12 0 -20 -7 -20 -16 0 -9 -9 -18 -20 -21 -11 -3
-20 -14 -20 -24 0 -12 -7 -19 -20 -19 -13 0 -20 -7 -20 -20 0 -13 -7 -20 -19
-20 -11 0 -22 -9 -26 -19 -3 -10 -15 -21 -25 -24 -11 -3 -20 -12 -20 -20 0 -8
-9 -17 -20 -20 -11 -3 -20 -12 -20 -21 0 -9 -7 -16 -15 -16 -9 0 -20 -11 -25
-25 -5 -14 -16 -25 -25 -25 -8 0 -15 -8 -15 -19 0 -10 -9 -21 -20 -24 -11 -3
-20 -12 -20 -20 0 -8 -9 -17 -20 -20 -11 -3 -20 -12 -20 -21 0 -9 -5 -16 -10
-16 -14 0 -80 -64 -80 -77 0 -6 -9 -13 -20 -16 -11 -3 -20 -12 -20 -20 0 -8
-9 -17 -20 -20 -11 -3 -20 -12 -20 -20 0 -8 -9 -17 -20 -20 -11 -3 -20 -12
-20 -20 0 -8 -9 -17 -20 -20 -11 -3 -20 -12 -20 -21 0 -9 -5 -16 -10 -16 -14
0 -80 -64 -80 -77 0 -6 -9 -13 -20 -16 -11 -3 -20 -12 -20 -20 0 -8 -9 -17
-20 -20 -11 -3 -20 -12 -20 -20 0 -8 -9 -17 -20 -20 -11 -3 -20 -12 -20 -20 0
-8 -9 -17 -20 -20 -11 -3 -20 -12 -20 -21 0 -9 -5 -16 -10 -16 -14 0 -80 -64
-80 -77 0 -6 -9 -13 -20 -16 -11 -3 -20 -12 -20 -20 0 -8 -9 -17 -20 -20 -11
-3 -20 -12 -20 -20 0 -8 -9 -17 -20 -20 -11 -3 -20 -12 -20 -20 0 -8 -9 -17
-20 -20 -11 -3 -20 -12 -20 -21 0 -9 -5 -16 -10 -16 -14 0 -80 -64 -80 -77 0
-6 -9 -13 -20 -16 -11 -3 -20 -12 -20 -20 0 -8 -9 -17 -20 -20 -11 -3 -20 -12
-20 -20 0 -8 -9 -17 -20 -20 -11 -3 -20 -12 -20 -20 0 -8 -9 -17 -20 -20 -11
-3 -20 -12 -20 -21 0 -9 -5 -16 -10 -16 -13 0 -80 -66 -80 -79 0 -5 -9 -11
-20 -14 -11 -3 -20 -12 -20 -20 0 -8 -9 -17 -20 -20 -11 -3 -20 -12 -20 -20 0
-8 -9 -17 -20 -20 -11 -3 -20 -12 -20 -20 0 -8 -9 -17 -20 -20 -11 -3 -20 -12
-20 -21 0 -9 -5 -16 -10 -16 -13 0 -80 -66 -80 -79 0 -5 -9 -11 -20 -14 -11
-3 -20 -12 -20 -20 0 -8 -9 -17 -20 -20 -11 -3 -20 -12 -20 -20 0 -8 -9 -17
-20 -20 -12 -3 -20 -14 -20 -26 0 -14 -6 -21 -20 -21 -14 0 -21 -9 -25 -34 -5
-22 -14 -36 -26 -39 -10 -3 -19 -12 -19 -20 0 -8 -9 -17 -20 -20 -11 -3 -20
-12 -20 -20 0 -8 -9 -17 -20 -20 -12 -3 -20 -14 -20 -26 0 -14 -6 -21 -20 -21
-13 0 -20 -7 -20 -20 0 -14 -7 -20 -21 -20 -12 0 -23 -8 -26 -19 -3 -11 -13
-21 -24 -24 -10 -3 -19 -12 -19 -20 0 -8 -9 -17 -20 -20 -20 -5 -20 -14 -20
-355 0 -341 0 -350 -20 -355 -20 -5 -20 -14 -20 -1440 0 -1426 0 -1435 -20
-1440 -20 -5 -20 -14 -20 -955 0 -941 0 -950 -20 -955 -20 -5 -20 -14 -20
-625 0 -597 -1 -621 -19 -627 -28 -9 -31 -57 -31 -486 0 -323 -2 -389 -14
-389 -21 0 -26 -56 -26 -306 0 -223 -1 -232 -20 -237 -19 -5 -20 -14 -20 -150
0 -153 4 -177 26 -177 9 0 14 -11 14 -29 0 -18 10 -41 25 -57 14 -15 25 -31
25 -35 0 -5 9 -9 20 -9 13 0 20 -7 20 -20 0 -13 7 -20 20 -20 13 0 20 -7 20
-19 0 -11 9 -22 19 -26 10 -3 21 -15 24 -25 3 -11 12 -20 20 -20 8 0 17 -9 20
-20 3 -12 14 -20 26 -20 12 0 21 -6 21 -14 0 -16 21 -26 56 -26 17 0 24 -6 24
-20 0 -17 7 -20 40 -20 33 0 40 -3 40 -20 0 -17 7 -20 39 -20 30 0 40 -4 44
-19 3 -13 17 -21 46 -26 23 -4 41 -12 41 -20 0 -15 31 -25 81 -25 28 0 38 -5
42 -20 4 -16 14 -20 46 -20 30 0 41 -4 41 -15 0 -12 13 -15 58 -15 50 0 59 -3
67 -22 8 -19 19 -23 66 -26 47 -2 58 -6 62 -22 5 -18 14 -20 80 -20 64 0 75
-3 79 -18 6 -23 66 -32 206 -32 72 0 92 -3 92 -14 0 -18 32 -26 113 -26 55 0
70 4 84 20 15 17 30 20 109 20 131 0 186 9 192 32 4 15 14 18 63 18 52 0 59 2
59 20 0 17 7 20 40 20 34 0 41 4 46 25 5 21 12 25 45 25 28 0 39 4 39 15 0 11
11 15 36 15 27 0 37 5 41 19 3 13 17 22 44 26 24 4 39 12 39 21 0 8 11 19 25
24 14 5 25 16 25 25 0 8 9 15 20 15 13 0 20 7 20 20 0 13 7 20 20 20 13 0 20
7 20 20 0 13 7 20 20 20 13 0 20 7 20 20 0 13 7 20 19 20 11 0 23 9 26 20 3
11 13 20 21 20 8 0 19 11 24 25 5 14 16 25 25 25 8 0 15 9 15 20 0 13 7 20 20
20 13 0 20 7 20 20 0 12 7 20 16 20 9 0 18 9 21 20 3 10 14 22 24 25 14 5 19
16 19 40 0 24 5 35 19 40 13 4 22 19 26 44 4 27 13 41 26 44 19 5 19 22 19
730 0 716 0 725 20 730 20 5 20 14 20 1205 0 1192 0 1201 20 1207 20 6 20 15
20 796 0 782 0 789 20 789 20 0 20 7 20 354 0 345 0 354 20 359 18 5 20 14 20
80 0 65 2 75 19 80 16 4 21 17 27 66 4 39 11 61 19 61 15 0 25 22 25 56 0 14
6 24 14 24 17 0 26 21 26 60 0 19 6 29 20 33 17 4 20 14 20 61 0 49 2 56 20
56 17 0 20 7 20 40 0 33 3 40 20 40 17 0 20 7 20 40 0 28 4 40 15 40 18 0 35
31 35 64 0 17 6 26 15 26 9 0 19 8 22 17 4 9 15 25 25 35 10 10 18 29 18 42 0
16 7 27 20 31 16 5 20 15 20 46 0 32 3 39 20 39 13 0 20 7 20 19 0 10 9 21 20
24 15 4 20 14 20 41 0 29 4 36 19 36 14 0 20 10 25 39 4 27 12 42 26 46 11 3
20 15 20 26 0 11 7 19 16 19 9 0 18 9 21 20 3 11 11 20 18 20 15 0 25 22 25
56 0 17 6 24 20 24 13 0 20 7 20 19 0 10 9 21 20 24 12 3 20 14 20 26 0 14 6
21 19 21 14 0 20 10 25 39 4 27 12 40 26 44 12 3 20 14 20 26 0 14 6 21 20 21
11 0 20 6 20 14 0 7 9 16 20 19 11 3 20 12 20 20 0 8 9 17 20 20 11 3 20 14
20 25 0 11 9 22 20 25 11 3 20 12 20 20 0 8 9 17 20 20 11 3 20 12 20 20 0 8
9 17 19 20 13 3 22 17 26 40 5 23 14 37 26 40 10 3 19 12 19 20 0 9 14 17 36
22 23 4 38 13 41 25 3 10 13 20 24 23 10 3 19 12 19 20 0 8 9 17 20 20 11 3
20 12 20 20 0 8 9 17 20 20 11 3 20 12 20 21 0 9 7 16 15 16 9 0 18 7 22 16 3
8 16 20 29 25 14 5 24 17 24 28 0 10 9 21 20 24 11 3 20 12 20 20 0 8 9 17 20
20 11 3 20 12 20 20 0 8 9 17 20 20 11 3 20 12 20 20 0 8 9 17 19 20 13 3 22
17 26 40 5 23 14 37 26 40 10 3 19 12 19 20 0 8 9 17 20 20 11 3 20 12 20 20
0 9 9 19 20 22 11 3 20 15 20 26 0 12 7 19 20 19 13 0 20 7 20 20 0 13 7 20
20 20 13 0 20 7 20 19 0 10 8 21 19 24 11 3 21 17 25 40 4 23 13 37 26 40 11
3 20 12 20 20 0 9 9 19 20 22 11 3 20 15 20 26 0 12 7 19 20 19 13 0 20 7 20
19 0 10 9 21 20 24 15 4 20 14 20 41 0 29 4 36 20 36 11 0 20 7 20 15 0 8 9
19 19 25 11 5 23 19 26 30 3 11 13 20 21 20 8 0 16 15 20 40 5 30 11 40 25 40
12 0 19 7 19 19 0 10 9 21 20 24 15 4 20 14 20 41 0 29 4 36 20 36 14 0 20 7
20 21 0 12 8 23 19 26 13 3 22 17 26 43 4 26 13 40 26 43 10 3 19 12 19 20 0
8 9 17 20 20 15 4 20 14 20 40 0 26 5 36 20 40 14 3 20 14 20 31 0 19 5 26 20
26 16 0 20 7 20 35 0 28 4 35 20 35 13 0 20 7 20 19 0 10 8 21 19 24 11 3 21
17 25 40 4 23 13 37 26 40 12 3 20 14 20 25 0 11 9 22 20 25 15 4 20 14 20 41
0 29 4 36 20 36 12 0 20 7 20 18 0 9 9 23 20 30 13 8 20 23 20 41 0 21 6 32
20 36 16 5 20 15 20 46 0 32 4 39 19 39 15 0 21 10 26 39 4 27 13 41 26 44 14
4 19 14 19 40 0 26 5 36 20 40 12 3 20 14 20 26 0 12 6 21 14 21 16 0 26 21
26 55 0 14 7 25 20 28 15 4 20 14 20 40 0 27 5 37 20 42 16 5 20 15 20 46 0
32 4 39 19 39 16 0 20 10 26 59 5 46 11 60 26 64 14 4 19 14 19 40 0 26 5 36
20 40 16 4 20 14 20 46 0 28 4 41 14 41 18 0 26 22 26 75 0 34 4 44 20 48 17
4 20 14 20 66 0 54 2 61 20 61 18 0 20 7 20 59 0 49 3 59 18 64 19 4 32 44 32
98 0 18 5 29 14 29 15 0 26 50 26 123 0 33 4 47 14 47 20 0 26 32 26 141 0 88
2 97 20 102 20 5 20 14 20 650 0 636 0 645 20 650 19 5 20 14 20 146 0 134 1
141 20 141 19 0 20 7 20 101 0 90 2 101 19 106 22 5 31 46 31 138 0 49 4 62
20 73 17 10 20 23 20 86 0 65 2 74 20 79 18 5 20 14 20 86 0 74 2 81 20 81 18
0 20 7 20 58 0 46 4 60 20 70 18 11 20 23 20 126 0 105 1 114 20 119 19 5 20
14 20 167 0 150 1 162 19 167 12 3 21 17 25 41 10 64 7 2868 -4 2896 -5 14
-16 26 -25 26 -13 0 -15 74 -15 645 0 638 0 645 -20 645 -20 0 -20 7 -20 1454
0 1445 0 1454 20 1459 19 5 20 14 20 211 0 199 -1 206 -20 206 -19 0 -20 7
-20 101 0 92 -2 101 -20 106 -17 5 -20 14 -20 60 0 46 -3 56 -20 60 -16 4 -20
14 -20 45 0 31 -4 41 -20 45 -13 3 -20 14 -20 28 0 34 -10 55 -26 55 -8 0 -16
16 -20 40 -5 30 -11 40 -25 40 -13 0 -19 7 -19 21 0 12 -8 23 -20 26 -11 3
-20 14 -20 24 0 12 -7 19 -20 19 -14 0 -20 7 -20 24 0 35 -10 56 -26 56 -8 0
-14 7 -14 16 0 9 -9 18 -20 21 -11 3 -20 11 -20 19 0 7 -11 21 -25 30 -14 9
-25 23 -25 30 0 8 -9 14 -20 14 -13 0 -20 7 -20 20 0 13 -7 20 -20 20 -16 0
-20 7 -20 36 0 27 -5 37 -20 41 -10 3 -22 14 -25 24 -4 10 -13 19 -21 19 -8 0
-14 7 -14 16 0 9 -8 18 -19 21 -10 2 -24 16 -30 29 -6 13 -17 24 -26 24 -8 0
-15 9 -15 20 0 13 -7 20 -20 20 -13 0 -20 7 -20 20 0 13 -7 20 -20 20 -13 0
-20 7 -20 20 0 13 -7 20 -20 20 -11 0 -20 7 -20 15 0 8 -9 15 -20 15 -15 0
-20 7 -20 26 0 17 -6 28 -19 31 -11 3 -21 13 -24 24 -3 10 -12 19 -20 19 -9 0
-19 9 -22 20 -3 11 -15 20 -26 20 -12 0 -19 7 -19 20 0 13 -7 20 -20 20 -13 0
-20 7 -20 20 0 13 -7 20 -20 20 -13 0 -20 7 -20 19 0 11 -9 22 -19 26 -10 3
-21 15 -24 25 -3 11 -12 20 -21 20 -9 0 -16 7 -16 15 0 9 -11 20 -25 25 -14 5
-25 16 -25 25 0 8 -9 15 -20 15 -13 0 -20 7 -20 20 0 13 -7 20 -20 20 -13 0
-20 7 -20 20 0 13 -7 20 -20 20 -13 0 -20 7 -20 20 0 12 -7 20 -16 20 -9 0
-18 9 -21 20 -3 10 -14 22 -24 25 -11 4 -24 15 -29 26 -6 10 -17 19 -25 19 -8
0 -15 9 -15 20 0 13 -7 20 -20 20 -13 0 -20 7 -20 20 0 13 -7 20 -20 20 -13 0
-20 7 -20 20 0 13 -7 20 -20 20 -13 0 -20 7 -20 20 0 13 -7 20 -20 20 -13 0
-20 7 -20 19 0 11 -9 22 -19 26 -11 3 -23 15 -26 26 -4 10 -13 19 -22 19 -8 0
-17 9 -20 20 -3 11 -14 20 -24 20 -12 0 -19 7 -19 20 0 13 -7 20 -20 20 -13 0
-20 7 -20 20 0 13 -7 20 -20 20 -16 0 -20 7 -20 35 0 29 -5 37 -25 45 -14 5
-25 16 -25 25 0 8 -7 15 -15 15 -8 0 -17 11 -21 25 -3 14 -13 25 -21 25 -8 0
-17 9 -20 20 -3 11 -14 20 -24 20 -12 0 -19 7 -19 20 0 13 -7 20 -20 20 -16 0
-20 7 -20 36 0 27 -5 37 -20 41 -11 3 -20 14 -20 25 0 11 -8 22 -19 25 -11 3
-21 13 -24 24 -3 10 -12 19 -20 19 -8 0 -17 9 -20 20 -3 11 -12 20 -21 20 -9
0 -18 13 -22 36 -4 24 -13 38 -25 41 -11 3 -19 14 -19 23 0 10 -9 21 -19 25
-10 3 -21 15 -24 25 -3 11 -12 20 -21 20 -9 0 -16 8 -16 20 0 13 -7 20 -19 20
-14 0 -20 10 -25 40 -5 31 -11 40 -26 40 -13 0 -20 7 -20 20 0 13 -7 20 -20
20 -13 0 -20 7 -20 20 0 13 -7 20 -20 20 -13 0 -20 7 -20 20 0 11 -7 20 -15
20 -8 0 -19 9 -25 20 -8 14 -21 20 -45 20 -31 0 -35 3 -35 25 0 18 -5 25 -20
25 -11 0 -20 7 -20 15 0 9 -11 20 -25 25 -14 5 -25 16 -25 25 0 8 -7 15 -16
15 -9 0 -18 9 -21 20 -3 11 -9 20 -13 20 -4 0 -19 11 -34 25 -15 14 -38 25
-50 25 -15 0 -26 7 -29 20 -3 11 -12 20 -20 20 -9 0 -19 9 -22 20 -3 11 -15
20 -25 20 -9 0 -20 9 -23 20 -4 15 -14 20 -41 20 -29 0 -36 4 -36 20 0 11 -7
20 -15 20 -8 0 -19 8 -24 19 -6 10 -26 22 -45 25 -22 4 -37 14 -41 26 -5 15
-15 20 -46 20 -32 0 -39 3 -39 20 0 13 -7 20 -19 20 -10 0 -21 9 -24 20 -4 15
-14 20 -40 20 -26 0 -36 5 -40 20 -4 16 -14 20 -46 20 -34 0 -41 3 -41 19 0
15 -10 21 -40 26 -23 4 -40 12 -40 20 0 15 -22 25 -53 25 -12 0 -28 9 -35 20
-8 14 -23 20 -47 20 -23 0 -35 5 -35 14 0 18 -22 26 -75 26 -34 0 -44 4 -48
20 -4 15 -14 20 -42 20 -28 0 -38 5 -42 20 -5 17 -14 20 -64 20 -52 0 -59 2
-59 20 0 14 -9 21 -37 26 -21 4 -43 14 -49 22 -7 9 -33 17 -67 20 -43 3 -56 8
-60 23 -4 14 -14 19 -39 19 -22 0 -37 6 -46 20 -10 16 -23 20 -67 20 -48 0
-55 2 -55 20 0 18 -7 20 -59 20 -50 0 -59 3 -64 20 -4 17 -14 20 -65 20 -50 0
-60 3 -64 18 -5 18 -59 32 -124 32 -13 0 -33 9 -44 20 -16 16 -33 20 -89 20
-60 0 -69 2 -74 20 -5 18 -14 20 -106 20 -94 0 -101 1 -101 20 0 19 -7 20
-145 20 -138 0 -145 1 -145 20 0 19 -7 20 -105 20 -98 0 -105 1 -105 20 0 19
-7 20 -105 20 -96 0 -105 2 -105 19 0 21 -34 31 -106 31 -31 0 -50 6 -64 20
-15 15 -33 20 -69 20 -40 0 -50 3 -54 20 -4 15 -14 20 -40 20 -26 0 -36 5 -40
20 -4 16 -14 20 -45 20 -31 0 -41 4 -45 20 -4 15 -14 20 -41 20 -29 0 -36 4
-36 20 0 17 -7 20 -40 20 -33 0 -40 3 -40 20 0 14 -7 20 -21 20 -12 0 -23 8
-26 19 -3 12 -17 21 -38 25 -21 4 -36 14 -40 26 -4 11 -15 20 -26 20 -12 0
-19 7 -19 20 0 13 -7 20 -20 20 -13 0 -20 7 -20 20 0 13 -7 20 -20 20 -13 0
-20 7 -20 20 0 13 -7 20 -19 20 -14 0 -20 10 -25 40 -4 24 -12 40 -20 40 -8 0
-17 11 -20 25 -4 14 -13 25 -22 25 -9 0 -18 9 -21 20 -3 11 -14 20 -24 20 -12
0 -19 7 -19 20 0 13 -7 20 -20 20 -13 0 -20 7 -20 20 0 13 -7 20 -20 20 -13 0
-20 7 -20 20 0 12 -7 20 -16 20 -9 0 -18 9 -21 20 -3 10 -13 22 -24 25 -10 3
-21 15 -24 26 -4 10 -15 19 -25 19 -9 0 -20 9 -23 20 -3 11 -12 20 -20 20 -8
0 -17 9 -20 20 -4 15 -14 20 -41 20 -29 0 -36 4 -36 20 0 14 -7 20 -21 20 -12
0 -23 8 -26 19 -3 13 -17 21 -43 25 -26 4 -39 12 -43 26 -4 15 -13 20 -41 20
-29 0 -36 4 -36 20 0 12 -7 20 -18 20 -9 0 -23 9 -30 20 -8 14 -23 20 -46 20
-25 0 -35 5 -39 20 -4 17 -14 20 -61 20 -49 0 -56 2 -56 20 0 17 -7 20 -39 20
-30 0 -40 4 -44 19 -4 16 -17 21 -66 27 -34 3 -61 11 -61 15 0 5 -692 9 -1585
9 -1050 0 -1585 -3 -1585 -10z m991 -2631 c11 -5 75 -15 142 -20 67 -6 136
-17 154 -24 17 -7 58 -17 90 -20 32 -4 75 -16 95 -26 21 -11 44 -19 53 -19 9
0 35 -10 58 -21 93 -48 113 -57 144 -63 17 -4 37 -14 44 -22 6 -8 22 -14 34
-14 12 0 33 -8 46 -19 13 -10 38 -22 56 -25 17 -4 37 -13 43 -21 6 -8 26 -17
43 -20 18 -4 39 -13 47 -20 8 -7 34 -18 56 -24 23 -6 47 -18 54 -26 7 -8 23
-15 35 -15 12 0 34 -9 48 -20 14 -11 34 -20 45 -20 10 0 30 -8 43 -18 13 -11
38 -22 54 -26 17 -4 37 -13 45 -20 8 -8 29 -17 45 -20 17 -4 37 -13 45 -20 8
-8 29 -17 45 -20 17 -4 37 -13 45 -21 8 -7 32 -18 52 -24 20 -7 42 -19 48 -27
7 -7 22 -14 33 -14 20 0 297 -271 297 -290 0 -6 8 -18 18 -28 15 -15 56 -73
114 -161 10 -14 27 -45 37 -67 11 -23 24 -45 29 -48 6 -3 13 -19 17 -35 3 -16
12 -35 20 -41 8 -6 17 -25 21 -43 3 -17 13 -37 21 -45 11 -11 13 -31 9 -81
-14 -178 -28 -552 -37 -981 -5 -261 -14 -560 -19 -665 -6 -104 -15 -464 -20
-800 -5 -335 -14 -711 -19 -835 -16 -378 -32 -1845 -26 -2382 6 -497 5 -508
-15 -547 -11 -22 -20 -46 -20 -54 0 -8 -9 -22 -20 -32 -11 -10 -20 -22 -20
-28 0 -14 -40 -60 -169 -192 -64 -66 -131 -142 -149 -170 -54 -84 -63 -97
-122 -169 -27 -34 -116 -121 -143 -141 -15 -11 -35 -27 -45 -36 -16 -14 -56
-42 -91 -64 -9 -5 -41 -26 -71 -45 -87 -56 -94 -60 -120 -71 -14 -6 -42 -19
-62 -30 -20 -10 -43 -19 -50 -19 -7 0 -29 -8 -48 -19 -19 -10 -51 -22 -70 -26
-19 -4 -44 -13 -55 -21 -11 -7 -42 -16 -70 -20 -27 -4 -63 -13 -80 -20 -17 -7
-64 -15 -105 -19 -41 -4 -102 -16 -135 -27 -54 -18 -82 -19 -290 -16 -199 3
-235 5 -258 21 -14 9 -40 17 -57 17 -28 0 -118 34 -160 61 -8 5 -25 13 -37 19
-52 22 -164 110 -240 186 -75 77 -143 164 -143 183 0 4 -9 16 -19 25 -11 10
-23 31 -26 47 -4 16 -10 29 -15 29 -4 0 -13 15 -20 33 -7 17 -21 50 -31 73
-11 22 -19 53 -19 68 0 14 -8 39 -17 53 -16 24 -18 56 -18 278 0 204 3 260 17
305 9 30 21 116 27 190 6 74 16 180 22 235 13 121 4 1094 -11 1158 -5 23 -14
286 -19 584 -7 345 -14 548 -21 560 -6 10 -14 129 -20 268 -5 138 -16 309 -24
380 -8 72 -15 165 -15 207 -1 42 -8 103 -17 135 -9 32 -20 112 -25 178 -4 66
-15 142 -24 169 -8 27 -15 77 -16 110 0 34 -7 99 -15 146 -16 89 -18 106 -35
284 -5 60 -14 117 -19 126 -5 9 -13 82 -18 162 -6 80 -15 155 -21 166 -6 10
-13 75 -16 143 -4 68 -13 151 -20 184 -8 33 -19 125 -24 205 -5 80 -15 159
-21 175 -6 16 -15 88 -20 160 -5 72 -14 144 -21 160 -7 17 -15 60 -19 96 -6
58 -31 131 -61 179 -5 8 -15 26 -21 40 -7 14 -20 36 -30 49 -10 13 -18 32 -18
42 0 10 -6 22 -14 26 -8 4 -21 24 -30 43 -16 36 -27 54 -58 102 -10 15 -18 33
-18 40 0 7 -9 30 -20 51 -12 22 -26 77 -32 123 -17 136 6 230 76 299 9 9 16
20 16 25 0 30 277 209 324 210 6 0 34 12 61 25 28 14 63 25 79 25 16 0 37 6
45 14 10 9 57 19 119 25 57 6 111 15 120 21 24 13 617 13 643 -1z m-3933 -228
c166 -5 319 -15 340 -21 20 -5 100 -15 177 -21 77 -5 153 -16 170 -24 16 -8
53 -17 80 -21 28 -4 66 -15 85 -25 19 -11 40 -19 47 -19 15 0 102 -46 123 -65
9 -8 22 -15 28 -15 17 0 161 -117 232 -189 102 -104 280 -336 280 -365 0 -4 9
-19 20 -33 11 -14 20 -33 20 -43 0 -10 9 -29 20 -43 11 -14 20 -33 20 -42 0
-10 8 -32 19 -49 10 -17 22 -49 26 -70 3 -21 13 -48 20 -60 8 -12 17 -50 21
-86 4 -36 13 -77 20 -92 19 -38 20 -375 1 -421 -8 -18 -17 -56 -21 -85 -4 -30
-16 -70 -26 -90 -11 -20 -20 -44 -20 -54 0 -9 -5 -20 -11 -24 -6 -3 -19 -25
-30 -48 -29 -60 -38 -75 -97 -148 -59 -75 -168 -179 -233 -223 -24 -17 -51
-38 -61 -47 -10 -10 -24 -18 -31 -18 -8 0 -22 -9 -32 -20 -10 -11 -24 -20 -30
-20 -7 0 -24 -9 -38 -20 -14 -11 -32 -20 -40 -20 -8 0 -25 -9 -39 -19 -13 -11
-36 -23 -51 -26 -14 -4 -31 -13 -38 -21 -6 -8 -19 -14 -28 -14 -9 0 -38 -12
-66 -25 -27 -14 -56 -25 -63 -25 -8 0 -25 -9 -39 -20 -14 -11 -37 -20 -52 -20
-14 0 -39 -9 -56 -20 -16 -11 -38 -20 -48 -20 -10 0 -35 -9 -57 -20 -22 -11
-47 -20 -57 -20 -10 0 -34 -8 -53 -19 -19 -10 -53 -21 -74 -25 -21 -4 -48 -14
-60 -21 -12 -7 -43 -17 -71 -21 -27 -4 -59 -13 -70 -20 -11 -7 -49 -16 -85
-20 -36 -4 -77 -13 -91 -20 -14 -7 -72 -18 -128 -23 -56 -6 -111 -16 -123 -22
-11 -6 -63 -13 -116 -15 -54 -3 -162 -14 -242 -26 -125 -17 -175 -19 -375 -14
-126 3 -259 10 -295 16 -36 5 -101 14 -145 18 -50 4 -89 14 -105 25 -13 9 -32
17 -41 17 -35 0 -248 227 -249 264 0 5 -7 18 -17 28 -9 10 -22 28 -29 41 -13
22 -18 32 -56 117 -11 25 -29 62 -39 82 -11 20 -19 43 -19 50 0 8 -9 31 -19
51 -11 21 -22 57 -26 80 -4 23 -14 53 -22 65 -8 13 -17 49 -20 80 -2 32 -12
75 -21 97 -15 34 -17 82 -17 360 0 286 2 323 18 352 9 18 17 49 17 70 1 21 8
56 16 78 9 22 20 58 25 80 6 22 16 49 24 61 7 12 17 37 20 57 4 20 13 41 20
47 8 6 17 26 21 43 3 18 15 43 25 56 11 13 19 30 19 37 0 8 9 22 20 31 11 10
20 25 20 33 0 14 19 45 65 105 82 107 123 153 205 234 120 117 120 117 153
132 15 7 27 16 27 21 0 5 14 14 30 19 17 6 30 15 30 19 0 5 17 14 38 20 20 7
44 18 52 25 8 8 33 17 55 20 22 4 47 13 55 21 9 7 40 17 70 23 30 5 80 17 110
25 30 9 93 16 140 17 47 1 96 5 110 9 29 10 306 6 738 -9z m9068 -522 c11 -9
30 -20 42 -24 13 -4 44 -21 69 -38 25 -18 52 -36 62 -42 9 -5 23 -16 31 -22 8
-7 44 -36 80 -65 36 -29 72 -59 80 -66 24 -21 68 -56 92 -74 100 -77 118 -92
118 -99 0 -5 7 -9 15 -9 8 0 19 -9 25 -20 6 -11 16 -20 22 -20 6 0 20 -9 32
-20 12 -12 54 -49 95 -83 41 -34 94 -81 118 -104 24 -24 47 -43 50 -43 3 0 22
-17 42 -38 20 -22 43 -43 52 -48 9 -5 67 -57 129 -116 108 -104 153 -157 171
-205 5 -13 13 -23 18 -23 5 0 14 -15 22 -32 7 -18 21 -44 31 -57 10 -13 18
-30 18 -38 0 -8 9 -26 20 -40 11 -14 20 -35 20 -45 0 -11 9 -31 20 -45 11 -14
20 -34 20 -44 0 -10 9 -33 20 -51 11 -18 20 -43 20 -56 0 -13 8 -40 19 -60 22
-44 48 -119 63 -182 6 -25 16 -54 24 -65 7 -11 16 -38 20 -60 4 -22 13 -49 20
-60 7 -11 16 -37 19 -58 4 -20 16 -54 26 -74 11 -21 19 -48 19 -60 0 -13 9
-40 20 -60 11 -21 20 -51 20 -68 0 -17 7 -41 16 -53 8 -12 20 -49 25 -83 5
-33 16 -71 23 -82 8 -12 16 -43 20 -70 3 -26 12 -60 20 -76 8 -15 18 -52 22
-82 4 -30 13 -63 20 -74 7 -11 16 -47 20 -80 4 -33 13 -69 20 -80 7 -11 17
-54 22 -95 6 -41 17 -93 26 -115 8 -22 15 -58 16 -80 0 -23 9 -66 20 -98 11
-31 20 -79 20 -107 0 -27 9 -82 19 -122 11 -40 22 -114 25 -164 3 -51 11 -105
17 -120 6 -16 17 -114 25 -217 8 -103 18 -196 24 -207 12 -22 30 -503 30 -815
0 -288 -18 -712 -31 -736 -5 -10 -14 -69 -20 -131 -6 -62 -19 -139 -30 -171
-10 -31 -19 -73 -19 -92 0 -19 -9 -52 -20 -72 -11 -21 -20 -46 -20 -56 0 -10
-9 -30 -20 -44 -11 -14 -20 -31 -20 -38 0 -6 -9 -20 -20 -30 -11 -10 -20 -23
-20 -30 0 -6 -42 -55 -94 -108 -91 -95 -155 -147 -179 -147 -7 0 -17 -8 -24
-17 -6 -10 -37 -31 -69 -47 -33 -15 -76 -37 -96 -47 -20 -11 -47 -19 -60 -19
-13 0 -36 -9 -53 -20 -16 -11 -40 -20 -52 -20 -12 0 -39 -9 -60 -19 -21 -11
-65 -22 -98 -26 -33 -3 -73 -12 -90 -19 -19 -8 -123 -17 -285 -25 -141 -6
-271 -16 -290 -21 -19 -6 -75 -10 -125 -10 -120 0 -322 -18 -344 -29 -10 -6
-76 -13 -147 -16 -71 -4 -154 -14 -184 -23 -82 -24 -609 -25 -636 -1 -11 9
-31 19 -45 23 -27 6 -118 89 -154 141 -29 41 -116 149 -125 155 -4 3 -15 19
-24 37 -15 30 -16 165 -12 1680 5 1848 20 3400 36 3603 6 74 14 209 19 300 5
113 13 174 23 195 8 17 18 54 21 83 3 29 13 62 22 74 8 13 15 29 15 37 0 14
42 113 60 141 6 8 16 26 22 40 7 14 25 43 41 65 15 22 35 51 45 65 9 14 22 29
29 33 7 4 13 13 13 20 0 12 170 187 182 187 4 0 18 10 30 23 23 21 71 61 133
109 51 40 171 118 181 118 5 0 28 9 49 20 36 19 55 21 176 18 109 -2 141 -6
155 -19z m-12326 -421 c13 -10 36 -18 50 -18 14 0 42 -9 63 -20 20 -11 43 -20
51 -20 8 0 21 -6 29 -14 8 -8 30 -21 51 -30 20 -8 36 -20 36 -25 0 -6 5 -11
11 -11 18 0 131 -98 166 -143 18 -23 39 -51 48 -62 45 -58 65 -90 65 -103 0
-8 9 -25 20 -39 11 -14 20 -33 20 -43 0 -9 9 -25 20 -35 11 -10 20 -30 20 -44
0 -15 8 -42 19 -61 10 -19 21 -57 25 -84 4 -27 14 -59 21 -70 24 -38 38 -247
31 -466 -8 -250 -22 -447 -36 -520 -6 -30 -15 -190 -19 -355 -7 -236 -12 -309
-24 -340 -9 -22 -16 -54 -17 -71 0 -18 -6 -34 -14 -37 -8 -3 -20 -24 -26 -45
-5 -22 -17 -45 -25 -52 -8 -7 -15 -18 -15 -24 0 -10 -26 -46 -64 -88 -9 -10
-16 -21 -16 -24 0 -12 -145 -154 -156 -154 -7 0 -14 -7 -18 -15 -3 -8 -16 -20
-28 -25 -13 -6 -50 -30 -83 -55 -66 -50 -129 -95 -154 -110 -18 -11 -29 -20
-75 -59 -15 -14 -37 -28 -47 -31 -11 -4 -19 -10 -19 -15 0 -5 -11 -15 -24 -22
-13 -7 -70 -44 -126 -83 -56 -38 -109 -73 -116 -77 -8 -5 -22 -13 -31 -18 -10
-6 -36 -19 -58 -30 -22 -11 -47 -24 -55 -28 -56 -32 -100 -50 -134 -56 -21 -4
-48 -13 -60 -21 -12 -7 -55 -16 -96 -20 -41 -3 -104 -13 -140 -21 -42 -10
-170 -18 -370 -24 -168 -6 -324 -15 -348 -22 -29 -7 -189 -11 -480 -12 -395
-1 -441 1 -480 17 -23 9 -53 17 -66 17 -13 0 -35 9 -49 20 -14 11 -31 20 -37
20 -25 0 -187 116 -250 180 -82 81 -152 175 -191 257 -11 23 -24 45 -29 48 -6
3 -10 14 -10 23 0 10 -8 33 -19 52 -10 19 -22 55 -25 80 -4 25 -14 63 -23 86
-11 31 -13 63 -8 130 20 279 2 815 -33 959 -14 60 -17 128 -17 460 0 311 3
395 14 414 7 13 17 71 22 128 4 58 13 111 20 119 6 8 16 35 20 61 5 25 15 54
23 62 7 9 19 33 26 54 6 20 16 37 21 37 5 0 9 6 9 14 0 17 98 116 115 116 7 0
15 6 18 14 3 8 21 17 39 21 18 4 44 16 57 26 13 11 39 19 58 19 19 0 47 7 63
15 16 9 79 19 142 24 62 5 126 15 143 21 16 6 97 15 180 20 82 5 166 14 185
20 19 7 96 16 170 20 74 5 158 14 185 20 28 5 136 17 240 25 105 8 208 19 229
24 22 5 107 13 190 16 83 4 176 14 206 21 30 8 107 17 170 21 63 3 133 12 155
20 22 8 76 16 120 19 44 3 98 12 120 19 67 23 75 24 240 22 134 -2 164 -5 185
-19z"/>
<path d="M2560 6421 c0 -10 -9 -21 -20 -24 -17 -4 -20 -14 -20 -66 0 -54 -2
-61 -20 -61 -17 0 -20 -7 -20 -39 0 -30 -4 -40 -19 -44 -16 -4 -21 -17 -27
-66 -4 -39 -11 -61 -19 -61 -14 0 -25 -22 -25 -51 0 -10 -9 -28 -20 -39 -14
-14 -20 -33 -20 -64 0 -36 -4 -46 -20 -51 -15 -5 -20 -15 -20 -45 0 -29 -4
-39 -20 -43 -17 -4 -20 -14 -20 -60 0 -46 -3 -55 -20 -60 -17 -4 -20 -14 -20
-66 0 -54 -2 -61 -20 -61 -15 0 -21 -9 -26 -40 -4 -22 -12 -40 -19 -40 -14 0
-25 -43 -25 -95 0 -24 -5 -34 -20 -38 -15 -4 -20 -14 -20 -39 0 -22 -6 -37
-20 -46 -16 -9 -20 -23 -20 -61 0 -41 -4 -51 -20 -56 -15 -5 -20 -15 -20 -45
0 -29 -4 -39 -20 -43 -17 -4 -20 -14 -20 -60 0 -46 -3 -55 -19 -60 -16 -4 -21
-17 -27 -65 -5 -47 -10 -61 -25 -65 -14 -4 -19 -14 -19 -41 0 -24 -5 -36 -14
-36 -18 0 -26 -22 -26 -77 0 -36 -4 -46 -20 -50 -16 -4 -20 -14 -20 -43 0 -29
-4 -39 -20 -43 -17 -4 -20 -14 -20 -60 0 -47 -3 -57 -20 -62 -15 -5 -20 -15
-20 -45 0 -28 -5 -39 -19 -43 -13 -3 -20 -18 -25 -56 -4 -31 -15 -60 -26 -71
-15 -15 -20 -34 -20 -70 0 -43 -3 -50 -20 -50 -17 0 -20 -7 -20 -39 0 -30 -4
-40 -20 -44 -17 -4 -20 -14 -20 -62 0 -48 -3 -58 -20 -62 -16 -4 -20 -14 -20
-43 0 -29 -4 -39 -20 -43 -17 -4 -20 -14 -20 -60 0 -45 -3 -56 -19 -60 -12 -3
-21 -18 -25 -43 -4 -21 -14 -43 -22 -49 -8 -5 -17 -33 -20 -62 -5 -39 -11 -53
-25 -56 -15 -4 -19 -14 -19 -46 0 -28 -4 -41 -14 -41 -18 0 -26 -22 -26 -75 0
-34 -4 -44 -20 -48 -17 -4 -20 -14 -20 -60 0 -47 -3 -57 -20 -62 -16 -5 -20
-15 -20 -46 0 -32 -4 -39 -19 -39 -15 0 -20 -10 -26 -57 -5 -39 -13 -62 -26
-71 -12 -9 -19 -25 -19 -48 0 -22 -5 -34 -14 -34 -16 0 -26 -30 -26 -81 0 -28
-5 -38 -20 -42 -16 -4 -20 -14 -20 -45 0 -31 -4 -41 -20 -45 -17 -4 -20 -14
-20 -66 0 -54 -2 -61 -20 -61 -18 0 -20 -7 -20 -55 0 -30 -4 -55 -9 -55 -19 0
-41 -32 -41 -61 0 -18 -5 -29 -14 -29 -16 0 -26 -30 -26 -82 0 -28 -5 -38 -20
-43 -15 -5 -20 -15 -20 -45 0 -29 -4 -39 -20 -43 -17 -4 -20 -14 -20 -60 0
-46 -3 -55 -20 -60 -16 -4 -20 -14 -20 -45 0 -31 -4 -41 -20 -45 -17 -4 -20
-14 -20 -61 0 -48 -3 -56 -19 -56 -15 0 -20 -10 -25 -45 -5 -27 -12 -45 -20
-45 -14 0 -26 -42 -26 -91 0 -18 -5 -29 -14 -29 -18 0 -26 -22 -26 -75 0 -35
-4 -45 -20 -50 -15 -5 -20 -15 -20 -45 0 -29 -4 -39 -20 -43 -17 -4 -20 -14
-20 -60 0 -46 -3 -55 -20 -60 -16 -4 -20 -14 -20 -45 0 -31 -4 -41 -19 -45
-15 -4 -21 -17 -26 -61 -5 -35 -12 -56 -20 -56 -13 0 -25 -30 -25 -67 0 -13
-6 -23 -14 -23 -16 0 -26 -30 -26 -81 0 -28 -5 -38 -20 -42 -17 -4 -20 -14
-20 -60 0 -46 -3 -55 -20 -60 -16 -4 -20 -14 -20 -46 0 -34 -3 -41 -20 -41
-18 0 -20 -7 -20 -60 0 -52 -2 -60 -19 -60 -19 0 -31 -25 -31 -67 0 -13 -6
-23 -14 -23 -16 0 -26 -30 -26 -82 0 -21 -4 -38 -10 -38 -5 0 -10 -25 -10 -55
l0 -55 975 0 975 0 0 28 c0 15 9 35 20 45 15 12 20 29 20 66 0 40 3 50 20 54
17 4 20 14 20 61 0 45 4 57 20 66 16 9 20 21 20 65 0 40 4 55 14 55 19 0 26
22 26 80 0 39 4 49 20 53 18 5 20 14 20 81 0 68 2 76 19 76 21 0 31 26 31 86
0 33 4 43 20 47 17 4 20 14 20 60 0 46 3 55 20 60 17 4 20 14 20 65 0 51 3 60
20 65 15 4 20 14 20 41 l0 36 1145 0 1145 0 0 -40 c0 -33 3 -40 20 -40 18 0
20 -7 20 -61 0 -52 3 -62 20 -66 17 -5 20 -14 20 -63 0 -48 3 -58 19 -63 16
-4 19 -16 23 -77 3 -53 8 -75 21 -85 10 -7 17 -26 17 -46 0 -48 10 -79 25 -79
8 0 15 -23 20 -65 6 -55 10 -65 26 -65 17 0 19 -7 19 -59 0 -51 3 -61 20 -66
17 -5 20 -15 20 -62 0 -46 3 -56 20 -60 17 -5 20 -14 20 -63 0 -50 3 -60 20
-65 14 -4 20 -15 20 -36 l0 -29 985 0 985 0 0 33 c0 51 -11 77 -31 77 -17 0
-19 8 -19 60 0 53 -2 60 -20 60 -17 0 -20 7 -20 41 0 32 -4 42 -20 46 -17 5
-20 14 -20 60 0 46 -3 56 -20 60 -17 4 -20 14 -20 54 0 37 -5 54 -20 66 -11
10 -20 27 -20 39 0 32 -10 54 -25 54 -8 0 -15 22 -19 59 -5 47 -11 60 -26 64
-16 4 -20 14 -20 46 0 34 -3 41 -20 41 -18 0 -20 7 -20 60 0 53 -2 60 -20 60
-18 0 -20 7 -20 55 0 44 -4 57 -20 67 -14 9 -20 24 -20 46 0 25 -5 35 -20 39
-14 4 -20 14 -20 33 0 49 -12 90 -26 90 -8 0 -14 10 -14 23 0 42 -12 67 -31
67 -16 0 -19 8 -19 59 0 50 -3 59 -20 64 -16 4 -20 14 -20 46 0 34 -3 41 -20
41 -18 0 -20 7 -20 60 0 53 -2 60 -20 60 -17 0 -20 7 -20 50 0 37 -5 55 -20
70 -11 11 -20 29 -20 39 0 30 -11 51 -26 51 -9 0 -14 11 -14 29 0 54 -13 94
-32 98 -13 4 -18 15 -18 44 0 32 -3 39 -20 39 -18 0 -20 7 -20 59 0 50 -3 59
-20 64 -17 4 -20 14 -20 56 0 40 -4 53 -20 63 -14 9 -20 24 -20 46 0 25 -5 35
-19 39 -14 4 -20 17 -24 61 -3 31 -12 61 -20 67 -8 5 -17 27 -21 48 -5 28 -12
37 -26 37 -18 0 -20 7 -20 61 0 52 -3 62 -20 66 -16 4 -20 14 -20 44 0 32 -3
39 -20 39 -18 0 -20 7 -20 59 0 51 -3 61 -20 66 -16 5 -20 15 -20 51 0 31 -6
50 -20 64 -11 11 -20 33 -20 51 0 22 -5 32 -20 36 -14 4 -20 14 -20 33 0 53
-13 93 -32 97 -13 4 -18 15 -18 44 0 32 -3 39 -20 39 -18 0 -20 7 -20 61 0 52
-3 62 -20 66 -16 4 -20 14 -20 48 0 53 -8 75 -26 75 -10 0 -14 12 -14 39 0 29
-5 40 -18 43 -14 4 -20 19 -25 59 -4 30 -13 59 -22 65 -8 6 -15 23 -15 37 0
25 -23 57 -41 57 -5 0 -9 25 -9 56 0 47 -3 57 -20 61 -16 4 -20 14 -20 44 0
32 -3 39 -20 39 -18 0 -20 7 -20 61 0 52 -3 62 -20 66 -15 4 -20 14 -20 42 0
51 -10 81 -26 81 -9 0 -14 12 -14 34 0 23 -7 40 -19 48 -12 9 -20 32 -25 71
-6 47 -11 57 -27 57 -15 0 -19 7 -19 39 0 30 -4 40 -20 44 -17 4 -20 14 -20
62 0 48 -3 58 -20 62 -17 5 -20 14 -20 60 0 46 -3 56 -20 60 -16 4 -20 14 -20
45 0 31 -4 41 -20 45 -14 4 -20 14 -20 33 0 49 -12 90 -26 90 -8 0 -14 11 -14
26 0 33 -17 64 -35 64 -11 0 -15 13 -15 56 0 47 -3 57 -20 61 -16 4 -20 14
-20 43 0 30 -5 40 -20 45 -17 5 -20 15 -20 62 0 46 -3 56 -20 60 -16 4 -20 14
-20 48 0 53 -8 75 -26 75 -9 0 -14 11 -14 29 0 39 -9 61 -25 61 -8 0 -15 22
-19 60 -6 51 -10 60 -26 60 -17 0 -20 7 -20 41 0 32 -4 42 -20 46 -17 5 -20
14 -20 60 0 46 -3 56 -20 60 -17 5 -20 14 -20 60 0 46 -3 56 -20 60 -14 4 -20
14 -20 33 0 65 93 60 -1051 60 -1011 0 -1039 -1 -1039 -19z m1040 -1746 c0
-44 4 -57 20 -67 14 -9 20 -24 20 -48 0 -49 10 -80 25 -80 8 0 15 -22 19 -61
6 -49 11 -62 27 -66 16 -5 19 -14 19 -64 0 -52 2 -59 20 -59 18 0 20 -7 20
-61 0 -52 3 -62 20 -66 17 -5 20 -14 20 -60 0 -46 3 -56 20 -60 17 -5 20 -14
20 -59 0 -43 4 -56 20 -66 15 -10 20 -24 20 -55 0 -51 8 -73 26 -73 9 0 14
-12 14 -34 0 -62 11 -96 31 -96 17 0 19 -8 19 -60 0 -53 2 -60 20 -60 18 0 20
-7 20 -55 0 -48 2 -55 20 -55 18 0 20 -7 20 -74 0 -82 6 -106 25 -106 8 0 14
-20 17 -56 3 -35 11 -61 20 -68 9 -6 18 -36 22 -69 5 -37 12 -57 21 -57 9 0
15 -20 20 -60 5 -46 11 -61 26 -65 16 -5 19 -16 19 -66 0 -52 2 -59 20 -59 18
0 20 -7 20 -61 0 -52 3 -62 20 -66 17 -5 20 -14 20 -60 0 -46 3 -56 20 -60 16
-4 20 -14 20 -53 0 -58 7 -80 26 -80 10 0 14 -13 14 -44 0 -54 8 -76 26 -76 8
0 14 -9 14 -20 0 -20 -7 -20 -850 -20 l-850 0 0 39 c0 30 4 40 20 44 17 4 20
14 20 62 0 47 3 58 19 62 15 4 21 18 26 61 4 31 13 61 21 67 9 6 18 35 21 68
4 36 10 57 18 57 17 0 25 33 25 101 0 48 3 57 20 62 17 4 20 14 20 60 0 47 3
57 20 62 17 5 20 15 20 66 0 52 2 59 20 59 18 0 20 7 20 60 0 46 3 60 15 60
21 0 35 33 35 84 0 33 4 46 14 46 18 0 26 22 26 75 0 35 4 45 20 50 17 5 20
15 20 65 0 49 3 58 20 63 17 4 20 14 20 60 0 47 3 57 20 62 17 5 20 15 20 66
0 52 2 59 20 59 18 0 20 7 20 59 0 50 3 61 19 66 19 6 31 43 31 96 0 18 5 29
14 29 18 0 26 22 26 75 0 34 5 47 20 55 16 9 20 21 20 64 0 45 3 54 20 59 17
4 20 14 20 62 0 48 3 58 20 62 17 5 20 14 20 63 0 49 3 58 20 63 17 4 20 14
20 62 0 47 3 58 19 62 13 3 21 17 25 44 4 25 12 39 21 39 11 0 15 -13 15 -55z"/>
<path d="M38940 3260 l0 -3180 980 0 980 0 0 1115 0 1115 1726 0 c1717 0 1726
0 1731 20 5 19 14 20 145 20 128 0 140 2 145 19 4 15 17 19 80 23 56 4 78 9
85 22 5 9 27 19 48 22 30 5 40 11 40 25 0 12 7 19 20 19 13 0 20 7 20 20 0 16
7 20 36 20 27 0 37 5 41 20 3 11 11 20 19 20 16 0 34 31 34 60 0 13 8 24 20
27 20 5 20 14 20 1729 0 1538 -2 1724 -15 1724 -9 0 -20 11 -25 25 -5 14 -16
25 -25 25 -8 0 -15 7 -15 16 0 9 -9 18 -19 21 -11 3 -21 13 -24 24 -3 11 -14
19 -26 19 -14 0 -21 6 -21 20 0 17 -7 20 -40 20 -33 0 -40 4 -40 19 0 20 -18
31 -51 31 -10 0 -28 9 -39 20 -16 16 -33 20 -89 20 -60 0 -69 2 -74 20 -5 19
-14 20 -211 20 -199 0 -206 1 -206 20 0 20 -7 20 -2625 20 l-2625 0 0 -3180z
m4200 1115 l0 -1145 -1120 0 -1120 0 0 1145 0 1145 1120 0 1120 0 0 -1145z"/>
<path d="M19147 5723 c-4 -3 -7 -235 -7 -514 0 -492 1 -509 19 -519 26 -13
1849 -14 1885 0 l26 10 0 499 c0 275 -3 506 -6 515 -6 14 -99 16 -958 16 -524
0 -956 -3 -959 -7z"/>
<path d="M15020 5311 l-35 -6 -3 -557 -2 -558 -438 -2 -437 -3 -3 -412 c-1
-253 2 -421 8 -437 l10 -26 430 0 430 0 0 -1415 c0 -1408 0 -1415 20 -1415 18
0 20 -7 20 -61 0 -52 3 -62 20 -66 11 -3 20 -14 20 -24 0 -12 7 -19 20 -19 13
0 20 -7 20 -20 0 -13 7 -20 19 -20 10 0 21 -9 24 -20 3 -12 14 -20 26 -20 14
0 21 -6 21 -19 0 -15 10 -21 40 -26 23 -4 40 -12 40 -20 0 -17 23 -25 77 -25
36 0 46 -4 50 -20 5 -18 14 -20 84 -20 46 0 79 -4 79 -10 0 -7 438 -10 1295
-10 l1295 0 -2 428 -3 427 -602 3 -603 2 0 1185 0 1185 580 0 580 0 5 23 c3
12 4 209 3 437 l-3 415 -582 3 -583 2 -2 557 -3 558 -40 7 c-49 8 -1826 8
-1875 -1z"/>
<path d="M72680 4210 c0 -20 -7 -20 -391 -20 -382 0 -391 0 -396 -20 -5 -19
-14 -20 -230 -20 -216 0 -225 -1 -230 -20 -5 -19 -14 -20 -198 -20 -201 0
-225 -3 -225 -26 0 -12 -36 -14 -205 -14 l-205 0 0 48 c0 26 -4 53 -8 60 -7
10 -210 12 -983 10 l-974 -3 -3 -2052 -2 -2053 985 0 985 0 0 1615 0 1615 334
0 c184 0 341 3 350 6 9 3 16 17 16 30 l0 24 335 0 335 0 0 -484 0 -484 23 -6
c12 -3 433 -6 935 -6 l912 0 0 775 c0 653 -2 775 -14 775 -7 0 -16 9 -19 20
-3 11 -12 20 -20 20 -8 0 -17 9 -20 20 -3 12 -14 20 -26 20 -14 0 -21 6 -21
19 0 15 -10 21 -40 26 -23 4 -40 12 -40 20 0 15 -22 25 -53 25 -12 0 -28 9
-35 20 -10 17 -23 20 -86 20 -65 0 -74 2 -79 20 -5 19 -14 20 -211 20 -199 0
-206 1 -206 20 0 19 -7 20 -145 20 -138 0 -145 -1 -145 -20z"/>
<path d="M8568 4170 c-11 -18 -24 -20 -105 -20 -78 0 -94 -3 -105 -18 -8 -12
-32 -21 -63 -25 -27 -4 -55 -14 -61 -23 -7 -8 -28 -18 -48 -21 -26 -4 -36 -11
-36 -24 0 -14 -7 -19 -25 -19 -18 0 -25 -5 -25 -20 0 -13 -7 -20 -20 -20 -13
0 -20 -7 -20 -20 0 -13 -7 -20 -20 -20 -13 0 -20 -7 -20 -19 0 -10 -9 -21 -20
-24 -16 -4 -20 -14 -20 -45 0 -30 -4 -41 -18 -44 -15 -4 -20 -19 -25 -68 -9
-81 -9 -3143 0 -3232 5 -57 9 -68 24 -68 15 0 19 -8 19 -41 0 -32 4 -42 20
-46 11 -3 20 -14 20 -24 0 -12 7 -19 20 -19 13 0 20 -7 20 -20 0 -13 7 -20 20
-20 13 0 20 -7 20 -20 0 -13 7 -20 19 -20 11 0 23 -9 26 -20 4 -14 19 -22 46
-26 21 -4 39 -12 39 -19 0 -17 23 -25 75 -25 34 0 44 -4 48 -20 5 -18 14 -20
86 -20 47 0 81 -4 81 -10 0 -7 708 -10 2105 -10 1397 0 2105 3 2105 10 0 6 37
10 90 10 77 0 93 3 110 20 11 11 33 20 51 20 22 0 32 6 36 19 3 13 17 21 45
25 28 5 42 12 45 26 4 15 14 20 38 20 24 0 35 5 40 19 3 10 15 21 25 24 15 4
20 14 20 41 0 29 4 36 20 36 17 0 20 7 20 41 0 32 4 42 20 46 12 3 22 17 25
37 9 48 1 1189 -8 1204 -6 9 -205 12 -936 12 l-928 0 -7 -37 c-3 -21 -6 -199
-6 -395 l0 -358 -785 0 -785 0 0 1235 0 1235 785 0 785 0 0 -342 c0 -189 3
-353 6 -365 l6 -23 927 0 c708 0 930 3 939 12 9 9 12 148 12 562 0 303 -3 561
-6 574 -4 13 -14 22 -25 22 -16 0 -19 8 -19 45 0 38 -3 45 -20 45 -13 0 -20 7
-20 20 0 13 -7 20 -20 20 -13 0 -20 7 -20 20 0 13 -7 20 -20 20 -13 0 -20 7
-20 20 0 13 -7 20 -19 20 -11 0 -22 9 -26 19 -4 13 -19 22 -45 26 -23 4 -40
12 -40 20 0 15 -31 25 -80 25 -24 0 -39 6 -48 20 -11 18 -23 20 -106 20 -85 0
-94 2 -99 20 -5 20 -14 20 -2056 20 -2040 0 -2051 0 -2063 -20z"/>
<path d="M19146 4174 c-3 -9 -6 -933 -6 -2055 l0 -2039 965 0 965 0 0 2039 c0
1122 -3 2046 -6 2055 -6 14 -99 16 -959 16 -860 0 -953 -2 -959 -16z"/>
<path d="M21940 4125 c0 -58 2 -65 20 -65 17 0 20 -7 20 -40 0 -33 3 -40 20
-40 17 0 20 -7 20 -39 0 -31 4 -41 20 -46 15 -5 20 -15 20 -42 0 -26 5 -36 20
-40 13 -3 20 -14 20 -28 0 -33 10 -55 25 -55 8 0 16 -17 20 -39 4 -27 13 -41
26 -44 14 -4 19 -14 19 -42 0 -28 5 -38 20 -42 16 -4 20 -14 20 -44 0 -32 3
-39 20 -39 16 0 20 -7 20 -36 0 -27 5 -37 20 -41 14 -4 20 -14 20 -34 0 -16 9
-38 19 -48 11 -11 23 -36 27 -55 3 -21 12 -36 20 -36 8 0 16 -16 20 -39 4 -27
12 -41 25 -44 11 -3 19 -14 19 -26 0 -14 6 -21 20 -21 17 0 20 -7 20 -40 0
-33 3 -40 20 -40 17 0 20 -7 20 -39 0 -30 4 -40 20 -44 15 -4 20 -14 20 -42 0
-28 5 -38 20 -42 15 -4 20 -14 20 -40 0 -26 5 -36 20 -40 14 -4 20 -14 20 -32
0 -31 9 -45 33 -54 12 -4 17 -17 17 -43 0 -27 5 -37 20 -41 16 -4 20 -14 20
-44 0 -32 3 -39 20 -39 17 0 20 -7 20 -40 0 -33 3 -40 20 -40 16 0 20 -7 20
-35 0 -24 6 -39 20 -47 11 -7 20 -23 20 -35 0 -31 10 -53 25 -53 8 0 16 -17
20 -39 4 -27 13 -41 26 -44 14 -4 19 -14 19 -42 0 -28 5 -38 20 -42 15 -4 20
-14 20 -40 0 -26 5 -36 20 -40 15 -4 20 -14 20 -40 0 -26 5 -36 20 -40 14 -4
20 -14 20 -34 0 -15 8 -36 19 -46 10 -10 22 -33 26 -51 4 -18 13 -36 21 -39 7
-2 16 -13 19 -24 4 -10 15 -19 26 -19 16 0 19 -7 19 -41 0 -32 4 -42 20 -46
16 -4 20 -14 20 -44 0 -32 3 -39 20 -39 16 0 20 -7 20 -35 0 -28 4 -35 20 -35
17 0 20 -7 20 -44 0 -36 4 -46 20 -51 15 -5 20 -15 20 -42 0 -26 5 -36 20 -40
13 -3 20 -14 20 -28 0 -36 11 -55 31 -55 15 0 19 -7 19 -39 0 -31 4 -41 20
-46 15 -5 20 -15 20 -42 0 -26 5 -36 20 -40 15 -4 20 -14 20 -40 0 -26 5 -36
20 -40 15 -4 20 -14 20 -40 0 -26 5 -36 20 -40 12 -3 20 -14 20 -27 0 -36 12
-66 26 -66 7 0 16 -16 20 -36 4 -24 13 -38 25 -41 15 -4 19 -15 19 -44 0 -32
3 -39 20 -39 17 0 20 -7 20 -39 0 -31 4 -41 20 -46 13 -4 20 -15 20 -30 0 -34
10 -55 26 -55 8 0 14 -10 14 -24 0 -35 10 -56 26 -56 8 0 14 -9 14 -21 0 -12
8 -23 20 -26 13 -3 20 -14 20 -28 0 -36 11 -55 31 -55 15 0 19 -7 19 -39 0
-31 4 -41 20 -46 15 -5 20 -15 20 -42 0 -26 5 -36 20 -40 11 -3 20 -9 20 -14
0 -5 403 -9 940 -9 575 0 940 4 940 9 0 5 9 13 20 16 16 5 20 15 20 46 0 32 3
39 20 39 17 0 20 7 20 40 0 33 3 40 20 40 16 0 20 7 20 35 0 24 6 37 20 45 12
7 22 25 26 49 4 27 12 41 25 44 14 4 19 14 19 40 0 26 5 36 20 40 15 4 20 14
20 40 0 26 5 36 20 40 16 4 20 14 20 46 0 34 3 41 20 41 17 0 20 7 20 40 0 32
4 40 19 40 14 0 20 10 25 40 4 24 12 40 20 40 16 0 26 21 26 57 0 16 7 27 20
30 16 4 20 14 20 44 0 32 3 39 20 39 17 0 20 7 20 39 0 30 4 40 20 44 11 3 20
14 20 25 0 11 9 22 20 25 15 4 20 14 20 40 0 26 5 36 20 40 14 4 20 14 20 35
0 19 7 36 19 44 11 8 22 30 26 51 4 21 13 37 21 37 8 0 15 18 20 45 5 35 10
45 25 45 15 0 19 7 19 34 0 25 5 35 20 39 15 4 20 14 20 42 0 28 5 38 20 42
16 4 20 14 20 44 0 32 3 39 20 39 14 0 20 7 20 24 0 34 10 56 25 56 15 0 25
22 25 55 0 15 7 26 20 30 15 5 20 15 20 45 0 29 4 39 20 43 15 4 20 14 20 40
0 26 5 36 20 40 15 4 20 14 20 40 0 26 5 36 20 40 16 4 20 14 20 46 0 34 3 41
19 41 15 0 21 10 26 40 4 23 12 40 20 40 15 0 25 22 25 55 0 15 7 26 20 30 11
3 20 15 20 26 0 10 6 19 14 19 16 0 26 21 26 53 0 12 9 28 20 35 13 8 20 23
20 43 0 22 5 32 20 36 16 4 20 14 20 43 0 29 4 39 20 43 15 4 20 14 20 36 0
19 7 34 19 40 10 6 21 25 25 42 3 18 15 38 26 46 13 9 20 26 20 47 0 25 5 35
20 39 15 4 20 14 20 40 0 26 5 36 20 40 15 4 20 14 20 40 0 26 5 36 20 40 16
4 20 14 20 46 0 33 3 41 19 41 14 0 20 10 25 40 4 24 12 40 20 40 17 0 26 22
26 66 0 27 4 34 20 34 16 0 20 7 20 35 0 28 4 35 20 35 17 0 20 7 20 40 0 33
3 40 20 40 17 0 20 7 20 39 0 30 4 40 20 44 15 4 20 14 20 42 0 28 5 38 19 42
13 3 22 17 26 44 4 23 12 39 20 39 8 0 16 9 20 19 3 11 12 22 20 25 8 3 18 23
21 46 4 22 12 40 19 40 15 0 25 22 25 55 0 14 7 25 20 28 15 4 20 14 20 40 0
27 5 37 20 42 17 5 20 15 20 66 l0 59 -997 -2 -998 -3 -3 -39 c-2 -28 -9 -40
-23 -43 -16 -5 -19 -14 -19 -64 0 -51 -3 -59 -19 -59 -20 0 -31 -18 -31 -51 0
-10 -9 -28 -20 -39 -15 -15 -20 -33 -20 -70 0 -43 -3 -50 -20 -50 -17 0 -20
-7 -20 -39 0 -30 -4 -40 -20 -44 -16 -4 -20 -14 -20 -45 0 -31 -4 -41 -20 -45
-17 -4 -20 -14 -20 -61 0 -49 -2 -56 -20 -56 -17 0 -20 -7 -20 -41 0 -32 -4
-42 -20 -46 -15 -4 -21 -17 -26 -64 -4 -37 -11 -59 -19 -59 -14 0 -25 -22 -25
-51 0 -10 -9 -28 -20 -39 -15 -15 -20 -33 -20 -70 0 -43 -3 -50 -20 -50 -17 0
-20 -7 -20 -39 0 -30 -4 -40 -20 -44 -17 -4 -20 -14 -20 -60 0 -47 -3 -57 -20
-62 -15 -5 -20 -15 -20 -45 0 -28 -5 -39 -18 -43 -19 -4 -32 -44 -32 -92 0
-14 -7 -25 -20 -28 -16 -4 -20 -14 -20 -45 0 -31 -4 -41 -20 -45 -17 -4 -20
-14 -20 -66 0 -54 -2 -61 -20 -61 -16 0 -20 -7 -20 -36 0 -27 -5 -37 -20 -41
-17 -5 -20 -14 -20 -64 0 -52 -2 -59 -20 -59 -17 0 -20 -7 -20 -39 0 -29 -5
-40 -18 -44 -19 -4 -32 -44 -32 -97 0 -19 -6 -29 -20 -33 -15 -4 -20 -14 -20
-40 0 -26 -5 -36 -20 -40 -17 -4 -20 -14 -20 -62 0 -48 -3 -58 -20 -62 -16 -4
-20 -14 -20 -44 0 -32 -3 -39 -20 -39 -17 0 -20 -7 -20 -40 0 -33 -3 -40 -20
-40 -16 0 -20 7 -20 36 0 27 -5 37 -20 41 -16 4 -20 14 -20 43 0 29 -4 39 -20
43 -16 4 -20 14 -20 50 0 55 -8 77 -26 77 -8 0 -14 10 -14 24 0 34 -10 56 -26
56 -9 0 -15 20 -20 59 -5 46 -11 60 -25 64 -15 4 -19 14 -19 46 0 34 -3 41
-20 41 -18 0 -20 7 -20 56 0 47 -3 57 -20 61 -16 4 -20 14 -20 44 0 32 -3 39
-20 39 -16 0 -20 7 -20 34 0 53 -11 96 -25 96 -8 0 -16 18 -20 41 -4 22 -13
43 -21 46 -8 3 -17 23 -20 44 -5 29 -11 39 -25 39 -16 0 -19 8 -19 59 0 50 -3
59 -20 64 -15 4 -20 14 -20 42 0 28 -5 38 -20 42 -17 5 -20 14 -20 60 0 46 -3
56 -20 60 -16 4 -20 14 -20 45 0 31 -4 41 -19 45 -14 3 -20 17 -24 55 -4 32
-14 58 -27 70 -11 10 -20 32 -20 48 0 20 -6 31 -20 35 -17 5 -20 15 -20 62 0
46 -3 56 -20 60 -16 4 -20 14 -20 44 0 32 -3 39 -20 39 -17 0 -20 7 -20 41 0
32 -4 42 -20 46 -16 4 -20 14 -20 48 0 53 -8 75 -26 75 -9 0 -14 12 -14 34 0
24 -7 39 -21 49 -15 11 -22 30 -26 71 -5 46 -9 56 -24 56 -15 0 -19 8 -19 39
0 30 -4 40 -20 44 -17 4 -20 14 -20 54 0 27 -5 54 -12 61 -9 9 -245 12 -1000
12 l-988 0 0 -65z"/>
<path d="M29440 4170 c0 -19 -7 -20 -101 -20 -92 0 -101 -2 -106 -20 -5 -17
-14 -20 -59 -20 -43 0 -56 -4 -66 -20 -7 -11 -23 -20 -35 -20 -35 0 -53 -11
-53 -31 0 -15 -7 -19 -40 -19 -33 0 -40 -3 -40 -20 0 -13 -7 -20 -20 -20 -13
0 -20 -7 -20 -20 0 -13 -7 -20 -19 -20 -21 0 -31 -19 -31 -55 0 -15 -7 -26
-20 -30 -20 -6 -20 -15 -20 -1730 0 -1715 0 -1724 20 -1730 13 -4 20 -15 20
-30 0 -33 10 -55 25 -55 8 0 17 -9 20 -20 3 -11 15 -20 26 -20 12 0 19 -7 19
-20 0 -13 7 -20 19 -20 10 0 21 -9 24 -20 3 -13 14 -20 31 -20 14 0 34 -10 45
-22 15 -15 36 -23 75 -26 43 -3 55 -8 59 -23 5 -17 15 -19 86 -19 47 0 81 -4
81 -10 0 -7 708 -10 2105 -10 1397 0 2105 3 2105 10 0 6 39 10 96 10 85 0 96
2 101 19 4 14 17 20 58 24 35 4 60 12 74 26 12 12 33 21 47 21 17 0 28 6 31
20 3 11 14 20 24 20 12 0 19 7 19 20 0 13 7 20 20 20 11 0 20 7 20 15 0 9 11
20 25 25 20 8 25 16 25 44 0 26 5 36 20 41 20 6 20 15 20 546 l0 539 -920 0
-920 0 0 -330 0 -330 -830 0 -830 0 0 515 0 515 1505 0 c1477 0 1505 0 1524
19 11 11 36 23 55 27 21 3 36 12 36 20 0 8 16 16 39 20 27 4 41 12 44 25 4 14
14 19 42 19 28 0 38 5 42 20 4 15 14 20 40 20 26 0 36 5 40 20 4 15 14 20 40
20 26 0 36 5 40 19 3 11 15 21 27 23 l21 3 3 872 c2 849 2 872 -17 878 -12 3
-21 19 -25 40 -4 19 -16 39 -26 45 -11 6 -20 17 -20 25 0 8 -8 15 -19 15 -10
0 -21 9 -24 20 -4 15 -14 20 -41 20 -29 0 -36 4 -36 20 0 15 -9 21 -40 26 -22
4 -40 12 -40 19 0 18 -23 25 -80 25 -39 0 -49 4 -53 20 -5 18 -14 20 -106 20
-94 0 -101 1 -101 20 0 20 -7 20 -2040 20 -2033 0 -2040 0 -2040 -20z m2870
-1170 l0 -430 -830 0 -830 0 0 430 0 430 830 0 830 0 0 -430z"/>
<path d="M46908 4170 c-11 -18 -24 -20 -100 -20 -72 0 -90 -3 -105 -19 -11
-11 -39 -21 -75 -25 -40 -5 -58 -12 -58 -22 0 -8 -15 -16 -40 -20 -30 -5 -40
-11 -40 -25 0 -13 -7 -19 -21 -19 -12 0 -23 -8 -26 -20 -3 -11 -14 -20 -24
-20 -12 0 -19 -7 -19 -20 0 -13 -7 -20 -20 -20 -14 0 -20 -7 -20 -21 0 -12 -8
-23 -19 -26 -15 -4 -21 -18 -26 -61 -4 -34 -13 -61 -23 -68 -16 -11 -17 -138
-20 -1606 -2 -876 0 -1612 3 -1636 4 -25 12 -42 19 -42 9 0 16 -21 20 -61 6
-49 11 -62 27 -66 10 -3 19 -14 19 -24 0 -12 7 -19 20 -19 13 0 20 -7 20 -20
0 -13 7 -20 20 -20 13 0 20 -7 20 -20 0 -13 7 -20 19 -20 11 0 22 -9 26 -19 4
-13 19 -22 45 -26 23 -4 40 -12 40 -20 0 -15 31 -25 81 -25 28 0 38 -5 42 -20
5 -18 14 -20 86 -20 47 0 81 -4 81 -10 0 -7 730 -10 2170 -10 1440 0 2170 3
2170 10 0 6 34 10 81 10 72 0 81 2 86 20 4 16 14 20 48 20 53 0 75 8 75 26 0
8 16 16 40 20 30 5 40 11 40 25 0 14 7 19 25 19 18 0 25 5 25 20 0 13 7 20 20
20 13 0 20 7 20 20 0 13 7 20 20 20 13 0 20 7 20 19 0 10 9 21 20 24 17 4 20
14 20 66 0 54 2 61 20 61 20 0 20 7 20 1645 0 1638 0 1645 -20 1645 -18 0 -20
7 -20 60 0 47 -3 60 -15 60 -9 0 -20 11 -25 25 -5 14 -16 25 -25 25 -8 0 -15
9 -15 20 0 13 -7 20 -19 20 -10 0 -21 9 -24 20 -3 12 -14 20 -26 20 -14 0 -21
6 -21 19 0 13 -10 20 -36 24 -20 3 -41 13 -48 22 -7 10 -33 18 -69 22 -36 4
-57 10 -57 18 0 20 -25 25 -115 25 -74 0 -86 2 -95 20 -11 20 -21 20 -2120 20
-2099 0 -2110 0 -2122 -20z m2952 -2035 l0 -1235 -830 0 -830 0 0 1235 0 1235
830 0 830 0 0 -1235z"/>
<path d="M52617 4183 c-9 -8 -9 -90 -1 -132 4 -17 13 -31 20 -31 8 0 16 -16
20 -40 5 -30 11 -40 25 -40 16 0 19 -8 19 -41 0 -32 4 -42 20 -46 17 -5 20
-14 20 -60 0 -46 3 -56 20 -60 16 -4 20 -14 20 -43 0 -30 5 -40 20 -45 15 -5
20 -15 20 -42 0 -26 5 -36 19 -40 14 -4 20 -18 25 -63 5 -46 11 -59 26 -63 15
-4 20 -14 20 -36 0 -24 4 -31 20 -31 17 0 20 -7 20 -50 0 -43 3 -50 20 -50 18
0 20 -7 20 -56 0 -47 3 -57 20 -61 16 -4 20 -14 20 -45 0 -31 4 -41 20 -45 15
-4 20 -14 20 -40 0 -26 5 -36 19 -40 14 -4 20 -18 25 -63 5 -46 11 -59 26 -63
15 -4 20 -14 20 -42 0 -28 5 -38 20 -42 16 -4 20 -14 20 -44 0 -32 3 -39 20
-39 17 0 20 -7 20 -41 0 -32 4 -42 20 -46 17 -5 20 -14 20 -60 0 -46 3 -56 20
-60 15 -4 20 -14 20 -39 0 -23 6 -38 20 -46 11 -7 20 -23 20 -35 0 -35 11 -53
31 -53 16 0 19 -8 19 -56 0 -47 3 -57 20 -61 16 -4 20 -14 20 -45 0 -31 4 -41
20 -45 16 -4 20 -14 20 -44 0 -32 3 -39 20 -39 17 0 20 -7 20 -44 0 -54 8 -76
26 -76 9 0 14 -11 14 -30 0 -16 8 -38 19 -49 10 -10 21 -35 25 -55 5 -27 12
-36 26 -36 18 0 20 -7 20 -59 0 -50 3 -59 20 -64 15 -4 20 -14 20 -42 0 -28 5
-38 20 -42 16 -4 20 -14 20 -44 0 -32 3 -39 20 -39 17 0 20 -7 20 -41 0 -32 4
-42 20 -46 15 -4 20 -14 20 -42 0 -50 10 -81 25 -81 8 0 16 -17 20 -40 4 -26
13 -41 26 -45 14 -5 19 -16 19 -46 0 -32 3 -39 20 -39 18 0 20 -7 20 -56 0
-47 3 -57 20 -61 16 -4 20 -14 20 -45 0 -31 4 -41 20 -45 15 -4 20 -14 20 -40
0 -26 5 -36 20 -40 14 -4 20 -14 20 -33 0 -48 12 -90 26 -90 8 0 16 -16 20
-41 5 -29 13 -43 25 -46 14 -4 19 -15 19 -44 0 -32 3 -39 20 -39 18 0 20 -7
20 -55 0 -44 4 -56 20 -65 14 -8 20 -21 20 -46 0 -27 5 -37 20 -41 15 -4 20
-14 20 -40 0 -26 5 -36 20 -40 14 -4 20 -14 20 -33 0 -39 9 -60 26 -60 8 0 14
-4 14 -10 0 -7 293 -10 860 -10 l860 0 0 34 c0 25 5 35 20 39 17 4 20 14 20
61 0 49 2 56 20 56 17 0 20 7 20 41 0 32 4 42 20 46 15 4 21 17 26 63 5 45 11
59 25 63 14 4 19 14 19 39 0 22 6 37 20 46 16 10 20 23 20 66 0 45 3 54 20 59
17 4 20 14 20 61 0 49 2 56 20 56 17 0 20 7 20 41 0 32 4 42 19 46 15 4 21 18
26 64 5 38 12 59 20 59 15 0 25 22 25 53 0 12 9 28 20 35 16 10 20 23 20 67 0
48 2 55 20 55 16 0 20 7 20 38 0 26 6 41 20 50 16 10 20 23 20 67 0 48 2 55
20 55 17 0 20 7 20 39 0 29 4 40 19 44 14 3 20 18 25 59 5 35 14 60 26 71 12
10 20 29 20 47 0 19 5 30 14 30 16 0 26 30 26 82 0 28 5 38 20 43 17 5 20 15
20 66 0 52 2 59 20 59 17 0 20 7 20 39 0 30 4 40 19 44 16 4 20 15 23 63 2 47
7 59 21 62 14 3 17 -4 17 -38 0 -33 4 -43 20 -47 17 -5 20 -14 20 -60 0 -46 3
-56 20 -60 15 -4 20 -14 20 -39 0 -21 7 -38 19 -46 13 -9 21 -32 26 -71 6 -47
11 -57 26 -57 15 0 19 -7 19 -39 0 -30 4 -40 20 -44 17 -4 20 -14 20 -62 0
-48 3 -58 20 -62 15 -4 20 -14 20 -39 0 -27 4 -34 20 -34 18 0 20 -7 20 -59 0
-47 4 -63 18 -73 12 -8 21 -32 25 -63 4 -27 14 -55 23 -61 8 -7 18 -28 21 -48
3 -23 12 -38 24 -41 16 -5 19 -16 19 -62 0 -46 3 -56 20 -60 16 -4 20 -14 20
-44 0 -32 3 -39 20 -39 18 0 20 -7 20 -55 0 -44 4 -57 20 -67 14 -9 20 -24 20
-46 0 -25 5 -35 20 -39 14 -4 20 -14 20 -33 0 -47 12 -90 25 -90 16 0 25 -22
25 -61 0 -22 5 -29 20 -29 18 0 20 -7 20 -59 0 -50 3 -59 20 -64 15 -4 20 -14
20 -42 0 -28 5 -38 20 -42 17 -5 20 -14 20 -60 0 -46 3 -56 20 -60 16 -4 20
-14 20 -45 0 -31 4 -41 20 -45 11 -3 20 -9 20 -14 0 -5 367 -9 854 -9 l855 0
25 24 c21 19 26 32 26 75 0 44 3 51 20 51 17 0 20 7 20 39 0 30 4 40 20 44 13
3 20 14 20 30 0 35 10 57 25 57 13 0 25 43 25 90 0 19 6 29 20 33 15 4 20 14
20 40 0 26 5 36 20 40 16 4 20 14 20 45 0 31 4 41 20 45 17 4 20 14 20 61 0
49 2 56 20 56 17 0 20 7 20 39 0 30 5 41 19 46 13 4 22 19 26 45 4 24 12 40
20 40 8 0 17 16 21 37 4 21 14 43 22 49 9 7 17 33 20 68 4 46 8 56 23 56 15 0
19 8 19 39 0 30 4 40 20 44 15 4 20 14 20 42 0 28 5 38 20 42 17 5 20 14 20
69 0 56 2 64 19 64 19 0 31 18 31 46 0 8 9 23 20 34 11 11 20 33 20 50 0 19 5
30 14 30 16 0 26 30 26 83 0 30 4 37 20 37 17 0 20 7 20 39 0 30 4 40 20 44
16 4 20 14 20 45 0 31 4 41 20 45 17 4 20 14 20 61 0 48 3 56 19 56 20 0 31
18 31 53 0 12 9 28 20 35 14 8 20 23 20 46 0 25 5 35 20 39 15 4 20 14 20 39
0 22 6 37 20 46 16 10 20 23 20 67 0 48 2 55 20 55 17 0 20 7 20 39 0 30 4 40
20 44 15 4 20 14 20 42 0 28 5 38 20 42 15 4 21 17 26 63 5 45 11 59 25 63 14
4 19 14 19 40 0 26 5 36 20 40 16 4 20 14 20 45 0 31 4 41 20 45 17 4 20 14
20 61 0 49 2 56 20 56 17 0 20 7 20 39 0 30 4 40 20 44 16 4 20 14 20 46 0 34
3 41 20 41 16 0 20 9 26 59 5 46 11 60 25 64 14 4 19 14 19 40 0 27 5 37 20
42 15 5 20 15 20 45 0 29 4 39 20 43 15 4 20 14 20 40 0 27 5 37 20 42 17 5
20 15 20 66 0 52 2 59 20 59 14 0 20 7 20 24 0 34 10 56 25 56 9 0 16 18 21
45 3 26 12 45 19 45 15 0 25 31 25 83 0 30 4 37 20 37 17 0 20 7 20 39 0 30 4
40 20 44 17 4 20 14 20 66 l0 61 -937 -2 -938 -3 -3 -59 c-3 -48 -7 -59 -23
-63 -16 -5 -19 -14 -19 -64 0 -52 -2 -59 -20 -59 -17 0 -20 -7 -20 -41 0 -32
-4 -42 -19 -46 -16 -4 -21 -17 -27 -61 -4 -32 -14 -62 -22 -68 -9 -7 -17 -33
-20 -68 -3 -36 -9 -56 -17 -56 -17 0 -25 -23 -25 -75 0 -34 -4 -44 -20 -48
-17 -4 -20 -14 -20 -62 0 -48 -3 -58 -20 -62 -17 -5 -20 -14 -20 -64 0 -51 -3
-59 -19 -59 -15 0 -20 -10 -26 -57 -4 -37 -14 -65 -26 -76 -14 -13 -19 -32
-19 -66 0 -40 -3 -50 -20 -54 -17 -4 -20 -14 -20 -60 0 -47 -3 -57 -20 -62
-17 -5 -20 -15 -20 -66 0 -52 -2 -59 -20 -59 -17 0 -20 -7 -20 -41 0 -32 -4
-42 -20 -46 -17 -5 -20 -14 -20 -63 0 -48 -3 -58 -19 -63 -14 -3 -20 -18 -25
-61 -5 -33 -13 -59 -22 -64 -9 -5 -17 -30 -21 -65 -4 -36 -10 -57 -18 -57 -17
0 -25 -23 -25 -75 0 -35 -4 -45 -20 -50 -17 -5 -20 -15 -20 -66 0 -52 -2 -59
-20 -59 -18 0 -20 -7 -20 -59 0 -50 -3 -59 -20 -64 -17 -4 -20 -14 -20 -65 0
-54 -2 -60 -22 -64 -49 -9 -58 0 -58 57 0 41 -4 57 -18 67 -12 8 -21 32 -25
63 -4 28 -13 55 -21 60 -8 6 -17 36 -21 67 -5 43 -11 57 -26 61 -16 4 -19 15
-19 62 0 48 -3 58 -20 62 -17 5 -20 14 -20 59 0 43 -4 55 -20 64 -14 8 -20 21
-20 46 0 27 -5 37 -20 41 -17 5 -20 14 -20 63 0 50 -3 60 -20 65 -16 5 -20 15
-20 50 0 53 -8 75 -26 75 -9 0 -14 11 -14 29 0 54 -13 94 -32 98 -15 5 -18 15
-18 64 0 52 -2 59 -20 59 -18 0 -20 7 -20 59 0 51 -3 61 -20 66 -17 5 -20 15
-20 62 0 46 -3 56 -20 60 -17 5 -20 14 -20 59 0 43 -4 55 -20 64 -13 7 -20 21
-20 39 0 48 -12 91 -25 91 -13 0 -25 43 -25 90 0 19 -6 29 -20 33 -17 4 -20
14 -20 62 0 48 -3 58 -20 62 -17 5 -20 14 -20 63 0 49 -3 58 -20 63 -17 4 -20
14 -20 56 0 40 -4 53 -20 63 -12 8 -20 24 -20 39 0 48 -12 89 -26 89 -9 0 -14
11 -14 29 0 66 64 61 -761 61 -727 0 -749 -1 -749 -19 0 -10 -9 -21 -20 -24
-17 -4 -20 -14 -20 -66 0 -54 -2 -61 -20 -61 -17 0 -20 -7 -20 -50 0 -37 -5
-54 -21 -68 -14 -14 -22 -37 -26 -76 -4 -35 -10 -56 -18 -56 -17 0 -25 -23
-25 -75 0 -34 -4 -44 -20 -48 -17 -4 -20 -14 -20 -66 0 -54 -2 -61 -20 -61
-18 0 -20 -7 -20 -59 0 -50 -3 -59 -20 -64 -17 -4 -20 -14 -20 -66 0 -53 -2
-61 -19 -61 -16 0 -20 -10 -26 -60 -5 -39 -12 -60 -20 -60 -18 0 -25 -23 -25
-80 0 -39 -4 -49 -20 -53 -17 -4 -20 -14 -20 -60 0 -46 -3 -55 -20 -60 -17 -4
-20 -14 -20 -66 0 -54 -2 -61 -20 -61 -17 0 -20 -7 -20 -39 0 -31 -4 -41 -20
-46 -17 -5 -20 -15 -20 -65 0 -48 -3 -58 -19 -63 -15 -3 -20 -18 -26 -66 -4
-39 -12 -61 -20 -61 -13 0 -25 -43 -25 -91 0 -18 -5 -29 -14 -29 -16 0 -26
-30 -26 -81 0 -28 -5 -38 -20 -42 -17 -4 -20 -14 -20 -66 0 -54 -2 -61 -20
-61 -18 0 -20 -7 -20 -59 0 -50 -3 -59 -20 -64 -17 -4 -20 -14 -20 -66 0 -53
-2 -61 -19 -61 -14 0 -20 -10 -25 -40 -4 -26 -11 -40 -21 -40 -12 0 -15 13
-15 56 0 47 -3 57 -20 61 -16 4 -20 14 -20 47 0 55 -9 86 -25 86 -8 0 -15 21
-20 59 -5 46 -11 60 -26 64 -16 4 -19 14 -19 62 0 48 -3 58 -20 62 -17 5 -20
14 -20 60 0 46 -3 56 -20 60 -16 4 -20 14 -20 44 0 32 -3 39 -20 39 -18 0 -20
7 -20 64 0 55 -3 64 -20 69 -16 4 -20 14 -20 50 0 54 -8 77 -25 77 -8 0 -15
21 -20 60 -6 50 -10 60 -26 60 -17 0 -19 8 -19 61 0 52 -3 62 -20 66 -17 5
-20 14 -20 64 0 52 -2 59 -20 59 -18 0 -20 7 -20 61 0 52 -3 62 -20 66 -16 4
-20 14 -20 48 0 52 -8 75 -25 75 -8 0 -14 21 -18 57 -4 37 -12 62 -23 70 -11
8 -19 31 -22 64 -4 39 -9 53 -23 56 -16 5 -19 15 -19 63 0 50 -3 60 -20 65
-16 5 -20 15 -20 46 0 32 -3 39 -20 39 -18 0 -20 7 -20 61 0 52 -3 62 -20 66
-17 5 -20 14 -20 60 0 46 -3 56 -20 60 -16 4 -20 14 -20 44 0 49 -16 89 -35
89 -8 0 -15 9 -15 20 0 20 -7 20 -913 20 -503 0 -917 -3 -920 -7z"/>
<path d="M62670 4170 c0 -19 -7 -20 -101 -20 -92 0 -101 -2 -106 -20 -4 -16
-14 -20 -53 -20 -58 0 -80 -7 -80 -26 0 -8 -10 -14 -24 -14 -37 0 -56 -10 -56
-31 0 -15 -7 -19 -40 -19 -33 0 -40 -3 -40 -20 0 -13 -7 -20 -20 -20 -11 0
-20 -7 -20 -15 0 -9 -11 -20 -25 -25 -20 -8 -25 -16 -25 -44 0 -25 -5 -35 -20
-39 -20 -5 -20 -14 -20 -1746 0 -1577 1 -1742 16 -1748 8 -3 20 -16 25 -29 4
-13 15 -24 23 -24 8 0 18 -9 21 -20 3 -11 15 -20 26 -20 12 0 19 -7 19 -20 0
-13 7 -20 19 -20 10 0 21 -9 24 -20 3 -13 14 -20 30 -20 13 0 36 -11 51 -25
21 -19 38 -25 75 -25 40 0 50 -3 54 -20 5 -18 14 -20 86 -20 47 0 81 -4 81
-10 0 -7 708 -10 2105 -10 1397 0 2105 3 2105 10 0 6 38 10 95 10 84 0 96 2
107 20 8 12 24 20 39 20 46 0 89 12 89 25 0 6 11 17 25 23 14 6 25 18 25 27 0
11 10 15 36 15 27 0 37 5 41 19 3 11 13 21 24 24 10 3 19 12 19 20 0 8 9 17
20 20 15 4 20 14 20 40 0 26 5 37 19 42 13 4 20 19 25 52 9 67 7 1006 -2 1021
-7 10 -198 12 -923 10 l-914 -3 -3 -327 -2 -328 -830 0 -830 0 0 515 0 515
1496 0 c1487 0 1496 0 1501 20 4 14 14 20 33 20 38 0 60 9 60 25 0 8 21 15 56
20 44 5 57 11 61 26 4 14 14 19 40 19 26 0 36 5 40 20 4 15 14 20 39 20 23 0
38 6 46 20 7 11 23 20 35 20 32 0 53 10 53 26 0 8 8 14 19 14 13 0 20 10 25
31 8 41 8 1598 0 1666 -5 39 -11 53 -25 56 -14 4 -19 14 -19 40 0 26 -5 37
-19 42 -10 3 -21 15 -24 25 -3 11 -12 20 -20 20 -9 0 -19 9 -22 20 -5 15 -15
20 -40 20 -25 0 -35 5 -40 20 -4 14 -19 22 -46 26 -21 4 -39 12 -39 19 0 17
-23 25 -75 25 -35 0 -45 4 -50 20 -6 18 -15 20 -105 20 -89 0 -98 2 -103 20
-5 20 -14 20 -2046 20 -2034 0 -2041 0 -2041 -20z m2870 -1170 l0 -430 -830 0
-830 0 0 430 0 430 830 0 830 0 0 -430z"/>
</g>
</svg>
