<?xml version="1.0" standalone="no"?>
<!DOCTYPE svg PUBLIC "-//W3C//DTD SVG 20010904//EN"
 "http://www.w3.org/TR/2001/REC-SVG-20010904/DTD/svg10.dtd">
<svg version="1.0" xmlns="http://www.w3.org/2000/svg"
 width="2563.000000pt" height="2942.000000pt" viewBox="0 0 2563.000000 2942.000000"
 preserveAspectRatio="xMidYMid meet">
<metadata>
Created by potrace 1.16, written by Peter Selinger 2001-2019
</metadata>
<g transform="translate(0.000000,2942.000000) scale(0.100000,-0.100000)"
fill="#FF390B" stroke="none">
<path d="M14270 29250 c0 -6 -78 -10 -212 -10 -260 0 -314 -6 -321 -31 -5 -18
-20 -19 -276 -19 -264 0 -271 0 -271 -20 0 -20 -7 -20 -351 -20 -342 0 -351 0
-356 -20 -5 -20 -14 -20 -395 -20 -381 0 -390 0 -395 -20 -5 -19 -14 -20 -185
-20 -171 0 -180 -1 -185 -20 -5 -19 -14 -20 -119 -20 -102 0 -116 -2 -131 -20
-14 -16 -30 -20 -84 -20 -91 0 -126 -8 -132 -31 -5 -17 -15 -19 -106 -19 -94
0 -101 -1 -101 -20 0 -18 -7 -20 -81 -20 -72 0 -81 -2 -86 -20 -5 -18 -14 -20
-80 -20 -66 0 -75 -2 -80 -20 -5 -17 -14 -20 -65 -20 -51 0 -61 -3 -65 -20 -4
-17 -14 -20 -54 -20 -35 0 -55 -6 -68 -19 -12 -12 -41 -22 -75 -26 -46 -6 -56
-11 -56 -26 0 -15 -7 -19 -39 -19 -31 0 -41 -4 -46 -20 -5 -16 -15 -20 -56
-20 -38 0 -52 -4 -61 -20 -7 -11 -21 -20 -30 -20 -11 0 -18 -8 -18 -20 0 -17
-7 -20 -39 -20 -30 0 -41 -5 -46 -19 -3 -12 -19 -21 -40 -25 -19 -4 -39 -16
-45 -26 -6 -11 -17 -20 -25 -20 -8 0 -15 -9 -15 -20 0 -17 -7 -20 -40 -20 -33
0 -40 -3 -40 -20 0 -13 -7 -20 -19 -20 -11 0 -23 -9 -26 -20 -4 -14 -15 -20
-36 -20 -18 0 -32 -6 -36 -16 -3 -8 -16 -20 -29 -25 -13 -4 -24 -15 -24 -24 0
-8 -7 -15 -16 -15 -9 0 -18 -9 -21 -20 -4 -14 -17 -22 -44 -26 -29 -5 -39 -11
-39 -25 0 -13 -7 -19 -21 -19 -12 0 -23 -8 -26 -20 -4 -14 -14 -20 -34 -20
-18 0 -34 -8 -41 -20 -7 -11 -21 -20 -30 -20 -11 0 -18 -8 -18 -20 0 -17 -7
-20 -39 -20 -30 0 -40 -4 -44 -20 -3 -13 -14 -20 -30 -20 -35 0 -57 -10 -57
-25 0 -8 -26 -15 -80 -19 -70 -7 -80 -10 -80 -27 0 -18 -9 -19 -190 -19 -179
0 -190 1 -190 19 0 13 -10 20 -31 25 -42 8 -1198 8 -1278 0 -50 -6 -61 -10
-61 -25 0 -18 -12 -19 -210 -19 -203 0 -210 -1 -210 -20 0 -19 -7 -20 -145
-20 -138 0 -145 -1 -145 -20 0 -19 -7 -20 -109 -20 -118 0 -141 -4 -141 -26 0
-11 -19 -14 -82 -14 -96 0 -128 -7 -128 -26 0 -10 -15 -14 -54 -14 -73 0 -116
-10 -116 -26 0 -9 -11 -14 -29 -14 -54 0 -89 -12 -94 -31 -4 -16 -15 -19 -66
-19 -54 0 -61 -2 -61 -20 0 -18 -7 -20 -59 -20 -50 0 -59 -3 -64 -20 -4 -17
-14 -20 -62 -20 -48 0 -58 -3 -62 -20 -4 -15 -14 -20 -40 -20 -26 0 -36 -5
-40 -20 -4 -15 -14 -20 -39 -20 -21 0 -38 -7 -46 -18 -7 -11 -30 -22 -50 -26
-29 -5 -38 -12 -38 -26 0 -17 -7 -20 -40 -20 -33 0 -40 -3 -40 -20 0 -17 -7
-20 -41 -20 -32 0 -42 -4 -46 -20 -4 -15 -14 -20 -40 -20 -26 0 -36 -5 -40
-20 -3 -11 -14 -20 -24 -20 -12 0 -19 -7 -19 -20 0 -14 -7 -20 -24 -20 -35 0
-56 -10 -56 -26 0 -7 -11 -16 -25 -20 -16 -4 -25 -13 -25 -25 0 -15 -7 -19
-36 -19 -27 0 -37 -5 -41 -20 -3 -11 -14 -20 -24 -20 -12 0 -19 -7 -19 -20 0
-14 -7 -20 -24 -20 -35 0 -56 -10 -56 -26 0 -8 -6 -14 -13 -14 -7 0 -23 -11
-35 -25 -12 -14 -26 -25 -31 -25 -5 0 -11 -9 -14 -20 -3 -11 -12 -20 -21 -20
-9 0 -16 -8 -16 -20 0 -13 -7 -20 -20 -20 -13 0 -20 -7 -20 -20 0 -16 -7 -20
-36 -20 -27 0 -37 -5 -41 -20 -3 -11 -12 -20 -19 -20 -8 0 -19 -11 -24 -25 -5
-14 -16 -25 -24 -25 -8 0 -18 -9 -21 -20 -3 -11 -13 -20 -22 -20 -8 0 -17 -9
-20 -19 -3 -11 -13 -21 -24 -24 -10 -3 -19 -12 -19 -20 0 -8 -9 -17 -20 -20
-11 -3 -20 -12 -20 -20 0 -8 -8 -17 -19 -20 -11 -3 -21 -17 -25 -40 -4 -23
-13 -37 -26 -40 -11 -3 -20 -12 -20 -20 0 -8 -9 -17 -20 -20 -12 -3 -20 -14
-20 -26 0 -14 -6 -21 -20 -21 -13 0 -20 -7 -20 -20 0 -13 -7 -20 -20 -20 -13
0 -20 -7 -20 -19 0 -10 -9 -21 -20 -24 -15 -4 -20 -14 -20 -41 0 -29 -4 -36
-19 -36 -11 0 -23 -9 -26 -20 -3 -11 -15 -25 -26 -30 -10 -6 -19 -17 -19 -25
0 -8 -6 -15 -14 -15 -16 0 -26 -21 -26 -55 0 -14 -7 -25 -20 -28 -15 -4 -20
-14 -20 -41 0 -29 -4 -36 -20 -36 -14 0 -20 -7 -20 -21 0 -12 -8 -23 -20 -26
-15 -4 -20 -14 -20 -39 0 -24 -6 -37 -17 -41 -24 -9 -33 -23 -33 -54 0 -18 -6
-28 -20 -32 -15 -4 -20 -14 -20 -40 0 -27 -5 -37 -20 -42 -16 -5 -20 -15 -20
-46 0 -32 -3 -39 -20 -39 -17 0 -20 -7 -20 -39 0 -30 -4 -40 -20 -44 -17 -4
-20 -14 -20 -66 0 -53 -2 -61 -19 -61 -13 0 -20 -10 -24 -36 -3 -20 -13 -41
-22 -48 -10 -7 -18 -33 -22 -69 -4 -35 -10 -57 -18 -57 -15 0 -25 -45 -25
-110 0 -39 -4 -49 -20 -53 -18 -5 -20 -14 -20 -105 0 -91 -2 -100 -20 -105
-19 -5 -20 -14 -20 -187 0 -173 -1 -182 -20 -187 -20 -5 -20 -14 -20 -543 0
-513 -1 -538 -18 -542 -17 -5 -19 -22 -25 -179 -4 -96 -7 -245 -7 -331 0 -127
-3 -158 -14 -158 -22 0 -26 -48 -26 -318 0 -231 -2 -256 -17 -268 -17 -11 -18
-51 -21 -540 -2 -511 -3 -529 -22 -546 -18 -17 -20 -32 -20 -127 0 -100 -2
-109 -20 -114 -17 -4 -20 -14 -20 -66 0 -54 -2 -61 -20 -61 -17 0 -20 -7 -20
-39 0 -30 -4 -40 -20 -44 -13 -3 -20 -14 -20 -30 0 -35 -10 -57 -25 -57 -8 0
-16 -17 -20 -40 -4 -23 -12 -40 -20 -40 -15 0 -25 -22 -25 -55 0 -14 -7 -25
-20 -28 -15 -4 -20 -14 -20 -40 0 -26 -5 -36 -20 -40 -11 -3 -20 -14 -20 -25
0 -11 -9 -22 -20 -25 -15 -4 -20 -14 -20 -41 0 -29 -4 -36 -20 -36 -14 0 -20
-7 -20 -24 0 -35 -10 -56 -26 -56 -7 0 -16 -11 -20 -25 -3 -14 -12 -25 -20
-25 -8 0 -16 -16 -20 -40 -5 -30 -11 -40 -25 -40 -15 0 -19 -8 -19 -40 0 -33
-3 -40 -20 -40 -13 0 -20 -7 -20 -19 0 -10 -9 -21 -20 -24 -15 -4 -20 -14 -20
-40 0 -27 -5 -37 -20 -42 -11 -3 -20 -15 -20 -25 0 -9 -8 -20 -19 -23 -11 -3
-21 -17 -25 -40 -4 -23 -13 -37 -26 -40 -15 -4 -20 -14 -20 -40 0 -26 -5 -36
-20 -40 -11 -3 -20 -14 -20 -25 0 -11 -9 -22 -20 -25 -15 -4 -20 -14 -20 -41
0 -29 -4 -36 -20 -36 -13 0 -20 -7 -20 -19 0 -10 -9 -21 -20 -24 -14 -4 -20
-14 -20 -32 0 -17 -10 -37 -25 -51 -16 -15 -25 -34 -25 -54 0 -23 -4 -30 -20
-30 -13 0 -20 -7 -20 -19 0 -10 -9 -21 -20 -24 -15 -4 -20 -14 -20 -40 0 -26
-5 -36 -20 -40 -11 -3 -20 -14 -20 -25 0 -11 -9 -22 -20 -25 -15 -4 -20 -14
-20 -41 0 -29 -4 -36 -20 -36 -13 0 -20 -7 -20 -19 0 -10 -8 -21 -19 -24 -12
-3 -21 -17 -25 -41 -4 -20 -13 -36 -20 -36 -16 0 -26 -22 -26 -55 0 -15 -7
-26 -20 -30 -11 -3 -20 -15 -20 -25 0 -9 -9 -20 -20 -23 -15 -4 -20 -14 -20
-41 0 -29 -4 -36 -20 -36 -13 0 -20 -7 -20 -19 0 -11 -9 -23 -20 -26 -13 -4
-20 -15 -20 -30 0 -13 -11 -36 -25 -51 -15 -16 -25 -39 -25 -55 0 -19 -5 -29
-15 -29 -9 0 -19 -8 -22 -17 -4 -10 -15 -24 -25 -31 -11 -8 -18 -26 -18 -44 0
-21 -6 -31 -20 -35 -16 -4 -20 -14 -20 -44 0 -32 -3 -39 -20 -39 -17 0 -20 -7
-20 -40 0 -33 -3 -40 -20 -40 -14 0 -21 -9 -26 -37 -4 -21 -15 -44 -26 -51
-11 -8 -18 -25 -18 -48 0 -27 -4 -34 -20 -34 -17 0 -20 -7 -20 -39 0 -30 -4
-40 -20 -44 -15 -4 -20 -14 -20 -40 0 -26 -5 -36 -20 -40 -16 -4 -20 -14 -20
-46 0 -34 -3 -41 -20 -41 -17 0 -20 -7 -20 -40 0 -33 -3 -40 -19 -40 -15 0
-21 -10 -26 -41 -4 -22 -13 -43 -21 -46 -8 -3 -17 -23 -20 -44 -4 -21 -12 -39
-19 -39 -15 0 -25 -31 -25 -81 0 -28 -5 -38 -20 -42 -16 -4 -20 -14 -20 -46 0
-34 -3 -41 -20 -41 -18 0 -20 -7 -20 -60 0 -53 -2 -60 -20 -60 -17 0 -20 -7
-20 -41 0 -32 -4 -42 -20 -46 -15 -4 -21 -17 -26 -64 -4 -37 -11 -59 -19 -59
-17 0 -25 -23 -25 -75 0 -35 -4 -45 -20 -50 -17 -5 -20 -15 -20 -66 0 -52 -2
-59 -20 -59 -18 0 -20 -7 -20 -59 0 -51 -3 -61 -20 -66 -18 -6 -20 -15 -20
-86 0 -72 -2 -79 -20 -79 -18 0 -20 -7 -20 -85 0 -76 -2 -85 -19 -85 -23 0
-31 -40 -31 -162 0 -52 -4 -88 -10 -88 -7 0 -10 -145 -10 -415 0 -270 3 -415
10 -415 6 0 10 -19 10 -42 0 -62 9 -88 31 -88 17 0 19 -8 19 -60 0 -53 2 -60
20 -60 17 0 20 -7 20 -41 0 -32 4 -42 20 -46 16 -4 20 -14 20 -48 0 -53 8 -75
26 -75 9 0 14 -12 14 -36 0 -27 5 -37 19 -41 12 -3 21 -17 25 -41 3 -21 15
-45 26 -54 11 -10 20 -30 20 -44 0 -17 6 -28 20 -31 11 -3 20 -14 20 -23 0
-10 9 -22 20 -25 15 -5 20 -15 20 -42 0 -26 5 -36 20 -40 16 -4 20 -14 20 -48
0 -53 8 -75 26 -75 12 0 14 -61 14 -372 0 -205 3 -383 6 -395 4 -13 13 -23 20
-23 10 0 14 -16 14 -62 0 -75 8 -108 25 -108 8 0 16 -21 20 -60 6 -50 10 -60
26 -60 16 0 19 -7 19 -41 0 -32 4 -42 20 -46 16 -4 20 -14 20 -44 0 -32 3 -39
20 -39 18 0 20 -7 20 -59 0 -51 3 -61 20 -66 15 -5 20 -15 20 -42 0 -26 5 -36
20 -40 17 -5 20 -14 20 -59 0 -40 4 -56 19 -66 12 -9 20 -32 25 -70 6 -48 11
-58 27 -58 17 0 19 -7 19 -59 0 -50 3 -59 20 -64 17 -4 20 -14 20 -62 0 -48 3
-58 20 -62 17 -5 20 -14 20 -63 0 -50 3 -60 20 -65 17 -5 20 -15 20 -62 0 -46
3 -56 20 -60 17 -5 20 -14 20 -67 0 -75 8 -106 26 -106 10 0 14 -13 14 -42 0
-78 11 -118 31 -118 17 0 19 -9 19 -101 0 -92 2 -101 20 -106 19 -5 20 -14 20
-168 0 -154 1 -163 20 -168 19 -5 20 -14 20 -187 0 -173 1 -182 20 -187 18 -5
20 -14 20 -73 0 -77 6 -100 26 -100 10 0 14 -13 14 -42 0 -66 11 -118 25 -118
7 0 16 -19 19 -45 6 -36 11 -45 27 -45 17 0 19 -7 19 -60 0 -53 2 -60 20 -60
18 0 20 -7 20 -55 0 -44 4 -56 20 -65 14 -8 20 -21 20 -46 0 -27 5 -37 20 -41
15 -4 20 -14 20 -40 0 -26 5 -36 20 -40 14 -4 20 -14 20 -33 0 -38 9 -60 25
-60 15 0 25 -22 25 -56 0 -17 6 -24 20 -24 16 0 20 -7 20 -36 0 -27 5 -37 20
-41 11 -3 20 -14 20 -25 0 -11 9 -22 20 -25 15 -4 20 -14 20 -40 0 -26 5 -36
19 -40 13 -3 22 -17 26 -44 4 -24 12 -39 21 -39 8 0 14 -6 14 -14 0 -7 11 -21
25 -30 17 -11 25 -26 25 -46 0 -20 6 -31 20 -35 11 -3 20 -15 20 -26 0 -12 7
-19 20 -19 16 0 20 -7 20 -36 0 -27 5 -37 20 -41 11 -3 20 -14 20 -24 0 -12 7
-19 20 -19 14 0 20 -7 20 -21 0 -12 8 -23 20 -26 13 -3 22 -17 26 -40 4 -23
14 -37 25 -40 11 -3 19 -14 19 -24 0 -12 7 -19 20 -19 13 0 20 -7 20 -20 0
-13 7 -20 20 -20 13 0 20 -7 20 -19 0 -11 9 -23 20 -26 14 -4 20 -15 20 -36 0
-22 7 -32 25 -41 14 -6 25 -17 25 -24 0 -7 9 -18 20 -24 11 -6 20 -17 20 -25
0 -8 9 -15 20 -15 13 0 20 -7 20 -20 0 -13 7 -20 20 -20 13 0 20 -7 20 -19 0
-11 9 -22 19 -26 10 -3 21 -15 24 -25 3 -11 12 -20 20 -20 8 0 17 -9 20 -20 3
-11 12 -20 20 -20 8 0 17 -9 20 -20 3 -11 12 -20 21 -20 9 0 16 -7 16 -15 0
-9 11 -20 25 -25 14 -5 25 -16 25 -25 0 -8 9 -15 20 -15 14 0 20 -7 20 -21 0
-12 8 -23 19 -26 11 -3 21 -13 24 -24 3 -10 12 -19 20 -19 10 0 17 -11 19 -32
2 -22 10 -36 25 -43 12 -5 24 -17 26 -27 3 -10 12 -18 20 -18 8 0 17 -9 20
-20 3 -11 12 -20 20 -20 8 0 17 -9 20 -20 3 -11 12 -20 20 -20 8 0 17 -9 20
-20 3 -11 11 -20 19 -20 7 0 18 -10 23 -22 7 -16 20 -24 41 -26 22 -2 34 -9
37 -23 3 -10 12 -19 21 -19 9 0 16 -7 16 -15 0 -9 11 -20 25 -25 14 -5 25 -16
25 -25 0 -8 9 -15 20 -15 14 0 20 -7 20 -21 0 -12 8 -23 19 -26 11 -3 21 -13
24 -24 3 -10 12 -19 20 -19 8 0 17 -9 20 -20 3 -11 12 -20 20 -20 8 0 17 -9
20 -20 3 -11 12 -20 20 -20 9 0 19 -9 22 -20 3 -11 15 -20 26 -20 12 0 19 -7
19 -20 0 -13 7 -20 20 -20 11 0 20 -7 20 -15 0 -8 9 -15 20 -15 15 0 20 -7 20
-25 0 -14 4 -25 9 -25 6 0 22 -11 37 -25 15 -14 30 -25 34 -25 4 0 10 -9 13
-20 4 -15 14 -20 41 -20 29 0 36 -4 36 -20 0 -13 7 -20 20 -20 13 0 20 -7 20
-20 0 -13 7 -20 20 -20 13 0 20 -7 20 -19 0 -11 9 -23 20 -26 11 -3 20 -12 20
-20 0 -8 9 -16 19 -20 11 -3 23 -15 26 -26 4 -10 15 -19 25 -19 9 0 20 -9 23
-20 4 -15 14 -20 41 -20 29 0 36 -4 36 -20 0 -13 7 -20 20 -20 13 0 20 -7 20
-20 0 -13 7 -20 20 -20 13 0 20 -7 20 -20 0 -11 6 -20 14 -20 7 0 21 -11 30
-25 9 -14 23 -25 31 -25 8 0 15 -6 15 -14 0 -8 9 -17 19 -21 10 -3 21 -15 24
-25 4 -15 14 -20 41 -20 29 0 36 -4 36 -20 0 -13 7 -20 20 -20 13 0 20 -7 20
-20 0 -13 7 -20 19 -20 10 0 21 -9 24 -21 3 -11 14 -23 25 -26 11 -3 22 -13
25 -24 3 -10 12 -19 20 -19 8 0 17 -9 20 -20 3 -11 12 -20 21 -20 9 0 16 -6
16 -14 0 -16 21 -26 56 -26 17 0 24 -6 24 -20 0 -13 7 -20 20 -20 13 0 20 -7
20 -20 0 -13 7 -20 18 -20 11 0 24 -11 30 -25 6 -14 18 -25 26 -25 7 0 16 -9
19 -20 3 -11 12 -20 21 -20 9 0 16 -7 16 -15 0 -9 7 -18 15 -21 22 -9 75 -60
75 -73 0 -6 16 -11 35 -11 25 0 35 -4 35 -15 0 -9 11 -20 24 -24 13 -5 26 -19
29 -30 3 -12 12 -21 20 -21 8 0 17 -9 20 -20 3 -11 12 -20 20 -20 8 0 17 -9
20 -20 3 -11 12 -20 20 -20 8 0 17 -9 20 -20 3 -11 14 -20 25 -20 11 0 22 -9
25 -20 3 -11 12 -20 20 -20 8 0 17 -9 20 -20 4 -15 14 -20 36 -20 24 0 34 -6
41 -25 5 -14 16 -25 24 -25 7 0 16 -9 19 -20 3 -11 12 -20 20 -20 8 0 17 -9
20 -20 3 -11 12 -20 20 -20 8 0 17 -9 20 -20 3 -11 12 -20 20 -20 8 0 17 -9
20 -20 3 -12 14 -20 26 -20 14 0 21 -6 21 -19 0 -10 9 -21 20 -24 15 -4 20
-14 20 -37 0 -23 5 -33 20 -37 11 -3 20 -14 20 -25 0 -11 8 -22 19 -25 11 -3
21 -13 24 -24 3 -10 12 -19 20 -19 8 0 17 -9 20 -20 3 -11 12 -20 21 -20 11 0
18 -13 22 -40 5 -30 11 -40 25 -40 13 0 19 -7 19 -21 0 -12 8 -23 20 -26 11
-3 20 -14 20 -24 0 -12 7 -19 20 -19 14 0 20 -7 20 -24 0 -34 10 -56 25 -56 7
0 15 -9 18 -20 3 -11 12 -20 20 -20 10 0 18 -14 22 -39 4 -27 13 -41 26 -44
11 -3 19 -14 19 -26 0 -14 6 -21 20 -21 16 0 20 -7 20 -36 0 -27 5 -37 20 -41
11 -3 20 -14 20 -24 0 -12 7 -19 20 -19 17 0 20 -7 20 -39 0 -31 4 -41 20 -46
13 -4 20 -15 20 -31 0 -13 8 -32 18 -42 10 -10 21 -26 25 -35 3 -9 13 -17 22
-17 9 0 15 -9 15 -26 0 -33 17 -64 35 -64 10 0 15 -11 15 -36 0 -27 5 -37 20
-41 16 -4 20 -14 20 -44 0 -32 3 -39 20 -39 17 0 20 -7 20 -39 0 -31 4 -41 20
-46 16 -5 20 -15 20 -51 0 -31 6 -50 20 -64 20 -20 20 -33 20 -1564 0 -849 3
-1558 6 -1575 4 -17 13 -31 20 -31 8 0 14 -10 14 -22 0 -43 12 -68 31 -68 15
0 19 -7 19 -39 0 -30 4 -40 20 -44 15 -4 20 -14 20 -42 0 -28 5 -38 19 -42 11
-3 21 -13 24 -24 3 -10 12 -19 21 -19 9 0 16 -8 16 -20 0 -13 7 -20 19 -20 10
0 21 -9 24 -20 3 -12 14 -20 26 -20 14 0 21 -6 21 -19 0 -15 10 -21 40 -26 25
-4 40 -12 40 -21 0 -8 8 -18 17 -21 9 -4 25 -15 35 -25 13 -13 33 -18 68 -18
43 0 50 -3 50 -20 0 -18 7 -20 79 -20 71 0 80 -2 86 -20 6 -20 15 -20 542 -20
526 0 535 0 540 20 5 19 14 20 145 20 131 0 140 1 145 20 5 18 14 20 85 20 71
0 80 2 85 20 4 15 14 20 42 20 51 0 81 10 81 26 0 8 10 14 23 14 42 0 67 12
67 31 0 15 7 19 40 19 33 0 40 3 40 20 0 13 7 20 20 20 13 0 20 7 20 20 0 15
7 20 28 20 32 0 46 9 55 33 3 9 13 17 21 17 8 0 17 15 21 36 4 24 13 38 26 41
14 4 19 14 19 43 0 29 4 39 20 43 17 4 20 14 20 65 0 51 3 60 20 65 19 5 20
14 20 270 0 256 1 265 20 270 18 5 20 14 20 100 0 119 9 187 25 187 15 0 25
45 25 111 0 38 4 51 20 59 16 9 20 21 20 64 0 45 3 54 20 59 17 4 20 14 20 66
0 54 2 61 20 61 18 0 20 7 20 60 0 53 2 60 20 60 17 0 20 7 20 41 0 32 4 42
20 46 15 4 20 14 20 42 0 50 10 81 25 81 15 0 25 22 25 55 0 14 7 25 20 28 15
4 20 14 20 40 0 27 5 37 20 42 16 5 20 15 20 46 0 32 3 39 20 39 13 0 20 7 20
19 0 10 9 21 20 24 15 4 20 14 20 41 0 29 4 36 20 36 13 0 20 7 20 19 0 11 9
22 19 26 11 3 23 15 26 26 4 10 12 19 20 19 8 0 16 17 20 40 5 30 11 40 26 40
12 0 19 7 19 20 0 13 7 20 20 20 13 0 20 7 20 20 0 13 7 20 20 20 13 0 20 7
20 20 0 12 7 20 16 20 9 0 18 8 21 19 2 10 16 24 29 30 13 6 24 17 24 26 0 11
10 15 35 15 19 0 35 4 35 9 0 12 54 67 74 74 9 4 16 13 16 22 0 8 9 15 20 15
13 0 20 7 20 19 0 15 10 21 39 26 27 4 41 13 44 26 3 11 14 19 26 19 14 0 21
6 21 20 0 13 7 20 20 20 13 0 20 7 20 20 0 16 7 20 36 20 27 0 37 5 41 20 3
11 14 20 23 20 10 0 22 9 25 20 3 11 13 20 22 20 8 0 17 9 20 20 3 13 17 22
40 26 23 4 37 14 40 25 3 11 14 19 24 19 12 0 19 7 19 20 0 13 7 20 19 20 10
0 21 9 24 20 4 15 14 20 37 20 23 0 33 5 37 20 3 11 14 20 25 20 11 0 22 9 25
20 3 11 12 20 20 20 8 0 17 9 20 19 3 11 13 21 24 24 11 3 19 14 19 26 0 14 6
21 20 21 11 0 20 7 20 15 0 9 8 19 18 22 23 9 32 23 32 54 0 18 6 28 20 32 15
4 20 14 20 40 0 27 5 37 20 42 16 5 20 15 20 46 0 32 3 39 20 39 19 0 20 7 20
206 0 197 -1 206 -20 211 -13 3 -20 14 -20 28 0 42 -11 55 -45 55 -24 0 -34 5
-38 20 -3 12 -14 20 -26 20 -14 0 -21 6 -21 19 0 15 -10 21 -40 26 -25 4 -40
12 -40 21 0 8 -8 18 -17 21 -9 4 -25 15 -35 25 -10 10 -29 18 -42 18 -15 0
-26 7 -29 20 -3 12 -14 20 -26 20 -14 0 -21 6 -21 20 0 13 -7 20 -19 20 -10 0
-21 9 -24 20 -4 15 -14 20 -41 20 -29 0 -36 4 -36 19 0 12 -9 21 -25 25 -14 4
-25 13 -25 20 0 9 -15 17 -39 21 -27 4 -41 13 -44 26 -4 14 -14 19 -41 19 -29
0 -36 4 -36 20 0 17 -7 20 -40 20 -33 0 -40 3 -40 20 0 14 -7 20 -24 20 -15 0
-26 7 -29 20 -4 15 -14 20 -41 20 -29 0 -36 4 -36 20 0 15 -9 21 -39 26 -27 4
-41 12 -44 25 -3 11 -14 19 -26 19 -12 0 -21 6 -21 14 0 16 -21 26 -56 26 -17
0 -24 6 -24 20 0 17 -7 20 -40 20 -33 0 -40 3 -40 20 0 13 -7 20 -19 20 -11 0
-23 9 -26 20 -5 15 -15 20 -42 20 -27 0 -36 5 -40 20 -4 14 -17 22 -44 26 -24
4 -39 12 -39 21 0 7 -8 17 -17 20 -9 4 -25 15 -35 25 -10 10 -29 18 -42 18
-15 0 -26 7 -29 20 -4 16 -14 20 -46 20 -34 0 -41 3 -41 20 0 13 -7 20 -19 20
-10 0 -21 9 -24 20 -4 15 -14 20 -41 20 -29 0 -36 4 -36 20 0 15 -9 21 -40 26
-26 4 -41 13 -45 25 -4 11 -15 19 -26 19 -10 0 -19 6 -19 14 0 16 -21 26 -55
26 -14 0 -25 7 -28 20 -4 15 -14 20 -40 20 -26 0 -36 5 -40 20 -4 16 -14 20
-46 20 -34 0 -41 3 -41 20 0 13 -7 20 -19 20 -10 0 -21 8 -24 18 -2 11 -17 22
-35 25 -17 4 -41 16 -52 27 -11 11 -33 20 -49 20 -20 0 -30 6 -34 20 -4 15
-14 20 -41 20 -29 0 -36 4 -36 20 0 17 -7 20 -40 20 -33 0 -40 3 -40 20 0 17
-7 20 -39 20 -30 0 -40 4 -44 20 -3 11 -14 20 -25 20 -11 0 -22 8 -25 19 -3
12 -17 21 -41 25 -20 4 -36 13 -36 20 0 16 -22 26 -55 26 -15 0 -26 7 -30 20
-5 16 -15 20 -46 20 -32 0 -39 3 -39 20 0 13 -7 20 -19 20 -10 0 -21 9 -24 20
-4 15 -14 20 -40 20 -26 0 -36 5 -40 20 -4 15 -14 20 -41 20 -20 0 -36 4 -36
9 0 19 -32 41 -60 41 -19 0 -29 6 -33 20 -3 11 -12 20 -20 20 -8 0 -17 9 -20
20 -4 15 -14 20 -40 20 -27 0 -37 5 -42 20 -5 16 -15 20 -46 20 -32 0 -39 3
-39 20 0 13 -7 20 -20 20 -13 0 -20 7 -20 20 0 17 -7 20 -40 20 -33 0 -40 4
-40 19 0 12 -9 21 -25 25 -14 4 -25 13 -25 20 0 9 -15 17 -39 21 -27 4 -41 13
-44 26 -4 14 -14 19 -41 19 -29 0 -36 4 -36 20 0 14 -7 20 -21 20 -12 0 -23 8
-26 20 -4 15 -14 20 -40 20 -26 0 -36 5 -40 20 -3 11 -13 20 -23 20 -10 0 -20
8 -23 19 -3 12 -17 21 -41 25 -20 4 -36 13 -36 20 0 16 -22 26 -55 26 -14 0
-25 7 -28 20 -3 11 -14 20 -25 20 -11 0 -22 9 -25 20 -4 15 -14 20 -41 20 -29
0 -36 4 -36 20 0 13 -7 20 -19 20 -10 0 -21 9 -24 20 -4 15 -14 20 -40 20 -27
0 -36 5 -40 21 -3 11 -15 23 -26 26 -12 3 -21 11 -21 18 0 8 -17 16 -40 20
-25 4 -40 12 -40 21 0 8 -8 18 -18 21 -9 4 -23 15 -30 25 -7 10 -26 18 -41 18
-20 0 -30 6 -34 20 -3 12 -14 20 -26 20 -14 0 -21 6 -21 20 0 16 -7 20 -36 20
-27 0 -37 5 -41 20 -3 10 -14 22 -24 25 -10 4 -19 12 -19 20 0 15 -22 25 -55
25 -14 0 -25 7 -28 20 -3 12 -14 20 -26 20 -14 0 -21 6 -21 20 0 13 -7 20 -19
20 -10 0 -21 9 -24 20 -4 15 -14 20 -41 20 -29 0 -36 4 -36 20 0 13 -7 20 -20
20 -11 0 -20 7 -20 15 0 9 -11 21 -25 27 -14 6 -25 17 -25 24 0 7 -18 15 -40
19 -30 5 -40 11 -40 26 0 12 -7 19 -19 19 -10 0 -21 9 -24 20 -3 11 -12 20
-20 20 -9 0 -19 9 -22 20 -5 15 -15 20 -41 20 -24 0 -34 5 -34 15 0 9 -11 20
-24 24 -13 5 -26 19 -29 30 -3 12 -12 21 -21 21 -9 0 -16 7 -16 15 0 9 -8 19
-17 22 -10 4 -24 15 -31 25 -8 10 -26 18 -43 18 -22 0 -29 5 -29 20 0 13 -7
20 -19 20 -10 0 -21 9 -24 20 -3 12 -14 20 -26 20 -14 0 -21 6 -21 20 0 13 -7
20 -20 20 -13 0 -20 7 -20 20 0 11 -7 20 -15 20 -8 0 -19 9 -25 20 -6 10 -26
22 -45 26 -21 4 -35 12 -35 21 0 8 -9 17 -20 20 -10 3 -22 14 -25 24 -4 10
-15 19 -26 19 -12 0 -19 7 -19 20 0 13 -7 20 -20 20 -13 0 -20 7 -20 20 0 13
-7 20 -20 20 -12 0 -20 7 -20 16 0 9 -9 18 -20 21 -10 3 -22 14 -25 24 -4 10
-13 19 -21 19 -8 0 -18 8 -21 17 -9 24 -23 33 -51 33 -15 0 -26 7 -29 20 -3
11 -14 20 -24 20 -12 0 -19 7 -19 20 0 13 -7 20 -20 20 -13 0 -20 7 -20 20 0
11 -7 20 -15 20 -9 0 -20 11 -25 25 -5 14 -16 25 -25 25 -8 0 -15 7 -15 16 0
9 -9 18 -20 21 -11 3 -20 12 -20 19 0 8 -8 18 -18 21 -23 9 -32 23 -32 51 0
15 -7 26 -20 29 -11 3 -20 14 -20 24 0 12 -7 19 -20 19 -13 0 -20 7 -20 20 0
11 -7 20 -15 20 -9 0 -20 11 -25 25 -5 14 -16 25 -24 25 -8 0 -17 15 -21 36
-4 24 -13 38 -26 41 -10 3 -19 14 -19 24 0 12 -7 19 -20 19 -13 0 -20 7 -20
20 0 13 -7 20 -20 20 -17 0 -20 7 -20 40 0 33 -3 40 -20 40 -14 0 -20 7 -20
21 0 12 -8 23 -20 26 -11 3 -20 14 -20 24 0 12 -7 19 -20 19 -16 0 -20 7 -20
36 0 27 -5 37 -20 41 -11 3 -20 11 -20 17 0 7 -11 22 -25 34 -16 14 -25 32
-25 52 0 23 -4 30 -20 30 -16 0 -20 7 -20 36 0 27 -5 37 -20 41 -11 3 -20 14
-20 24 0 12 -7 19 -20 19 -17 0 -20 7 -20 41 0 32 -4 42 -19 46 -12 3 -21 17
-26 39 -3 19 -13 38 -21 41 -7 3 -14 12 -14 19 0 8 -8 18 -18 21 -23 9 -32 23
-32 55 0 18 -7 29 -20 33 -15 5 -20 15 -20 40 0 25 -5 35 -20 40 -11 3 -20 15
-20 26 0 12 -7 19 -20 19 -17 0 -20 7 -20 40 0 33 -3 40 -20 40 -17 0 -20 7
-20 41 0 32 -4 42 -20 46 -14 4 -20 14 -20 32 0 31 -9 45 -32 54 -13 4 -18 17
-18 42 0 28 -4 35 -20 35 -17 0 -20 7 -20 41 0 32 -4 42 -20 46 -16 4 -20 14
-20 44 0 32 -3 39 -20 39 -17 0 -20 7 -20 44 0 54 -8 76 -26 76 -9 0 -14 11
-14 30 0 17 -9 39 -20 50 -11 11 -20 29 -20 39 0 29 -11 51 -25 51 -13 0 -25
43 -25 92 0 21 -6 31 -20 35 -17 5 -20 14 -20 60 0 46 -3 56 -20 60 -17 5 -20
14 -20 63 0 50 -3 60 -20 65 -17 5 -20 15 -20 62 0 46 -3 56 -20 60 -17 5 -20
14 -20 59 0 43 -4 56 -20 66 -15 9 -20 24 -20 53 0 75 -11 115 -31 115 -17 0
-19 8 -19 61 0 52 -3 62 -20 66 -18 5 -20 14 -20 80 0 66 -2 75 -20 80 -17 5
-20 14 -20 65 0 51 -3 61 -20 65 -18 5 -20 14 -20 85 0 71 -2 80 -20 85 -18 5
-20 14 -20 80 0 66 -2 75 -20 80 -17 5 -20 14 -20 72 0 101 -9 141 -31 141
-17 0 -19 9 -19 81 0 72 -2 81 -20 86 -18 5 -20 14 -20 103 0 90 -2 99 -20
105 -18 6 -20 15 -20 105 0 90 -2 99 -20 105 -19 6 -20 15 -20 156 0 136 -2
151 -20 169 -19 19 -20 33 -20 249 0 126 -3 236 -6 245 -3 9 -12 16 -20 16
-12 0 -14 72 -14 450 0 437 1 451 20 470 19 19 20 33 20 214 0 185 1 194 20
199 19 5 20 14 20 125 0 111 1 120 20 125 18 5 20 14 20 86 0 74 2 81 20 81
18 0 20 7 20 59 0 51 3 61 20 66 17 5 20 15 20 66 0 52 2 59 19 59 16 0 21 10
27 57 4 32 13 63 21 68 8 6 17 36 20 67 4 44 10 57 24 61 14 4 19 14 19 40 0
26 5 36 20 40 15 4 20 14 20 40 0 27 5 37 20 42 16 5 20 15 20 46 0 32 3 39
20 39 17 0 20 7 20 40 0 33 3 40 20 40 15 0 21 9 26 39 4 27 12 41 25 44 11 3
19 14 19 26 0 12 6 21 14 21 16 0 26 21 26 56 0 17 6 24 20 24 13 0 20 7 20
19 0 10 9 21 20 24 15 4 20 14 20 41 0 26 4 36 15 36 9 0 20 11 25 25 5 14 16
25 23 25 9 0 17 15 21 40 4 26 11 40 21 40 9 0 19 8 22 18 4 9 15 23 25 30 10
7 18 26 18 41 0 20 6 30 20 34 11 3 20 12 20 20 0 9 9 19 20 22 11 3 20 15 20
25 0 9 9 20 20 23 15 4 20 14 20 41 0 30 4 36 21 36 12 0 23 8 26 20 3 11 12
20 19 20 8 0 18 8 21 18 4 9 15 23 25 30 10 7 18 19 18 26 0 8 9 16 20 19 15
4 20 14 20 41 0 29 4 36 20 36 13 0 20 7 20 20 0 13 7 20 20 20 13 0 20 7 20
20 0 13 7 20 19 20 12 0 21 9 25 25 4 14 13 25 21 25 8 0 17 15 21 36 4 24 13
38 25 41 11 3 19 14 19 24 0 12 7 19 20 19 13 0 20 7 20 20 0 13 7 20 20 20
16 0 20 7 20 30 0 23 4 30 20 30 11 0 20 5 20 10 0 6 7 10 15 10 9 0 21 11 27
25 6 14 17 25 25 25 7 0 13 9 13 20 0 13 7 20 19 20 21 0 31 19 31 56 0 17 6
24 20 24 13 0 20 7 20 20 0 13 7 20 20 20 13 0 20 7 20 20 0 13 7 20 20 20 13
0 20 7 20 19 0 10 9 21 21 24 11 3 23 15 26 26 3 12 12 21 20 21 8 0 17 9 20
20 3 11 12 20 19 20 8 0 17 7 21 16 7 19 62 74 73 74 4 0 10 9 13 20 3 11 12
20 21 20 10 0 16 9 16 25 0 15 11 36 25 49 14 13 25 28 25 35 0 6 9 11 20 11
13 0 20 7 20 20 0 13 7 20 20 20 13 0 20 7 20 20 0 13 7 20 20 20 13 0 20 7
20 20 0 13 7 20 20 20 13 0 20 7 20 20 0 11 5 20 10 20 14 0 80 66 80 80 0 5
9 10 20 10 13 0 20 7 20 20 0 13 7 20 20 20 13 0 20 7 20 20 0 13 7 20 20 20
13 0 20 7 20 19 0 14 10 20 40 25 31 5 40 11 40 26 0 13 7 20 20 20 11 0 20 7
20 15 0 9 11 20 25 25 14 5 25 16 25 24 0 7 9 16 20 19 11 3 20 12 20 21 0 9
8 16 20 16 13 0 20 7 20 20 0 13 7 20 20 20 13 0 20 7 20 19 0 14 10 20 40 25
26 4 40 12 40 21 0 8 11 17 25 21 16 4 25 13 25 25 0 12 7 19 20 19 13 0 20 7
20 20 0 17 7 20 40 20 33 0 40 3 40 20 0 13 7 20 19 20 11 0 23 9 26 20 5 15
15 20 42 20 26 0 36 5 40 20 4 15 14 20 40 20 26 0 36 5 40 19 3 13 17 22 44
26 29 5 39 11 39 26 0 13 7 19 21 19 12 0 23 8 26 20 4 15 14 20 40 20 26 0
36 5 40 20 4 15 14 20 40 20 26 0 36 5 40 20 3 11 14 20 24 20 12 0 19 7 19
19 0 14 10 20 40 25 26 4 40 12 40 21 0 8 11 17 25 21 16 4 25 13 25 25 0 12
7 19 20 19 13 0 20 7 20 20 0 17 7 20 40 20 33 0 40 3 40 20 0 13 7 20 19 20
11 0 22 9 26 19 3 10 15 21 25 24 11 3 20 12 20 20 0 9 14 17 35 21 19 4 39
16 45 26 6 11 17 20 25 20 8 0 15 9 15 20 0 13 7 20 19 20 11 0 23 9 26 20 5
15 15 20 41 20 24 0 34 5 34 15 0 9 11 20 25 25 14 5 25 16 25 25 0 9 9 15 24
15 35 0 56 10 56 26 0 8 8 14 19 14 10 0 21 8 24 19 3 12 17 20 46 25 26 4 41
11 41 21 0 10 18 16 60 21 50 5 60 10 60 25 0 17 9 19 81 19 72 0 81 2 86 20
5 18 14 20 83 20 70 0 79 2 85 20 6 18 15 20 86 20 72 0 79 2 79 20 0 17 7 20
45 20 32 0 45 -4 45 -14 0 -16 21 -26 56 -26 17 0 24 -6 24 -20 0 -13 7 -20
19 -20 10 0 21 -9 24 -20 4 -15 14 -20 41 -20 29 0 36 -4 36 -20 0 -13 7 -20
20 -20 11 0 20 -7 20 -15 0 -9 11 -21 25 -27 14 -6 25 -17 25 -24 0 -7 18 -15
40 -19 25 -4 40 -12 40 -21 0 -8 8 -18 18 -21 9 -4 23 -15 30 -25 8 -10 26
-18 43 -18 19 0 29 -5 29 -15 0 -9 11 -20 25 -25 14 -5 25 -16 25 -25 0 -8 9
-15 20 -15 12 0 20 -7 20 -16 0 -9 9 -18 20 -21 11 -3 20 -14 20 -24 0 -12 7
-19 20 -19 14 0 20 -7 20 -21 0 -12 8 -23 20 -26 11 -3 20 -12 20 -20 0 -8 9
-17 19 -20 13 -3 22 -17 26 -44 4 -22 12 -39 20 -39 8 0 16 -17 20 -40 4 -23
12 -40 20 -40 13 0 25 -30 25 -67 0 -16 6 -23 20 -23 19 0 20 -7 20 -210 0
-198 -1 -210 -19 -210 -16 0 -19 -11 -24 -92 -3 -51 -3 -124 0 -162 5 -56 9
-70 24 -73 11 -3 19 -14 19 -24 0 -12 7 -19 20 -19 13 0 20 -7 20 -19 0 -16
10 -20 65 -26 42 -5 65 -12 65 -20 0 -22 38 -25 353 -25 256 0 307 -2 307 -14
0 -23 24 -26 210 -26 184 0 210 3 210 25 0 8 24 14 76 17 62 4 78 9 90 27 10
13 26 21 46 21 21 0 31 6 35 20 3 11 14 20 24 20 12 0 19 7 19 20 0 13 7 20
20 20 11 0 20 6 20 14 0 7 11 21 25 30 14 9 25 23 25 31 0 8 6 15 13 15 7 0
18 9 25 20 7 11 19 20 27 20 8 0 15 6 15 14 0 16 21 26 56 26 17 0 24 6 24 20
0 19 7 20 210 20 203 0 210 1 210 20 0 18 7 20 76 20 67 0 76 2 81 20 4 16 14
20 45 20 31 0 41 4 45 20 4 15 14 20 42 20 50 0 81 10 81 25 0 7 17 15 38 18
20 4 45 16 54 27 11 12 30 20 48 20 23 0 30 4 30 20 0 17 7 20 39 20 30 0 40
4 44 20 4 15 14 20 42 20 28 0 38 5 42 20 3 13 14 20 28 20 34 0 55 10 55 26
0 8 8 14 19 14 10 0 21 9 24 20 3 13 14 20 30 20 35 0 57 10 57 25 0 13 43 25
87 25 16 0 27 7 30 20 5 17 14 20 65 20 51 0 61 3 65 20 5 17 14 20 60 20 46
0 56 3 60 20 4 17 14 20 54 20 37 0 54 5 66 20 10 11 27 20 39 20 33 0 54 10
54 26 0 9 11 14 29 14 16 0 39 10 55 25 16 15 39 25 57 25 22 0 29 5 29 20 0
17 7 20 40 20 33 0 40 3 40 20 0 17 7 20 39 20 30 0 40 4 44 20 4 15 14 20 36
20 20 0 34 7 41 19 5 11 19 23 30 26 11 3 20 13 20 22 0 8 9 17 20 20 11 3 20
13 20 23 0 10 9 20 20 23 15 4 20 14 20 41 0 29 4 36 19 36 20 0 31 19 31 55
0 14 7 25 20 28 18 5 20 14 20 82 0 65 -3 78 -18 82 -10 2 -22 14 -27 26 -7
16 -20 23 -46 25 -27 2 -38 9 -42 23 -4 14 -14 19 -41 19 -26 0 -36 4 -36 16
0 9 -9 18 -20 21 -10 3 -22 14 -25 24 -4 10 -13 19 -20 19 -8 0 -17 15 -21 36
-4 24 -13 38 -25 41 -15 4 -19 15 -19 45 0 31 -4 41 -20 45 -16 4 -20 14 -20
44 0 32 -3 39 -20 39 -16 0 -20 7 -20 36 0 27 -5 37 -20 41 -13 3 -20 14 -20
28 0 34 -10 55 -26 55 -8 0 -14 10 -14 23 0 38 -12 67 -26 67 -12 0 -14 40
-14 223 0 211 1 223 20 235 14 8 20 23 20 46 0 25 5 35 20 39 15 4 20 14 20
41 0 26 4 36 16 36 9 0 18 9 21 19 3 11 13 21 24 24 11 3 19 14 19 25 0 11 9
22 20 25 15 4 20 14 20 41 0 30 4 36 21 36 12 0 23 8 26 20 4 16 14 20 52 20
26 0 52 5 58 11 8 8 13 8 17 0 4 -6 32 -11 62 -11 50 0 54 -2 54 -24 0 -35 10
-56 26 -56 8 0 14 -9 14 -19 0 -11 8 -22 19 -26 12 -4 21 -19 25 -45 5 -31 11
-40 26 -40 16 0 20 -7 20 -36 0 -27 5 -37 20 -41 11 -3 20 -14 20 -24 0 -12 7
-19 20 -19 13 0 20 -7 20 -20 0 -12 7 -20 16 -20 9 0 18 -9 21 -20 3 -10 13
-22 23 -25 10 -3 20 -15 23 -25 3 -11 12 -20 20 -20 9 0 19 -9 22 -20 3 -11
15 -20 26 -20 15 0 19 -7 19 -36 0 -27 5 -37 20 -41 11 -3 20 -14 20 -23 0
-10 9 -22 20 -25 14 -4 20 -15 20 -35 0 -16 8 -35 18 -42 10 -7 21 -21 25 -30
3 -10 13 -18 22 -18 11 0 15 -10 15 -36 0 -27 5 -37 20 -41 13 -4 20 -14 20
-30 0 -32 17 -63 35 -63 11 0 15 -12 15 -40 0 -33 3 -40 20 -40 18 0 20 -7 20
-56 0 -47 3 -57 20 -61 16 -4 20 -14 20 -45 0 -31 4 -41 20 -45 18 -5 20 -14
20 -105 0 -91 2 -100 20 -105 19 -5 20 -14 20 -248 0 -235 -1 -244 -20 -250
-19 -6 -20 -15 -20 -171 0 -133 -3 -164 -14 -164 -8 0 -17 -7 -20 -16 -3 -9
-6 -128 -6 -266 0 -241 1 -250 20 -255 19 -5 20 -14 20 -129 0 -99 -3 -124
-14 -124 -23 0 -26 -24 -26 -180 0 -139 -1 -148 -20 -153 -19 -5 -20 -14 -20
-125 0 -111 -1 -120 -20 -125 -18 -5 -20 -14 -20 -106 0 -92 -2 -101 -19 -101
-22 0 -31 -26 -31 -87 0 -30 -4 -43 -14 -43 -13 0 -26 -41 -26 -86 0 -13 -9
-33 -20 -44 -15 -15 -20 -33 -20 -70 0 -43 -3 -50 -20 -50 -17 0 -20 -7 -20
-39 0 -30 -4 -40 -20 -44 -15 -4 -20 -14 -20 -40 0 -26 -5 -36 -20 -40 -15 -4
-20 -14 -20 -42 0 -28 -5 -38 -20 -42 -10 -3 -22 -14 -25 -24 -4 -10 -12 -19
-20 -19 -8 0 -16 -17 -20 -40 -4 -25 -12 -40 -21 -40 -8 0 -19 -11 -23 -24 -5
-13 -17 -26 -25 -29 -10 -4 -16 -18 -16 -36 0 -20 -6 -30 -20 -34 -12 -3 -20
-14 -20 -26 0 -14 -6 -21 -20 -21 -13 0 -20 -7 -20 -20 0 -13 -7 -20 -19 -20
-11 0 -23 -9 -26 -20 -3 -11 -13 -20 -22 -20 -8 0 -17 -9 -20 -20 -3 -11 -12
-20 -20 -20 -8 0 -17 -9 -20 -20 -3 -11 -12 -20 -20 -20 -8 0 -17 -9 -20 -20
-3 -13 -17 -22 -40 -26 -23 -4 -37 -14 -40 -25 -3 -11 -14 -19 -24 -19 -11 0
-19 -7 -19 -15 0 -9 -11 -20 -25 -25 -14 -5 -25 -16 -25 -25 0 -11 -10 -15
-36 -15 -27 0 -37 -5 -41 -20 -3 -11 -12 -20 -20 -20 -8 0 -17 -9 -20 -19 -3
-13 -17 -22 -44 -26 -22 -4 -39 -12 -39 -20 0 -7 -11 -16 -25 -19 -16 -4 -25
-13 -25 -26 0 -16 -7 -20 -36 -20 -27 0 -37 -5 -41 -20 -3 -11 -14 -20 -24
-20 -12 0 -19 -7 -19 -20 0 -17 -7 -20 -39 -20 -31 0 -41 -4 -46 -20 -4 -13
-15 -20 -31 -20 -13 0 -33 -9 -43 -19 -10 -10 -33 -22 -51 -26 -17 -4 -34 -13
-37 -21 -2 -7 -13 -16 -23 -19 -10 -3 -20 -15 -23 -25 -4 -15 -14 -20 -42 -20
-28 0 -38 -5 -42 -20 -4 -16 -14 -20 -44 -20 -32 0 -39 -3 -39 -20 0 -17 -7
-20 -40 -20 -33 0 -40 -3 -40 -20 0 -17 -7 -20 -41 -20 -32 0 -42 -4 -46 -20
-3 -13 -14 -20 -28 -20 -33 0 -55 -10 -55 -25 0 -7 -18 -15 -40 -19 -31 -5
-40 -11 -40 -26 0 -17 -7 -20 -45 -20 -38 0 -45 -3 -45 -20 0 -18 -7 -20 -56
-20 -47 0 -57 -3 -61 -20 -4 -16 -14 -20 -43 -20 -29 0 -39 -4 -43 -20 -4 -15
-14 -20 -42 -20 -28 0 -38 -5 -42 -20 -4 -14 -14 -20 -33 -20 -47 0 -90 -12
-90 -25 0 -8 -18 -16 -41 -20 -29 -5 -43 -13 -46 -26 -4 -16 -15 -19 -60 -19
-46 0 -56 -3 -60 -20 -4 -16 -14 -20 -43 -20 -30 0 -40 -5 -45 -20 -5 -15 -15
-20 -42 -20 -26 0 -36 -5 -40 -20 -4 -16 -14 -20 -48 -20 -53 0 -75 -8 -75
-26 0 -9 -11 -14 -30 -14 -17 0 -39 -9 -50 -20 -11 -11 -29 -20 -39 -20 -33 0
-51 -11 -51 -31 0 -17 -8 -19 -59 -19 -51 0 -61 -3 -66 -20 -5 -17 -15 -20
-62 -20 -46 0 -56 -3 -60 -20 -5 -17 -14 -20 -63 -20 -49 0 -58 -3 -63 -20 -4
-17 -14 -20 -62 -20 -47 0 -58 -3 -62 -19 -4 -15 -17 -19 -80 -23 -56 -4 -78
-9 -85 -22 -7 -12 -23 -16 -62 -16 -93 0 -145 -11 -151 -31 -6 -18 -24 -19
-401 -19 -377 0 -394 1 -394 19 0 22 -55 31 -197 31 -73 0 -93 3 -93 14 0 19
-32 26 -123 26 -70 0 -79 2 -84 20 -5 18 -14 20 -83 20 -69 0 -78 2 -83 20 -4
16 -14 20 -45 20 -31 0 -41 4 -45 20 -4 15 -14 20 -40 20 -26 0 -36 5 -40 20
-4 15 -14 20 -41 20 -29 0 -36 4 -36 20 0 11 -6 20 -13 20 -7 0 -23 11 -35 25
-12 14 -26 25 -31 25 -5 0 -11 9 -14 20 -3 11 -12 20 -20 20 -8 0 -17 9 -20
20 -3 11 -12 20 -21 20 -9 0 -16 8 -16 20 0 13 -7 20 -20 20 -13 0 -20 7 -20
20 0 13 -7 20 -20 20 -14 0 -20 7 -20 24 0 35 -10 56 -26 56 -8 0 -18 8 -21
18 -9 23 -23 32 -55 32 -21 0 -28 5 -28 20 0 17 -7 20 -40 20 -33 0 -40 3 -40
20 0 18 -7 20 -64 20 -55 0 -64 3 -69 20 -5 18 -14 20 -100 20 -86 0 -95 -2
-100 -20 -4 -17 -14 -20 -62 -20 -48 0 -58 -3 -62 -20 -3 -10 -14 -22 -24 -25
-11 -4 -19 -16 -19 -28 0 -27 -10 -42 -32 -50 -10 -3 -18 -16 -18 -27 0 -11
-7 -20 -15 -20 -8 0 -17 -15 -21 -37 -4 -21 -15 -44 -26 -51 -10 -8 -18 -25
-18 -42 0 -19 -7 -33 -20 -40 -17 -9 -20 -21 -20 -85 0 -68 -2 -75 -20 -75
-19 0 -20 -7 -20 -141 0 -132 1 -141 20 -146 16 -4 20 -14 20 -44 0 -32 3 -39
20 -39 17 0 20 -7 20 -41 0 -32 4 -42 19 -46 11 -3 21 -13 24 -24 3 -10 12
-19 21 -19 9 0 16 -5 16 -10 0 -13 66 -80 79 -80 5 0 11 -9 14 -20 3 -11 12
-20 21 -20 9 0 16 -7 16 -15 0 -9 7 -18 15 -21 22 -9 75 -60 75 -73 0 -6 9
-11 20 -11 13 0 20 -7 20 -19 0 -14 10 -20 39 -25 27 -4 40 -12 44 -26 3 -11
12 -20 20 -20 8 0 17 -9 20 -20 3 -11 12 -20 20 -20 8 0 17 -9 20 -20 3 -11
12 -20 20 -20 9 0 19 -9 22 -20 3 -11 15 -20 25 -20 9 0 20 -9 23 -20 4 -15
14 -20 41 -20 29 0 36 -4 36 -20 0 -12 7 -20 16 -20 9 0 18 -9 21 -20 4 -14
17 -22 44 -26 24 -4 39 -12 39 -21 0 -7 11 -18 25 -23 14 -5 25 -16 25 -25 0
-11 11 -15 40 -15 33 0 40 -3 40 -20 0 -13 7 -20 19 -20 10 0 21 -9 24 -20 4
-15 14 -20 40 -20 26 0 37 -5 42 -19 4 -12 19 -21 45 -25 25 -4 40 -12 40 -21
0 -8 15 -17 36 -21 20 -4 45 -15 55 -25 13 -13 33 -19 63 -19 36 0 46 -4 51
-20 5 -15 15 -20 45 -20 29 0 39 -4 43 -20 4 -17 14 -20 66 -20 54 0 61 -2 61
-20 0 -18 7 -20 79 -20 68 0 79 -2 83 -18 6 -22 51 -32 146 -32 46 0 62 -4 62
-14 0 -21 23 -26 120 -26 79 0 88 -2 93 -20 5 -18 14 -20 105 -20 91 0 100 -2
105 -20 5 -18 14 -20 100 -20 86 0 95 -2 100 -20 5 -18 14 -20 86 -20 74 0 81
-2 81 -20 0 -18 7 -20 65 -20 57 0 65 -2 65 -19 0 -14 10 -20 46 -25 26 -3 62
-6 80 -6 22 0 34 -5 34 -14 0 -16 30 -26 86 -26 33 0 43 -4 47 -20 4 -17 14
-20 60 -20 46 0 55 -3 60 -20 4 -17 14 -20 66 -20 54 0 61 -2 61 -20 0 -17 7
-20 39 -20 31 0 41 -4 46 -20 5 -17 15 -20 60 -20 45 0 55 -3 60 -20 4 -14 19
-22 46 -26 23 -4 39 -12 39 -20 0 -7 16 -16 38 -20 20 -4 45 -15 55 -25 13
-14 32 -19 67 -19 43 0 50 -3 50 -20 0 -17 7 -20 39 -20 30 0 40 -4 44 -20 4
-16 14 -20 45 -20 31 0 41 -4 45 -20 4 -17 14 -20 61 -20 48 0 56 -3 56 -19 0
-19 34 -31 89 -31 15 0 31 -8 39 -20 8 -14 23 -20 47 -20 23 0 35 -5 35 -14 0
-16 30 -26 82 -26 28 0 38 -5 43 -20 5 -17 15 -20 66 -20 52 0 59 -2 59 -20 0
-18 7 -20 59 -20 50 0 59 -3 64 -20 4 -17 14 -20 66 -20 53 0 61 -2 61 -19 0
-19 34 -31 86 -31 13 0 33 -9 44 -20 15 -15 33 -20 69 -20 40 0 50 -3 54 -20
4 -17 14 -20 60 -20 46 0 55 -3 60 -20 4 -16 14 -20 46 -20 34 0 41 -3 41 -20
0 -17 7 -20 39 -20 30 0 40 -4 44 -20 4 -15 14 -20 40 -20 26 0 36 -5 40 -20
3 -14 17 -21 46 -26 26 -4 41 -12 41 -21 0 -8 9 -17 20 -20 11 -3 20 -12 20
-19 0 -8 16 -16 39 -20 27 -4 41 -12 44 -25 4 -14 14 -19 40 -19 26 0 36 -5
40 -20 3 -12 14 -20 26 -20 14 0 21 -6 21 -20 0 -17 7 -20 40 -20 33 0 40 -3
40 -20 0 -11 4 -20 9 -20 4 0 20 -11 35 -25 15 -14 38 -25 51 -25 15 0 26 -7
30 -20 3 -11 15 -20 26 -20 10 0 19 -6 19 -14 0 -16 21 -26 56 -26 17 0 24 -6
24 -20 0 -17 7 -20 40 -20 33 0 40 -3 40 -20 0 -15 7 -20 25 -20 18 0 25 -5
25 -19 0 -14 10 -20 40 -25 24 -4 40 -12 40 -20 0 -16 21 -26 55 -26 14 0 25
-7 28 -20 4 -15 14 -20 40 -20 27 0 37 -5 42 -20 3 -11 15 -20 25 -20 9 0 20
-9 23 -20 4 -15 14 -20 40 -20 26 0 36 -5 40 -20 4 -16 14 -20 46 -20 33 0 41
-3 41 -19 0 -20 40 -31 118 -31 32 0 42 -4 42 -16 0 -9 9 -18 19 -21 11 -3 21
-13 24 -24 4 -14 14 -19 42 -19 28 0 38 -5 42 -20 5 -19 14 -20 169 -20 157 0
164 1 164 20 0 15 7 20 28 20 32 0 46 9 55 33 3 9 13 17 22 17 10 0 17 14 21
40 5 30 11 40 25 40 15 0 19 8 19 39 0 30 4 40 20 44 19 5 20 14 20 312 0 298
-1 307 -20 312 -20 5 -20 14 -20 709 0 693 0 703 20 714 20 10 20 21 20 420 0
403 0 410 20 410 19 0 20 7 20 205 0 198 1 205 20 205 11 0 20 5 20 11 0 6 14
24 31 40 28 26 38 29 101 29 56 0 74 -4 84 -17 11 -16 42 -18 346 -21 359 -4
438 1 438 24 0 11 19 14 94 14 117 0 154 7 161 31 6 17 18 19 122 19 106 0
115 1 120 20 5 17 14 20 65 20 51 0 61 3 65 20 4 16 14 20 48 20 53 0 75 8 75
26 0 9 12 14 34 14 23 0 40 7 48 18 7 11 30 22 51 26 21 4 37 13 37 20 0 16
22 26 56 26 17 0 24 6 24 20 0 14 7 20 21 20 12 0 23 8 26 20 4 14 14 20 32
20 17 0 36 10 49 25 12 14 26 25 32 25 5 0 10 7 10 15 0 8 7 15 16 15 9 0 18
9 21 20 3 11 11 20 19 20 7 0 19 8 26 18 7 11 30 22 51 26 28 5 37 12 37 26 0
18 7 20 60 20 53 0 60 2 60 20 0 18 7 20 81 20 72 0 81 2 86 20 3 11 13 20 23
20 10 0 20 -9 23 -20 5 -20 14 -20 2626 -20 l2621 0 0 -1105 c0 -938 -2 -1105
-14 -1105 -8 0 -17 -7 -20 -16 -3 -9 -6 -120 -6 -249 0 -224 -1 -233 -20 -238
-19 -5 -20 -14 -20 -145 0 -131 -1 -140 -20 -145 -18 -5 -20 -14 -20 -106 0
-92 -2 -101 -19 -101 -21 0 -31 -26 -31 -82 0 -27 -4 -38 -15 -38 -9 0 -19 -8
-22 -17 -4 -10 -15 -24 -25 -31 -11 -8 -18 -26 -18 -44 0 -21 -6 -31 -20 -35
-11 -3 -20 -13 -20 -23 0 -10 -9 -20 -20 -23 -15 -4 -20 -14 -20 -40 0 -27 -5
-37 -20 -42 -17 -5 -20 -15 -20 -61 0 -43 -4 -56 -17 -61 -27 -10 -33 -23 -33
-75 0 -34 -4 -48 -14 -48 -18 0 -26 -31 -26 -112 0 -74 6 -98 25 -98 8 0 16
-17 20 -39 4 -27 13 -41 26 -44 25 -7 25 -37 -1 -44 -11 -3 -20 -12 -20 -19 0
-8 -11 -19 -25 -24 -14 -5 -25 -16 -25 -25 0 -8 -9 -15 -20 -15 -13 0 -20 -7
-20 -20 0 -13 -7 -20 -20 -20 -13 0 -20 -7 -20 -20 0 -13 -7 -20 -20 -20 -13
0 -20 -7 -20 -20 0 -13 -7 -20 -20 -20 -13 0 -20 -7 -20 -19 0 -10 -9 -21 -21
-24 -11 -3 -23 -15 -26 -26 -3 -12 -14 -21 -24 -21 -12 0 -19 -7 -19 -20 0
-13 -7 -20 -20 -20 -13 0 -20 -7 -20 -20 0 -13 -7 -20 -20 -20 -13 0 -20 -7
-20 -20 0 -13 -7 -20 -20 -20 -13 0 -20 -7 -20 -20 0 -13 -7 -20 -20 -20 -13
0 -20 -7 -20 -19 0 -10 -9 -21 -21 -24 -11 -3 -23 -15 -26 -26 -3 -12 -14 -21
-24 -21 -12 0 -19 -7 -19 -20 0 -13 -7 -20 -20 -20 -13 0 -20 -7 -20 -20 0
-13 -7 -20 -20 -20 -13 0 -20 -7 -20 -20 0 -13 -7 -20 -20 -20 -13 0 -20 -7
-20 -20 0 -13 -7 -20 -20 -20 -13 0 -20 -7 -20 -19 0 -10 -9 -21 -21 -24 -11
-3 -23 -15 -26 -26 -3 -12 -14 -21 -24 -21 -12 0 -19 -7 -19 -20 0 -13 -7 -20
-20 -20 -13 0 -20 -7 -20 -20 0 -13 -7 -20 -20 -20 -13 0 -20 -7 -20 -20 0
-13 -7 -20 -20 -20 -13 0 -20 -7 -20 -19 0 -10 -9 -21 -20 -24 -11 -3 -20 -12
-20 -20 0 -9 -9 -18 -19 -22 -11 -3 -23 -14 -26 -24 -3 -11 -15 -21 -25 -24
-11 -3 -20 -12 -20 -20 0 -8 -9 -17 -20 -20 -11 -3 -20 -12 -20 -20 0 -8 -9
-17 -20 -20 -11 -3 -20 -12 -20 -20 0 -8 -9 -17 -20 -20 -11 -3 -20 -12 -20
-20 0 -8 -9 -17 -20 -20 -11 -3 -20 -12 -20 -20 0 -9 -9 -18 -19 -22 -11 -3
-23 -14 -26 -24 -3 -11 -15 -21 -25 -24 -11 -3 -20 -12 -20 -20 0 -8 -9 -17
-20 -20 -11 -3 -20 -12 -20 -20 0 -8 -9 -17 -20 -20 -11 -3 -20 -12 -20 -20 0
-8 -9 -17 -20 -20 -11 -3 -20 -12 -20 -20 0 -8 -9 -17 -20 -20 -11 -3 -20 -12
-20 -20 0 -9 -9 -18 -19 -22 -11 -3 -23 -14 -26 -24 -3 -11 -15 -21 -25 -24
-11 -3 -20 -12 -20 -20 0 -8 -9 -17 -20 -20 -11 -3 -20 -12 -20 -20 0 -8 -9
-17 -20 -20 -11 -3 -20 -12 -20 -20 0 -8 -9 -17 -20 -20 -11 -3 -20 -12 -20
-20 0 -8 -9 -17 -20 -20 -11 -3 -20 -12 -20 -20 0 -9 -9 -18 -19 -22 -11 -3
-23 -14 -26 -24 -3 -11 -15 -21 -25 -24 -11 -3 -20 -12 -20 -20 0 -8 -9 -17
-20 -20 -11 -3 -20 -12 -20 -20 0 -8 -9 -17 -20 -20 -11 -3 -20 -12 -20 -20 0
-8 -9 -17 -20 -20 -11 -3 -20 -12 -20 -20 0 -8 -9 -17 -20 -20 -11 -3 -20 -12
-20 -20 0 -9 -9 -18 -19 -22 -11 -3 -23 -14 -26 -24 -3 -11 -15 -21 -25 -24
-11 -3 -20 -12 -20 -20 0 -8 -9 -17 -20 -20 -11 -3 -20 -12 -20 -20 0 -8 -9
-17 -20 -20 -14 -3 -20 -14 -20 -31 0 -19 -5 -26 -20 -26 -11 0 -20 -4 -20 -9
0 -5 -9 -11 -20 -14 -11 -3 -20 -12 -20 -19 0 -8 -11 -20 -25 -26 -14 -6 -25
-18 -25 -26 0 -7 -9 -16 -20 -19 -11 -3 -20 -12 -20 -20 0 -8 -9 -17 -20 -20
-11 -3 -20 -12 -20 -20 0 -8 -9 -17 -20 -20 -11 -3 -20 -12 -20 -20 0 -8 -9
-17 -20 -20 -11 -3 -20 -12 -20 -20 0 -8 -9 -17 -20 -20 -11 -3 -20 -12 -20
-19 0 -8 -11 -20 -25 -26 -14 -6 -25 -18 -25 -26 0 -7 -9 -16 -20 -19 -11 -3
-20 -12 -20 -20 0 -8 -9 -17 -20 -20 -11 -3 -20 -12 -20 -20 0 -8 -9 -17 -20
-20 -11 -3 -20 -12 -20 -20 0 -9 -9 -19 -20 -22 -11 -3 -20 -13 -20 -22 0 -8
-9 -17 -20 -20 -11 -3 -20 -12 -20 -20 0 -8 -9 -17 -20 -20 -11 -3 -20 -14
-20 -24 0 -12 -7 -19 -19 -19 -11 0 -23 -9 -26 -20 -3 -11 -12 -20 -20 -20 -8
0 -16 -9 -20 -19 -3 -11 -15 -23 -26 -26 -10 -4 -19 -12 -19 -20 0 -8 -9 -17
-20 -20 -11 -3 -20 -13 -20 -22 0 -8 -9 -17 -20 -20 -11 -3 -20 -12 -20 -20 0
-8 -9 -17 -20 -20 -11 -3 -20 -14 -20 -24 0 -12 -7 -19 -19 -19 -11 0 -23 -9
-26 -20 -3 -11 -12 -20 -20 -20 -8 0 -16 -9 -20 -19 -3 -10 -15 -21 -25 -24
-11 -3 -20 -12 -20 -20 0 -9 -8 -18 -19 -22 -25 -8 -31 -59 -31 -276 0 -146
-3 -179 -14 -179 -8 0 -17 -7 -20 -16 -3 -9 -6 -682 -6 -1496 0 -1399 -1
-1482 -17 -1494 -17 -12 -18 -72 -21 -982 -2 -958 -3 -970 -22 -975 -20 -5
-20 -15 -20 -644 0 -627 0 -638 -20 -651 -20 -12 -20 -23 -20 -462 0 -443 0
-450 -20 -450 -20 0 -20 -7 -20 -270 0 -259 -1 -270 -19 -270 -17 0 -20 -11
-26 -104 -4 -57 -4 -140 0 -184 6 -67 10 -81 26 -85 14 -4 19 -14 19 -42 0
-28 5 -38 20 -42 11 -3 20 -14 20 -24 0 -12 7 -19 20 -19 13 0 20 -7 20 -20 0
-12 7 -20 16 -20 9 0 18 -9 21 -20 3 -10 13 -22 24 -25 10 -3 21 -15 24 -26 4
-10 15 -19 25 -19 9 0 20 -9 23 -20 4 -15 14 -20 41 -20 29 0 36 -4 36 -20 0
-13 7 -20 19 -20 11 0 23 -9 26 -20 5 -16 15 -20 46 -20 31 0 39 -4 39 -19 0
-14 10 -20 40 -25 24 -4 40 -12 40 -20 0 -16 30 -26 81 -26 28 0 38 -5 42 -20
4 -16 14 -20 45 -20 31 0 41 -4 45 -20 4 -17 14 -20 60 -20 46 0 55 -3 60 -20
4 -17 14 -20 66 -20 54 0 61 -2 61 -20 0 -18 7 -20 59 -20 49 0 59 -3 63 -18
6 -20 50 -32 126 -32 23 0 42 -4 42 -10 0 -6 125 -10 355 -10 230 0 355 4 355
10 0 6 18 10 39 10 51 0 91 15 91 35 0 12 12 15 56 15 47 0 57 3 61 20 4 16
14 20 44 20 32 0 39 3 39 20 0 16 7 20 35 20 23 0 38 6 42 16 3 8 16 20 29 25
13 4 24 15 24 23 0 8 15 17 36 21 24 4 38 13 41 26 3 10 14 19 24 19 12 0 19
7 19 20 0 14 7 20 21 20 12 0 23 8 26 20 3 11 12 20 20 20 8 0 17 9 20 20 3
11 12 20 20 20 8 0 17 9 20 20 3 11 12 20 20 20 8 0 17 9 20 19 3 11 13 21 24
24 11 3 19 14 19 26 0 14 6 21 19 21 10 0 21 9 24 20 3 11 12 20 20 20 10 0
18 14 22 40 4 26 12 40 22 40 8 0 17 9 20 20 3 10 14 22 24 25 14 5 19 16 19
46 0 32 3 39 20 39 20 0 20 7 20 809 0 800 0 809 20 814 20 5 20 14 20 1190 0
1144 1 1185 18 1189 13 4 21 18 25 44 4 22 7 348 7 727 0 576 2 687 14 687 23
0 26 49 26 402 0 331 0 340 20 345 17 5 20 14 20 62 0 45 4 59 20 69 16 10 20
23 20 67 0 48 2 55 20 55 17 0 20 7 20 39 0 30 4 40 20 44 17 4 20 14 20 56 0
40 4 53 18 58 24 9 32 23 32 59 0 23 5 33 20 37 15 4 20 14 20 40 0 26 5 36
20 40 15 4 20 14 20 40 0 26 5 36 20 40 16 4 20 14 20 46 0 34 3 41 20 41 17
0 20 7 20 40 0 33 3 40 20 40 13 0 20 7 20 19 0 11 9 22 19 26 13 4 22 19 26
45 4 23 12 40 20 40 15 0 25 22 25 56 0 17 6 24 20 24 12 0 20 7 20 18 0 9 9
23 20 30 12 7 20 23 20 41 0 20 6 30 20 34 12 3 20 14 20 26 0 14 6 21 19 21
14 0 20 10 25 40 4 27 11 40 22 40 9 0 18 9 21 20 3 11 12 20 20 20 8 0 17 9
20 19 3 11 13 21 24 24 11 3 19 14 19 25 0 11 9 22 20 25 15 4 20 14 20 41 0
29 4 36 20 36 13 0 20 7 20 20 0 13 7 20 20 20 13 0 20 7 20 20 0 13 7 20 18
20 11 0 24 11 30 25 6 14 16 25 21 25 6 0 13 15 16 34 5 22 14 36 26 39 11 3
19 14 19 26 0 14 6 21 20 21 13 0 20 7 20 20 0 13 7 20 20 20 13 0 20 7 20 20
0 13 7 20 19 20 11 0 22 9 26 19 3 10 15 21 25 24 11 3 20 12 20 20 0 8 9 17
20 20 11 3 20 12 20 20 0 8 9 17 20 20 12 3 20 14 20 26 0 17 6 21 36 21 27 0
37 5 41 19 3 11 13 21 24 24 10 3 19 12 19 20 0 8 9 17 20 20 11 3 20 12 20
20 0 9 9 18 19 22 11 3 23 14 26 24 3 11 15 21 25 24 15 4 20 14 20 41 0 29 4
36 20 36 13 0 20 7 20 20 0 13 7 20 20 20 13 0 20 7 20 20 0 13 7 20 19 20 11
0 22 9 26 19 3 10 15 21 25 24 11 3 20 12 20 20 0 9 9 19 20 22 11 3 20 15 20
26 0 12 7 19 20 19 13 0 20 7 20 19 0 10 9 21 20 24 15 4 20 14 20 41 0 29 4
36 20 36 13 0 20 7 20 20 0 13 7 20 20 20 11 0 20 5 20 10 0 6 11 20 25 32 14
12 25 28 25 35 0 7 6 13 14 13 16 0 26 21 26 56 0 17 6 24 20 24 13 0 20 7 20
20 0 13 7 20 20 20 13 0 20 7 20 19 0 11 9 23 20 26 13 4 20 15 20 31 0 13 11
34 25 46 14 12 25 28 25 35 0 7 7 13 15 13 9 0 19 8 22 17 4 10 15 24 25 31
10 8 18 26 18 43 0 19 5 29 15 29 9 0 20 11 25 25 5 14 16 25 25 25 11 0 15
11 15 40 0 33 3 40 19 40 11 0 23 9 26 20 3 11 13 20 21 20 8 0 16 15 20 39 4
27 12 41 25 44 11 3 19 14 19 25 0 11 9 22 20 25 15 4 20 14 20 41 0 29 4 36
20 36 13 0 20 7 20 19 0 10 9 21 20 24 15 4 20 14 20 41 0 29 4 36 19 36 12 0
21 9 25 25 4 14 13 25 20 25 9 0 17 15 21 39 4 27 13 41 26 44 14 4 19 14 19
41 0 29 4 36 20 36 13 0 20 7 20 20 0 10 9 24 20 30 14 8 20 21 20 45 0 28 4
35 20 35 17 0 20 7 20 40 0 33 3 40 20 40 15 0 21 9 26 39 4 27 12 41 25 44
14 4 19 14 19 40 0 27 5 37 20 42 16 5 20 15 20 46 0 32 3 39 20 39 17 0 20 7
20 39 0 30 4 40 20 44 15 4 20 14 20 40 0 27 5 37 20 42 16 5 20 15 20 46 0
32 3 39 20 39 14 0 21 9 26 36 4 20 15 45 25 55 11 11 19 33 19 49 0 19 5 30
14 30 18 0 26 22 26 75 0 34 4 44 20 48 17 4 20 14 20 66 0 54 2 61 20 61 18
0 20 7 20 59 0 50 3 59 20 64 16 4 20 14 20 50 0 54 8 77 25 77 15 0 25 53 25
137 0 53 3 63 20 68 18 6 20 15 20 105 0 90 2 99 20 105 20 6 20 15 20 671 0
657 0 664 20 664 19 0 20 7 20 125 0 118 1 125 20 125 19 0 20 7 20 101 0 91
2 101 19 106 17 4 20 18 26 100 6 73 12 100 26 114 15 15 19 34 19 89 0 53 3
70 14 70 20 0 26 23 26 101 0 62 2 69 20 69 18 0 20 7 20 79 0 70 2 79 20 84
18 5 20 14 20 105 0 91 2 100 20 105 19 5 20 14 20 171 0 104 4 166 10 166 7
0 10 491 10 1454 0 959 -3 1457 -10 1461 -7 4 -10 237 -10 667 0 651 0 660
-20 665 -20 5 -20 14 -20 1458 0 1445 0 1454 20 1460 19 6 20 15 20 211 0 197
-1 204 -20 204 -19 0 -20 7 -20 101 0 92 -2 101 -20 106 -17 5 -20 14 -20 60
0 46 -3 56 -20 60 -16 4 -20 14 -20 45 0 31 -4 41 -19 45 -13 3 -21 17 -25 43
-4 26 -12 39 -26 43 -15 4 -20 13 -20 37 0 23 -5 33 -20 37 -11 3 -20 14 -20
25 0 11 -9 22 -20 25 -11 3 -20 14 -20 24 0 12 -7 19 -20 19 -14 0 -20 7 -20
24 0 35 -10 56 -26 56 -8 0 -14 7 -14 16 0 9 -8 18 -19 21 -10 2 -24 16 -30
29 -6 13 -17 24 -26 24 -8 0 -15 9 -15 20 0 13 -7 20 -20 20 -13 0 -20 7 -20
20 0 13 -7 20 -20 20 -14 0 -20 7 -20 24 0 34 -10 56 -25 56 -8 0 -17 9 -20
20 -3 11 -12 20 -20 20 -8 0 -17 9 -20 20 -3 11 -13 20 -21 20 -8 0 -19 11
-24 25 -5 14 -16 25 -25 25 -8 0 -15 7 -15 16 0 9 -9 18 -20 21 -11 3 -20 14
-20 24 0 12 -7 19 -20 19 -13 0 -20 7 -20 20 0 13 -7 20 -20 20 -13 0 -20 7
-20 20 0 13 -7 20 -20 20 -13 0 -20 7 -20 19 0 11 -9 22 -19 26 -11 3 -23 15
-26 26 -4 10 -15 19 -26 19 -12 0 -19 7 -19 20 0 13 -7 20 -20 20 -13 0 -20 7
-20 20 0 13 -7 20 -20 20 -13 0 -20 7 -20 20 0 13 -7 20 -20 20 -13 0 -20 7
-20 20 0 11 -7 20 -15 20 -9 0 -20 11 -25 25 -5 14 -16 25 -24 25 -8 0 -18 9
-21 20 -3 11 -15 20 -26 20 -12 0 -19 7 -19 20 0 13 -7 20 -20 20 -13 0 -20 7
-20 20 0 13 -7 20 -20 20 -13 0 -20 7 -20 20 0 13 -7 20 -20 20 -13 0 -20 7
-20 20 0 13 -7 20 -19 20 -10 0 -21 9 -24 21 -3 11 -14 23 -25 26 -11 3 -22
13 -25 24 -3 10 -12 19 -20 19 -8 0 -17 9 -20 20 -3 11 -12 20 -20 20 -8 0
-17 9 -20 20 -3 11 -12 20 -20 20 -8 0 -17 9 -20 20 -3 11 -12 20 -20 20 -8 0
-17 9 -20 20 -3 11 -12 20 -20 20 -8 0 -17 9 -20 21 -3 11 -15 23 -26 26 -12
3 -21 14 -21 24 0 12 -7 19 -20 19 -13 0 -20 7 -20 20 0 13 -7 20 -20 20 -13
0 -20 7 -20 20 0 13 -7 20 -20 20 -13 0 -20 7 -20 20 0 13 -7 20 -19 20 -15 0
-21 10 -26 40 -4 26 -12 40 -22 40 -8 0 -17 9 -20 20 -3 11 -12 20 -19 20 -8
0 -19 11 -24 25 -5 14 -16 25 -25 25 -8 0 -15 9 -15 20 0 13 -7 20 -20 20 -13
0 -20 7 -20 20 0 13 -7 20 -20 20 -14 0 -20 7 -20 24 0 34 -10 56 -25 56 -8 0
-17 9 -20 20 -3 11 -15 25 -26 30 -10 6 -19 17 -19 25 0 8 -9 15 -20 15 -13 0
-20 7 -20 20 0 13 -7 20 -20 20 -16 0 -20 7 -20 36 0 27 -5 37 -20 41 -11 3
-20 14 -20 24 0 11 -7 19 -15 19 -9 0 -20 11 -25 25 -5 14 -16 25 -24 25 -7 0
-16 9 -19 20 -3 11 -12 20 -20 20 -8 0 -17 9 -20 20 -3 12 -14 20 -26 20 -17
0 -21 6 -21 36 0 27 -5 37 -19 41 -11 3 -21 13 -24 24 -3 10 -12 19 -20 19 -8
0 -17 9 -20 20 -3 11 -12 20 -19 20 -8 0 -20 11 -26 25 -9 18 -19 25 -41 25
-21 0 -32 6 -36 20 -3 11 -15 20 -26 20 -12 0 -19 7 -19 20 0 13 -7 20 -20 20
-13 0 -20 7 -20 20 0 13 -7 20 -20 20 -13 0 -20 7 -20 19 0 12 -9 21 -25 25
-14 4 -25 13 -25 21 0 8 -15 17 -36 21 -24 4 -38 13 -41 25 -3 11 -14 19 -24
19 -12 0 -19 7 -19 20 0 13 -7 20 -19 20 -10 0 -21 9 -24 20 -4 15 -14 20 -41
20 -29 0 -36 4 -36 20 0 14 -7 20 -21 20 -12 0 -23 8 -26 19 -3 13 -17 22 -43
26 -26 4 -40 13 -43 26 -4 14 -14 19 -40 19 -26 0 -36 5 -40 20 -3 11 -12 20
-20 20 -9 0 -19 9 -22 20 -5 16 -15 20 -46 20 -32 0 -39 3 -39 20 0 17 -7 20
-40 20 -32 0 -40 4 -40 19 0 14 -10 20 -37 24 -23 4 -43 15 -51 27 -8 14 -23
20 -46 20 -25 0 -35 5 -39 20 -4 15 -14 20 -39 20 -22 0 -37 6 -46 20 -9 16
-23 20 -61 20 -41 0 -51 4 -56 20 -5 15 -15 20 -45 20 -29 0 -39 4 -43 20 -4
17 -14 20 -60 20 -45 0 -56 3 -60 19 -3 13 -17 21 -46 26 -23 4 -41 12 -41 20
0 15 -31 25 -81 25 -28 0 -38 5 -42 20 -4 16 -14 20 -46 20 -28 0 -41 4 -41
14 0 18 -22 26 -73 26 -31 0 -45 5 -55 20 -10 16 -23 20 -66 20 -45 0 -54 3
-59 20 -4 17 -14 20 -60 20 -46 0 -57 3 -62 19 -5 17 -19 21 -85 27 -54 4 -80
11 -80 19 0 19 -24 25 -95 25 -55 0 -65 3 -70 20 -6 18 -15 20 -105 20 -89 0
-98 2 -103 20 -5 19 -14 20 -145 20 -132 0 -141 1 -147 20 -6 18 -15 20 -105
20 -89 0 -98 2 -103 20 -5 18 -14 20 -106 20 -92 0 -101 2 -101 19 0 22 -35
31 -116 31 -40 0 -54 4 -54 14 0 18 -22 26 -75 26 -34 0 -44 4 -48 20 -4 16
-14 20 -46 20 -28 0 -41 4 -41 14 0 16 -21 26 -53 26 -12 0 -28 9 -35 20 -8
14 -23 20 -47 20 -28 0 -35 4 -35 20 0 17 -7 20 -40 20 -33 0 -40 3 -40 20 0
13 -7 20 -19 20 -10 0 -21 9 -24 19 -3 13 -17 22 -40 26 -23 5 -37 14 -40 26
-3 10 -12 19 -20 19 -8 0 -17 9 -20 20 -3 11 -12 20 -20 20 -9 0 -19 9 -22 20
-3 11 -15 20 -26 20 -12 0 -19 7 -19 20 0 13 -7 20 -20 20 -16 0 -20 7 -20 36
0 27 -5 37 -20 41 -11 3 -20 14 -20 25 0 11 -8 22 -19 25 -11 3 -21 13 -24 24
-3 10 -12 19 -20 19 -8 0 -17 9 -20 20 -3 11 -12 20 -20 20 -9 0 -19 9 -22 20
-3 11 -15 20 -26 20 -12 0 -19 7 -19 20 0 11 -7 20 -15 20 -9 0 -20 11 -25 25
-5 14 -16 25 -25 25 -8 0 -15 7 -15 15 0 9 -11 20 -24 24 -13 5 -26 17 -29 25
-4 10 -18 16 -36 16 -21 0 -32 6 -36 20 -3 11 -15 20 -26 20 -12 0 -19 7 -19
20 0 13 -7 20 -19 20 -10 0 -21 9 -24 20 -3 12 -14 20 -25 20 -30 0 -52 11
-52 25 0 15 -22 25 -55 25 -15 0 -26 7 -30 20 -3 11 -15 20 -26 20 -10 0 -19
6 -19 14 0 16 -21 26 -53 26 -12 0 -28 9 -35 20 -10 16 -23 20 -63 20 -42 0
-52 3 -56 20 -4 16 -14 20 -43 20 -29 0 -39 5 -43 19 -4 16 -17 21 -66 27 -34
3 -61 11 -61 15 0 5 -692 9 -1585 9 -1050 0 -1585 -3 -1585 -10z m1020 -2632
c25 -5 89 -14 143 -18 54 -5 112 -16 130 -24 17 -8 57 -17 87 -21 30 -3 64
-12 76 -20 12 -7 39 -17 60 -21 21 -4 50 -15 63 -25 13 -11 34 -19 46 -19 12
0 28 -6 34 -14 7 -8 27 -18 44 -21 18 -4 46 -16 63 -26 17 -10 38 -19 46 -19
9 0 27 -9 41 -20 14 -11 34 -20 45 -20 10 0 31 -9 45 -20 14 -11 32 -20 40
-20 8 0 35 -11 61 -25 26 -14 54 -25 62 -25 9 0 27 -9 41 -20 14 -11 33 -20
42 -20 9 0 30 -9 46 -20 17 -11 37 -20 46 -20 9 0 28 -9 42 -20 14 -11 33 -20
44 -20 10 0 32 -9 49 -19 17 -10 45 -22 62 -25 17 -4 36 -14 43 -22 6 -8 17
-14 23 -14 6 0 34 -11 61 -25 28 -13 55 -25 61 -25 6 0 21 -9 34 -20 13 -11
31 -20 41 -20 17 0 194 -170 239 -231 14 -18 33 -40 43 -48 9 -9 17 -21 17
-28 0 -7 9 -17 20 -23 11 -6 20 -16 20 -21 0 -6 11 -24 25 -41 14 -16 25 -36
25 -44 0 -8 5 -14 11 -14 5 0 15 -13 20 -29 6 -16 16 -32 23 -34 8 -3 17 -18
20 -33 4 -15 16 -39 27 -52 10 -14 19 -29 19 -34 0 -6 9 -21 20 -35 11 -14 20
-35 20 -47 0 -12 6 -30 13 -41 10 -15 11 -58 5 -185 -4 -91 -12 -381 -18 -645
-5 -264 -15 -586 -21 -715 -6 -129 -13 -316 -14 -415 -2 -99 -9 -463 -16 -810
-6 -346 -16 -638 -20 -647 -5 -10 -12 -633 -15 -1434 -5 -1380 -5 -1417 -24
-1452 -11 -20 -20 -42 -20 -49 0 -6 -6 -18 -13 -25 -6 -7 -30 -39 -51 -70 -22
-32 -42 -58 -45 -58 -9 0 -191 -176 -191 -185 0 -4 -15 -26 -32 -48 -18 -23
-37 -49 -43 -58 -73 -124 -216 -274 -338 -354 -17 -11 -42 -28 -56 -37 -14
-10 -42 -27 -61 -38 -19 -11 -53 -32 -75 -45 -22 -13 -47 -27 -55 -30 -8 -3
-31 -14 -51 -25 -19 -10 -52 -21 -72 -25 -20 -4 -37 -11 -37 -15 0 -10 -56
-30 -83 -30 -11 0 -28 -7 -37 -15 -9 -9 -46 -19 -81 -24 -35 -5 -82 -16 -104
-25 -22 -8 -67 -15 -100 -16 -41 0 -69 -6 -85 -17 -22 -16 -56 -18 -257 -21
-217 -3 -235 -2 -279 17 -25 12 -61 21 -78 21 -18 0 -48 8 -68 19 -20 10 -50
21 -66 24 -76 15 -348 237 -418 341 -10 16 -27 41 -37 55 -9 14 -26 44 -37 66
-12 22 -25 47 -30 55 -27 46 -51 105 -56 143 -4 23 -14 53 -23 67 -14 21 -16
64 -16 300 0 201 4 286 14 315 12 38 28 192 51 505 12 158 4 848 -10 900 -6
19 -14 256 -20 525 -5 270 -14 555 -20 635 -6 80 -15 249 -20 375 -5 127 -14
266 -20 310 -5 44 -14 147 -19 230 -5 82 -16 177 -24 210 -9 33 -17 94 -17
135 0 41 -9 111 -20 155 -11 45 -20 114 -20 158 0 43 -9 113 -19 155 -10 43
-22 124 -25 182 -4 58 -11 123 -17 145 -6 22 -17 108 -24 190 -8 83 -18 166
-24 185 -6 19 -14 89 -17 155 -4 66 -13 145 -21 175 -7 30 -16 107 -19 170 -3
63 -13 142 -21 174 -8 33 -18 118 -23 190 -4 72 -13 145 -20 161 -6 17 -16 70
-20 118 -5 52 -15 96 -23 105 -8 10 -18 31 -21 47 -4 17 -13 37 -21 45 -7 8
-16 26 -20 40 -4 14 -16 33 -26 43 -11 10 -19 26 -19 36 0 10 -9 26 -20 36
-11 10 -20 22 -20 27 0 6 -9 21 -20 35 -11 14 -20 33 -20 43 0 9 -9 27 -20 40
-11 13 -20 31 -20 41 0 10 -7 25 -16 34 -9 9 -23 48 -30 88 -26 136 -14 246
35 318 43 64 180 189 206 189 7 0 20 9 30 20 10 11 25 20 34 20 9 0 30 9 46
20 17 11 37 20 45 20 8 0 38 12 65 25 28 14 61 25 75 25 14 0 36 7 48 16 12 8
54 18 95 21 39 3 81 11 92 16 46 25 629 29 735 5z m-3935 -227 c154 -5 307
-15 340 -21 33 -6 113 -15 179 -20 65 -6 132 -16 147 -24 16 -8 54 -18 84 -21
30 -4 59 -13 66 -21 6 -7 27 -16 48 -20 20 -4 47 -15 60 -25 13 -11 29 -19 36
-19 6 0 22 -9 35 -20 13 -11 27 -20 32 -20 24 0 245 -199 318 -286 69 -83 110
-139 110 -150 0 -7 6 -17 13 -21 16 -11 63 -83 71 -110 4 -11 13 -27 21 -33 8
-7 15 -20 15 -30 0 -9 9 -29 20 -43 11 -14 20 -33 20 -42 0 -10 9 -32 19 -49
10 -17 22 -51 26 -76 4 -25 13 -52 21 -60 7 -9 16 -47 20 -85 4 -38 13 -80 21
-94 19 -37 18 -356 -1 -408 -8 -21 -17 -58 -21 -83 -3 -25 -12 -54 -19 -65 -7
-11 -17 -36 -21 -55 -4 -19 -20 -57 -36 -85 -16 -27 -34 -61 -41 -75 -17 -34
-88 -124 -147 -185 -47 -49 -124 -115 -135 -115 -3 0 -15 -8 -25 -17 -47 -44
-74 -63 -89 -63 -8 0 -22 -7 -31 -15 -26 -25 -91 -65 -105 -65 -7 0 -25 -9
-39 -20 -14 -11 -31 -20 -39 -20 -7 0 -31 -12 -53 -25 -22 -14 -48 -25 -58
-25 -11 0 -30 -9 -44 -20 -14 -11 -34 -20 -44 -20 -10 0 -33 -9 -51 -20 -18
-11 -42 -20 -53 -20 -11 0 -33 -9 -50 -20 -16 -11 -41 -20 -55 -20 -14 0 -38
-9 -55 -20 -16 -11 -39 -20 -50 -20 -11 0 -36 -8 -55 -19 -19 -10 -55 -22 -80
-26 -25 -4 -52 -13 -61 -21 -8 -8 -38 -17 -65 -20 -27 -4 -59 -13 -71 -20 -12
-8 -55 -18 -95 -23 -40 -5 -91 -16 -113 -25 -22 -8 -69 -15 -105 -16 -39 0
-77 -6 -95 -16 -20 -11 -76 -19 -170 -24 -77 -5 -178 -15 -225 -22 -117 -18
-529 -17 -640 1 -47 8 -119 17 -161 20 -42 3 -82 11 -90 17 -8 6 -30 17 -51
23 -20 7 -39 18 -42 26 -3 8 -11 15 -18 15 -23 0 -188 182 -188 208 0 5 -9 17
-20 27 -11 10 -20 26 -20 35 0 9 -9 25 -20 35 -11 10 -20 25 -20 34 0 9 -9 30
-20 46 -11 17 -20 37 -20 46 0 9 -8 27 -19 40 -10 13 -22 43 -26 66 -3 23 -13
47 -21 53 -7 7 -16 28 -20 49 -3 20 -14 57 -25 83 -10 26 -19 63 -19 83 0 20
-7 47 -16 60 -46 70 -46 717 -1 800 9 17 17 48 17 69 0 22 9 58 19 80 10 23
22 57 25 77 4 21 13 42 20 49 8 6 17 29 21 51 4 22 12 45 19 52 7 7 18 29 25
49 7 20 19 42 27 48 7 7 14 20 14 30 0 10 7 23 16 30 8 8 22 27 30 44 23 49
75 125 124 180 57 63 216 219 245 241 15 11 38 30 52 43 14 12 31 22 38 22 7
0 23 9 37 19 13 11 36 23 51 26 14 4 31 13 38 21 6 7 27 16 48 20 20 4 43 12
51 20 9 7 40 17 70 23 30 5 80 17 110 25 30 9 93 16 140 17 47 1 96 5 110 9
29 10 383 6 785 -9z m9030 -513 c11 -4 38 -19 60 -33 22 -13 50 -29 62 -34 13
-6 58 -38 100 -71 43 -33 91 -71 107 -83 15 -12 46 -39 68 -59 22 -21 44 -38
49 -38 5 0 14 -9 21 -20 7 -11 17 -20 23 -20 10 0 62 -40 140 -108 8 -7 54
-46 102 -85 100 -82 157 -132 189 -164 11 -13 25 -23 29 -23 4 0 23 -17 43
-37 19 -21 51 -50 71 -66 69 -55 241 -226 241 -240 0 -8 7 -21 16 -28 9 -7 20
-22 26 -34 5 -11 20 -38 33 -60 39 -66 135 -265 135 -281 0 -5 9 -27 20 -49
11 -22 20 -49 20 -61 0 -12 6 -27 14 -33 8 -7 18 -31 21 -53 4 -23 16 -55 26
-72 10 -17 19 -42 19 -56 0 -14 9 -42 20 -63 11 -20 20 -47 20 -60 0 -12 8
-38 19 -57 10 -19 21 -53 25 -74 4 -21 14 -48 21 -60 7 -12 17 -43 20 -71 4
-27 14 -57 21 -66 8 -8 17 -38 20 -65 4 -27 13 -56 21 -66 8 -9 18 -41 22 -71
4 -31 13 -62 20 -70 6 -8 14 -39 18 -68 3 -30 13 -67 23 -84 10 -16 20 -55 23
-87 3 -31 12 -67 20 -80 8 -12 17 -49 21 -81 3 -32 13 -68 20 -80 8 -12 17
-53 21 -91 4 -39 13 -79 20 -90 8 -12 17 -55 21 -96 3 -41 13 -88 21 -103 8
-15 18 -71 23 -125 4 -53 16 -117 24 -141 9 -25 16 -76 16 -120 0 -43 9 -109
20 -151 12 -46 20 -110 20 -165 1 -49 8 -124 16 -165 18 -92 43 -608 43 -895
0 -264 -23 -710 -39 -750 -6 -16 -14 -68 -17 -115 -2 -47 -13 -111 -24 -143
-10 -31 -19 -74 -19 -95 0 -20 -9 -54 -20 -75 -11 -20 -20 -43 -20 -50 0 -21
-60 -137 -71 -137 -5 0 -9 -5 -9 -11 0 -28 -140 -179 -207 -224 -24 -15 -43
-31 -43 -36 0 -4 -9 -11 -21 -14 -12 -4 -30 -16 -40 -26 -10 -10 -26 -19 -35
-19 -9 0 -27 -9 -41 -20 -14 -11 -34 -20 -43 -20 -10 0 -23 -7 -30 -14 -6 -8
-36 -20 -65 -26 -29 -6 -59 -18 -65 -26 -7 -7 -27 -14 -44 -14 -17 0 -47 -8
-66 -18 -19 -11 -62 -22 -94 -26 -33 -4 -66 -12 -73 -18 -14 -11 -232 -27
-391 -27 -51 -1 -100 -5 -110 -10 -17 -10 -316 -31 -429 -31 -34 0 -88 -7
-120 -15 -32 -9 -114 -18 -183 -22 -69 -3 -145 -13 -170 -21 -33 -11 -114 -16
-307 -19 -253 -5 -264 -4 -303 16 -22 12 -47 21 -54 21 -16 0 -52 28 -100 77
-55 58 -126 148 -126 162 0 5 -6 11 -13 14 -8 3 -30 30 -50 60 l-37 56 4 1838
c5 1941 19 3282 36 3473 6 63 15 183 21 265 6 85 16 162 24 178 7 15 17 53 20
85 4 31 16 71 26 88 11 17 19 40 19 51 0 11 9 30 20 43 11 13 20 31 20 40 0
10 9 29 20 43 11 14 20 29 20 35 0 5 9 17 20 27 11 10 20 23 20 30 0 7 10 24
23 38 12 14 31 38 42 53 21 29 199 210 252 257 17 15 36 27 42 27 6 0 15 9 21
20 6 11 17 20 25 20 8 0 18 6 22 13 11 18 95 77 109 77 6 0 14 6 17 14 3 8 21
17 39 21 18 4 41 14 51 23 31 27 277 35 332 10z m-12305 -430 c13 -10 35 -18
48 -18 13 0 40 -9 60 -19 20 -11 48 -24 62 -31 45 -20 82 -42 100 -59 10 -9
30 -25 46 -36 48 -34 164 -155 164 -170 0 -8 4 -15 8 -15 5 0 22 -21 38 -47
16 -27 35 -57 42 -68 6 -11 17 -31 23 -45 6 -14 19 -41 29 -61 10 -19 21 -52
25 -72 4 -21 11 -39 15 -42 5 -3 14 -31 20 -63 6 -31 18 -71 25 -88 8 -17 17
-75 20 -130 4 -54 11 -108 17 -120 5 -11 7 -56 5 -100 -21 -336 -30 -451 -43
-529 -11 -60 -18 -194 -23 -410 -6 -273 -9 -325 -24 -352 -9 -18 -17 -46 -17
-63 0 -17 -9 -48 -19 -68 -11 -20 -24 -48 -30 -62 -6 -14 -20 -38 -31 -55 -11
-16 -26 -42 -35 -57 -8 -15 -25 -38 -38 -51 -12 -13 -42 -45 -66 -72 -47 -52
-117 -111 -191 -160 -24 -17 -51 -36 -60 -43 -57 -48 -130 -102 -139 -102 -5
0 -14 -6 -18 -13 -4 -7 -19 -20 -33 -30 -14 -9 -50 -34 -80 -54 -30 -21 -63
-46 -72 -55 -10 -10 -23 -18 -28 -18 -12 0 -64 -35 -92 -62 -10 -10 -24 -18
-31 -18 -8 0 -22 -9 -32 -20 -10 -11 -24 -20 -30 -20 -7 0 -18 -7 -25 -15 -7
-8 -30 -20 -51 -25 -22 -6 -39 -15 -39 -20 0 -4 -17 -14 -37 -20 -21 -7 -45
-18 -53 -25 -8 -7 -35 -16 -60 -20 -24 -4 -54 -14 -65 -21 -12 -8 -61 -18
-111 -23 -49 -5 -111 -15 -139 -21 -27 -6 -158 -15 -290 -20 -132 -5 -307 -14
-390 -20 -82 -7 -328 -12 -545 -13 -349 -2 -400 0 -440 15 -25 9 -62 20 -83
23 -21 3 -41 13 -44 21 -3 7 -13 14 -23 14 -9 0 -28 8 -41 18 -13 9 -31 22
-40 27 -67 42 -104 73 -172 141 -79 79 -187 227 -187 257 0 8 -7 17 -15 21 -8
3 -18 23 -21 46 -4 22 -10 40 -14 40 -11 0 -30 57 -30 89 0 15 -8 38 -17 51
-16 22 -18 45 -14 205 10 410 0 741 -26 835 -16 59 -35 357 -35 555 0 165 18
432 32 480 7 22 16 75 20 118 4 43 15 86 23 95 8 9 17 34 20 56 3 21 13 46 22
56 8 9 15 22 15 29 0 42 165 200 209 201 8 0 22 7 32 16 10 9 37 18 61 21 24
3 57 13 73 21 17 8 73 19 125 23 52 4 115 13 140 19 25 7 110 16 190 20 80 4
163 13 185 20 22 7 101 16 175 21 74 5 158 14 185 20 28 6 122 15 210 20 88 5
174 13 190 19 29 9 191 25 340 34 39 2 90 9 115 14 25 6 97 14 160 18 63 3
147 14 186 25 38 10 99 19 135 19 40 0 86 8 119 20 49 18 76 20 230 18 148 -3
179 -6 200 -20z"/>
</g>
</svg>
